<svg xmlns="http://www.w3.org/2000/svg" width="30" height="30" viewBox="0 0 30 30"><defs><style>.a{fill:#a1a1a1;}</style></defs><path class="a" d="M15.313.313a15,15,0,1,0,15,15A15,15,0,0,0,15.313.313ZM22.667,19.25a.726.726,0,0,1,0,1.028l-2.4,2.389a.726.726,0,0,1-1.028,0L15.313,18.7l-3.937,3.968a.726.726,0,0,1-1.028,0l-2.389-2.4a.726.726,0,0,1,0-1.028l3.968-3.931L7.958,11.375a.726.726,0,0,1,0-1.028l2.4-2.4a.726.726,0,0,1,1.028,0l3.931,3.974L19.25,7.958a.726.726,0,0,1,1.028,0l2.4,2.4a.726.726,0,0,1,0,1.028L18.7,15.313Z" transform="translate(-0.313 -0.313)"/></svg>