<svg xmlns="http://www.w3.org/2000/svg" xmlns:xlink="http://www.w3.org/1999/xlink" width="1332.686" height="291.135" viewBox="0 0 1332.686 291.135"><defs><style>.a{fill:#ffbe55;}.b{fill:url(#a);}.c{fill:url(#b);}.d{fill:url(#c);}.e{fill:#92a6eb;}.f{fill:#ea971d;}.g{fill:#f2d265;}.h{fill:#6a74ef;}</style><linearGradient id="a" x1="0.5" y1="1" x2="0.5" gradientUnits="objectBoundingBox"><stop offset="0" stop-color="#e9aa4a"/><stop offset="1" stop-color="#f2d265"/></linearGradient><linearGradient id="b" x1="0.5" y1="1" x2="0.5" gradientUnits="objectBoundingBox"><stop offset="0" stop-color="#6a74ef"/><stop offset="1" stop-color="#92a6eb"/></linearGradient><linearGradient id="c" x1="0.5" y1="1" x2="0.5" gradientUnits="objectBoundingBox"><stop offset="0" stop-color="#ea971d"/><stop offset="1" stop-color="#e9aa4a"/></linearGradient></defs><g transform="translate(15094.146 -3452.002)"><g transform="translate(-16028.255 3110)"><path class="a" d="M1206.258,573.524a.663.663,0,0,0-.33-1.156c-2.972-.413-5.944.908-8.668,2.394.083-3.137.248-6.687-1.073-9.411a.388.388,0,0,0-.661-.082c-1.734,2.972-1.651,7.347-1.981,10.649a51.61,51.61,0,0,1-4.293-4.21c-.991-1.156-1.569-1.9-3.137-2.229a1.027,1.027,0,0,0-1.156.908c0,2.724,3.137,5.448,5.944,7.512-2.807,1.238-5.779,2.312-8.008,4.045a1.3,1.3,0,0,0,.661,2.311c3.137.413,6.439-1.321,9.328-3.054-.248,2.229-.578,4.458-.908,6.687-.413,2.477,3.054,3.137,4.045,1.073a17.54,17.54,0,0,0,1.238-6.439,22.506,22.506,0,0,0,8.007,3.88c.33.083.578-.413.33-.66-2.559-2.477-5.531-4.54-8.338-6.769v-.33C1200.314,577.073,1203.616,575.67,1206.258,573.524Z" transform="translate(-14.383 -13.804)"/><path class="a" d="M1226.161,582.265c2.477-.33,4.788-1.321,7.347-1.073a.651.651,0,0,1,.165,1.238c-2.477,1.073-4.953.66-7.512.248A.208.208,0,0,1,1226.161,582.265Z" transform="translate(-21.985 -16.601)"/><path class="a" d="M1248.783,582.5c2.889-.66,6.191-1.569,9-.33a1.1,1.1,0,0,1,0,1.981,11.107,11.107,0,0,1-9.163-.413A.651.651,0,0,1,1248.783,582.5Z" transform="translate(-25.869 -16.671)"/><path class="a" d="M1273.275,583.926a30.416,30.416,0,0,1,6.027-.908c1.816-.165,3.963-.826,5.614.083a1.058,1.058,0,0,1,.248,1.816c-1.4,1.4-3.55,1.156-5.449,1.238a21.005,21.005,0,0,1-6.439-.413C1272.45,585.577,1272.533,584.257,1273.275,583.926Z" transform="translate(-30.135 -16.859)"/><path class="a" d="M1216.192,591.5a11.919,11.919,0,0,1,3.467.908,5.583,5.583,0,0,1,2.972,2.146.978.978,0,0,1-.908,1.568,5.658,5.658,0,0,1-3.385-1.4,14.579,14.579,0,0,1-2.559-2.477A.465.465,0,0,1,1216.192,591.5Z" transform="translate(-20.189 -18.406)"/><path class="a" d="M1235.219,602.987a14.361,14.361,0,0,1,5.283,3.467.788.788,0,0,1-.66,1.238,7.551,7.551,0,0,1-5.449-3.88C1234.228,603.318,1234.723,602.74,1235.219,602.987Z" transform="translate(-23.449 -20.4)"/><path class="a" d="M1257.638,618.594a19.91,19.91,0,0,1,9.576,7.265.8.8,0,0,1-1.073,1.156,61,61,0,0,1-9.081-7.512A.548.548,0,0,1,1257.638,618.594Z" transform="translate(-27.376 -23.128)"/><path class="a" d="M1230.323,589.8c10.319,3.632,21.794,5.861,31.288,11.557.661.413,0,1.4-.66,1.073-9.989-4.293-22.124-5.448-30.875-12.218C1229.827,590.045,1229.992,589.715,1230.323,589.8Z" transform="translate(-22.68 -18.107)"/><path class="a" d="M1208.859,601.758a.4.4,0,0,1,.5-.165c2.559.743,5.036,4.128,7.017,5.861a70.045,70.045,0,0,1,8.916,9.576c5.861,7.017,12.3,14.694,14.777,23.61.248.991-1.156,1.4-1.733.743-6.357-7.677-11.475-16.428-17.832-24.271a117.685,117.685,0,0,0-8.09-8.916C1210.923,606.629,1207.868,604.152,1208.859,601.758Z" transform="translate(-18.965 -20.162)"/><path class="a" d="M1201.391,611.53a15.634,15.634,0,0,1,.99-5.861.212.212,0,0,1,.413.083,34.445,34.445,0,0,1,.66,5.779c.165,1.651.908,3.467.165,5.118a.82.82,0,0,1-1.4.165C1201.06,615.41,1201.391,613.346,1201.391,611.53Z" transform="translate(-17.689 -20.852)"/><path class="a" d="M1202.3,633.074a40.121,40.121,0,0,0,.248-5.448,1.582,1.582,0,0,1,3.137-.413,27.959,27.959,0,0,1,.33,5.283c0,1.734,0,3.137-1.651,3.963a1.062,1.062,0,0,1-.99-.082C1202.3,635.469,1202.3,634.478,1202.3,633.074Z" transform="translate(-17.855 -24.4)"/><path class="a" d="M1199.7,659.728a50.807,50.807,0,0,1,.908-6.192c.33-1.4.578-2.972,1.816-3.963a.565.565,0,0,1,.826.165c.66,1.238.413,2.724.33,4.128-.083,2.064-.083,4.21-.248,6.274C1203,662.452,1199.533,661.957,1199.7,659.728Z" transform="translate(-17.4 -28.517)"/><path class="a" d="M1215.613,624.576c5.118,8.833,6.769,19.813,7.843,29.8a.543.543,0,0,1-1.073.165c-1.9-10.154-5.036-19.813-7.182-29.884C1215.2,624.411,1215.53,624.411,1215.613,624.576Z" transform="translate(-20.106 -24.157)"/><path class="a" d="M1182.765,603.343c.826-1.238,2.642-3.715,4.375-2.972a1.012,1.012,0,0,1,.661,1.156c0,.743-.743,1.4-1.156,2.064a12.719,12.719,0,0,0-1.4,2.559c-.413.826-.826,2.229-1.651,2.807-.578.413-1.568.991-2.229.33C1179.628,607.636,1181.774,604.912,1182.765,603.343Z" transform="translate(-14.088 -19.93)"/><path class="a" d="M1167.1,628.025a11.48,11.48,0,0,1,2.229-4.045,54.845,54.845,0,0,1,2.972-4.623.559.559,0,0,1,.99.413,13.437,13.437,0,0,1-1.816,4.871c-.908,1.569-1.816,3.22-3.385,4.128C1167.676,629.015,1167.016,628.52,1167.1,628.025Z" transform="translate(-11.712 -23.231)"/><path class="a" d="M1156.31,644.323c.826-1.486,1.734-2.889,2.559-4.375,1.073-1.816,3.715.165,2.559,1.981-.743,1.156-1.568,2.394-2.229,3.55-.743,1.238-1.321,2.476-2.642,3.219a.668.668,0,0,1-.908-.33C1155.072,646.882,1155.65,645.562,1156.31,644.323Z" transform="translate(-9.675 -26.733)"/><path class="a" d="M1178.7,633.505c1.156-4.458,3.22-8.421,5.118-12.548s3.385-8.751,6.026-12.383a.272.272,0,0,1,.5.165c-.413,4.54-2.642,8.916-4.293,13.126-1.734,4.293-3.385,8.585-5.944,12.465C1179.521,635.156,1178.531,634.331,1178.7,633.505Z" transform="translate(-13.734 -21.364)"/><path class="a" d="M1120.867,624.2c2.642-4.458,7.265-8.09,10.814-11.805a93.779,93.779,0,0,1,11.227-10.237c7.1-5.2,16.428-7.182,22.785-13.374.165-.165.413.083.33.248-4.953,7.017-13.209,10.237-20.143,14.942-4.623,3.137-8.586,7.512-12.383,11.557-3.385,3.55-6.769,8.173-11.227,10.4C1121.115,626.6,1120.372,625.194,1120.867,624.2Z" transform="translate(-3.62 -17.924)"/><path class="a" d="M1101.314,555.3a168.782,168.782,0,0,1,35.828,4.375c10.649,2.477,22.7,5.861,31.122,13.043a.813.813,0,0,1-.743,1.4c-5.283-1.734-10.319-4.128-15.52-6.026a143.513,143.513,0,0,0-16.758-4.623c-11.31-2.477-22.867-3.467-34.26-5.861C1099.415,557.364,1099.745,555.3,1101.314,555.3Z" transform="translate(0 -12.091)"/><path class="a" d="M1158.588,580.292c.991-2.229,4.045-1.321,5.944-.991,1.4.248,2.807.578,4.21.908.991.165,2.229.165,2.972.908.083.083.165.165.083.33-.743,1.816-4.045,1.321-5.531,1.156s-2.972-.33-4.375-.413c-1.238-.083-2.394.083-3.22-.991A1.2,1.2,0,0,1,1158.588,580.292Z" transform="translate(-10.219 -16.197)"/><path class="a" d="M1138,577.484a9.011,9.011,0,0,1,5.118-.33,17.793,17.793,0,0,1,6.191,1.4.7.7,0,0,1,0,1.238,13.048,13.048,0,0,1-5.036.413c-2.229-.083-4.21-.083-6.192-1.156A.849.849,0,0,1,1138,577.484Z" transform="translate(-6.551 -15.866)"/><path class="a" d="M1116.037,577.1a7.1,7.1,0,0,1,4.458-1.321c1.4,0,3.632-.33,4.871.33a1.013,1.013,0,0,1,.413,1.569c-.908,1.156-3.054,1.238-4.375,1.4a10.182,10.182,0,0,1-5.2-.578A.851.851,0,0,1,1116.037,577.1Z" transform="translate(-2.753 -15.65)"/><path class="a" d="M1121.215,592.729a111.191,111.191,0,0,1,16.428-2.477l8.173-.743c2.064-.248,4.458-.826,6.357,0,.248.083.248.33.082.5-2.724,2.642-9.163,2.559-12.8,3.055-5.944.908-11.97,1.4-18,1.734A1.04,1.04,0,0,1,1121.215,592.729Z" transform="translate(-3.556 -17.984)"/><path class="a" d="M1148.616,517.44a107.077,107.077,0,0,1,17.584,18.575c4.21,5.614,9.824,13.869,9.081,21.216,0,.165-.33.33-.413.082-2.064-2.807-3.3-6.274-4.953-9.411a86,86,0,0,0-7.347-10.814c-4.871-6.274-10.567-11.805-15.52-18.079C1146.222,518.018,1147.625,516.532,1148.616,517.44Z" transform="translate(-8.172 -5.436)"/><path class="a" d="M1196.3,530c-.33-5.118-.99-10.237-1.651-15.272-.66-5.118-1.321-10.154-1.9-15.272-.5-4.21-1.321-8.916.083-12.961a.868.868,0,0,1,1.569,0c1.734,3.8,1.569,8.42,1.9,12.548.5,5.118,1.156,10.154,1.651,15.272.991,9.411,2.559,20.391.248,29.719-.165.578-1.073.66-1.156,0C1196.468,539.412,1196.633,534.624,1196.3,530Z" transform="translate(-16.068)"/><path class="a" d="M1186.9,550.16a1.13,1.13,0,0,1,1.9-.248,4.792,4.792,0,0,1,1.156,3.467,12.963,12.963,0,0,1,.165,3.55.539.539,0,0,1-.743.413,4.5,4.5,0,0,1-2.229-2.807C1186.49,553.132,1186.077,551.563,1186.9,550.16Z" transform="translate(-15.089 -11.078)"/><path class="a" d="M1180.765,535.654c.083-.578.991-.991,1.321-.413.248.33.5.578.743.908a7.719,7.719,0,0,1,.5,1.238,30.705,30.705,0,0,0,1.321,2.889c.5.908-.825,1.569-1.486.908a29.336,29.336,0,0,1-1.9-2.559A3.124,3.124,0,0,1,1180.765,535.654Z" transform="translate(-14.069 -8.542)"/><path class="a" d="M1173.9,519.108c0-.743.661-1.156,1.238-.743,1.981,1.156,2.642,4.128,3.22,6.191.248.991-1.156,1.238-1.569.413C1175.8,523.236,1173.9,521.255,1173.9,519.108Z" transform="translate(-12.9 -5.618)"/><path class="a" d="M1163.2,554.8a7.123,7.123,0,0,1,4.458,1.981c.991.826,2.312,1.734,2.724,3.054a.3.3,0,0,1-.082.248c-1.156.5-2.559-.083-3.632-.66a13.326,13.326,0,0,1-4.21-3.22A.881.881,0,0,1,1163.2,554.8Z" transform="translate(-10.872 -12.003)"/><path class="a" d="M1145.24,547.5a8.021,8.021,0,0,1,4.54,1.238c.66.413,1.321.743,1.9,1.156.248.165.826.743.99.826s.165.413-.082.413a8.59,8.59,0,0,1-1.073.33,7.883,7.883,0,0,1-2.394-.248,7.434,7.434,0,0,1-4.54-2.394C1144.332,548.406,1144.58,547.5,1145.24,547.5Z" transform="translate(-7.768 -10.728)"/><path class="a" d="M1128.413,541.16c1.4-.5,2.724.083,4.128.578a9.408,9.408,0,0,1,3.054,1.4c.165.083.082.33,0,.413-.826.826-2.229.5-3.3.413-1.4-.165-3.219-.33-4.128-1.651C1127.918,541.9,1127.918,541.325,1128.413,541.16Z" transform="translate(-4.893 -9.591)"/><path class="a" d="M1215.251,554.236a217.754,217.754,0,0,0,17.584-26.582c2.394-4.375,4.706-8.751,7.017-13.208,2.229-4.375,4.21-9.163,7.512-12.961.908-1.073,3.219-.5,2.807,1.156-1.073,4.871-3.633,9.246-5.944,13.621-2.394,4.623-4.871,9.163-7.512,13.621-5.531,9.411-11.722,18.657-19.73,26.169C1215.994,556.961,1214.426,555.392,1215.251,554.236Z" transform="translate(-20.074 -2.607)"/><path class="a" d="M1208.91,552.226a62.967,62.967,0,0,1,3.632-7.512.69.69,0,0,1,1.321.33,21.2,21.2,0,0,1-2.312,7.347c-1.073,2.229-1.9,4.871-3.467,6.852-.165.165-.33.083-.413-.083C1207.177,556.849,1208.167,554.373,1208.91,552.226Z" transform="translate(-18.769 -10.173)"/><path class="a" d="M1217.3,521.411a.738.738,0,0,1,1.4.33c-.33,3.3-.578,6.687-1.981,9.824a.691.691,0,0,1-1.321-.33A28.46,28.46,0,0,1,1217.3,521.411Z" transform="translate(-20.141 -6.105)"/><path class="a" d="M1215.557,500.005a.736.736,0,0,1,1.4.165c.165,2.724-.083,5.366.66,8.008.33,1.238-1.651,1.486-1.981.248A12.8,12.8,0,0,1,1215.557,500.005Z" transform="translate(-20.051 -2.365)"/><path class="a" d="M1226.771,571.5c8.833-5.2,20.391-6.934,30.38-8.173,9.824-1.238,21.134-2.394,30.792.5,1.486.413,1.073,2.807-.33,2.889-9.906.991-19.9-.083-29.8.826-10.319.908-20.473,3.88-30.792,4.54C1226.605,572.074,1226.523,571.661,1226.771,571.5Z" transform="translate(-22.1 -13.262)"/><path class="a" d="M1226.268,565.542c2.146-2.642,5.283-4.54,8.173-6.274a.827.827,0,0,1,1.156,1.156c-1.981,2.889-4.953,5.779-8.668,6.274A.73.73,0,0,1,1226.268,565.542Z" transform="translate(-22.01 -12.757)"/><path class="a" d="M1250.786,551.543a15.152,15.152,0,0,1,3.137-3.385,18.356,18.356,0,0,1,3.715-2.972c.5-.248,1.156.248.991.743-.413,1.816-1.486,2.642-2.89,3.715a14.524,14.524,0,0,1-4.623,2.394A.31.31,0,0,1,1250.786,551.543Z" transform="translate(-26.303 -10.315)"/><path class="a" d="M1276.477,532.275c1.816-1.981,3.88-4.54,6.6-5.283.908-.248,1.9.66,1.238,1.568-1.651,2.229-4.788,3.3-7.347,4.375C1276.642,533.018,1276.147,532.6,1276.477,532.275Z" transform="translate(-30.778 -7.144)"/><path class="a" d="M1142.594,636.412c1.486-6.439,7.017-9.906,10.732-14.942,1.156-1.569,3.467.165,2.394,1.816-3.3,4.953-7.843,9.081-11.392,13.869C1143.833,637.9,1142.347,637.4,1142.594,636.412Z" transform="translate(-7.434 -23.528)"/></g><g transform="translate(-14591.409 3033.454)"><path class="a" d="M683.245,608.32c-3.157-1.8-7.043-2.671-10.831-3.691,3.109-3.109,6.654-7.14,6.12-10.588a1.328,1.328,0,0,0-1.6-.923c-1.894.583-2.429,1.651-3.546,3.3a62.4,62.4,0,0,1-4.614,6.071c-1.069-4.177-1.7-9.617-4.469-13.065-.243-.34-.729-.1-.826.243-1.166,3.594-.34,8.111.34,12-3.691-1.36-7.626-2.429-11.366-1.409a.853.853,0,0,0-.194,1.554c3.691,2.186,8.16,3.5,12.288,4.954,0,.146.049.291.049.437-3.157,3.3-6.557,6.363-9.277,10.005-.243.34.194.874.583.729,3.5-1.214,6.606-3.643,9.423-6.266a21.592,21.592,0,0,0,2.769,7.868c1.6,2.429,5.78.971,4.857-2.04-.826-2.768-1.6-5.488-2.38-8.257,3.983,1.651,8.354,3.254,12.288,2.186A1.733,1.733,0,0,0,683.245,608.32Z" transform="translate(-100.87 -87.798)"/><path class="a" d="M612.367,634.711c-3.206,0-6.314-.826-9.423,0a.828.828,0,0,0,0,1.6c3.254.874,6.363,0,9.52-1.02A.3.3,0,0,0,612.367,634.711Z" transform="translate(-75.406 -110.983)"/><path class="a" d="M561.713,642.174c-3.74-.34-8.111-.826-11.414,1.214a1.36,1.36,0,0,0,.34,2.477,14.322,14.322,0,0,0,11.511-2.137A.846.846,0,0,0,561.713,642.174Z" transform="translate(-48.309 -114.852)"/><path class="a" d="M506.068,652.93c-2.574-.486-5.2-.146-7.771-.049-2.331.1-5.1-.34-7.091,1.117a1.408,1.408,0,0,0,0,2.38c2.04,1.457,4.711.874,7.091.583a30.133,30.133,0,0,0,8.063-1.651A1.3,1.3,0,0,0,506.068,652.93Z" transform="translate(-17.921 -120.41)"/><path class="a" d="M638.706,651.387a15.391,15.391,0,0,0-4.226,1.8,7.254,7.254,0,0,0-3.351,3.254,1.271,1.271,0,0,0,1.409,1.846,6.872,6.872,0,0,0,4.031-2.429,18.012,18.012,0,0,0,2.817-3.594A.6.6,0,0,0,638.706,651.387Z" transform="translate(-90.137 -119.741)"/><path class="a" d="M603.012,681.694a20.518,20.518,0,0,0-6.071,5.294.959.959,0,0,0,1.069,1.409,9.387,9.387,0,0,0,6.12-5.828A.78.78,0,0,0,603.012,681.694Z" transform="translate(-72.559 -135.283)"/><path class="a" d="M554.917,721.9a25.927,25.927,0,0,0-10.734,10.831,1.021,1.021,0,0,0,1.6,1.214,70.862,70.862,0,0,0,10.1-11.123C556.325,722.244,555.5,721.564,554.917,721.9Z" transform="translate(-45.447 -155.967)"/><path class="a" d="M576.673,651.966c-12.385,6.411-26.374,11.317-37.254,20.157-.729.583.194,1.749.971,1.263,11.851-7.14,26.908-10.783,36.671-20.982C577.3,652.209,576.964,651.82,576.673,651.966Z" transform="translate(-42.918 -120.029)"/><path class="a" d="M631.739,670.845a.538.538,0,0,0-.68-.194c-3.06,1.409-5.586,6.12-7.82,8.646-3.691,4.177-6.557,8.937-9.471,13.648-6.168,9.908-12.823,20.643-14.377,32.4-.146,1.263,1.7,1.554,2.283.631,6.654-10.88,11.463-22.78,18.068-33.708a148.406,148.406,0,0,1,8.548-12.677C629.991,677.4,633.342,673.71,631.739,670.845Z" transform="translate(-73.893 -129.631)"/><path class="a" d="M682.174,684.643a18.43,18.43,0,0,0-2.331-7.188.29.29,0,0,0-.534.146,63.458,63.458,0,0,0,.146,7.431c.049,2.186-.534,4.566.777,6.411a1.09,1.09,0,0,0,1.846,0C683.34,689.451,682.514,686.877,682.174,684.643Z" transform="translate(-114.953 -133.083)"/><path class="a" d="M684.271,730.046a54.926,54.926,0,0,1-1.311-6.848,2.041,2.041,0,0,0-4.08,0,38.011,38.011,0,0,0,.486,6.654c.291,2.186.534,3.934,2.768,4.76a1.373,1.373,0,0,0,1.214-.291C684.805,733.058,684.611,731.795,684.271,730.046Z" transform="translate(-114.768 -155.659)"/><path class="a" d="M697.153,783.685a47.913,47.913,0,0,0-2.283-7.674c-.68-1.748-1.263-3.594-2.963-4.614a.666.666,0,0,0-.971.389c-.583,1.7,0,3.5.291,5.246.486,2.623.874,5.294,1.506,7.868C693.462,787.814,697.736,786.551,697.153,783.685Z" transform="translate(-120.85 -181.418)"/><path class="a" d="M653.335,721.813c-4.906,12.045-4.954,26.18-4.517,38.954a.706.706,0,0,0,1.409,0c.534-13.065,2.72-25.888,3.643-38.9C653.87,721.57,653.433,721.57,653.335,721.813Z" transform="translate(-99.229 -155.877)"/><path class="a" d="M714.526,664.641c-1.263-1.457-3.983-4.177-6.071-2.963a1.5,1.5,0,0,0-.68,1.6c.146.971,1.166,1.7,1.8,2.38a27.794,27.794,0,0,1,2.234,2.963c.68.971,1.409,2.671,2.526,3.206.826.389,2.186.923,2.914,0C719.189,669.4,716.032,666.341,714.526,664.641Z" transform="translate(-129.626 -124.884)"/><path class="a" d="M754.048,707.749c-.729-1.846-2.186-3.206-3.5-4.663-1.506-1.748-2.914-3.691-4.566-5.294a.728.728,0,0,0-1.214.68,17.029,17.029,0,0,0,3.157,5.828c1.409,1.8,2.817,3.74,5,4.614A.962.962,0,0,0,754.048,707.749Z" transform="translate(-148.651 -143.512)"/><path class="a" d="M783.406,742.347c-1.263-1.7-2.72-3.3-4.031-5-1.651-2.089-4.614.874-2.914,2.914,1.166,1.36,2.331,2.671,3.5,4.08,1.166,1.36,2.089,2.914,3.886,3.546a.94.94,0,0,0,1.117-.631C785.495,745.407,784.475,743.756,783.406,742.347Z" transform="translate(-164.701 -163.588)"/><path class="a" d="M721.532,709.83c-2.283-5.391-5.586-10.005-8.743-14.911-3.109-4.808-5.78-10.394-9.811-14.523a.355.355,0,0,0-.583.34c1.36,5.586,4.954,10.734,7.82,15.688,2.963,5.148,5.78,10.2,9.714,14.62C720.755,712.015,721.97,710.8,721.532,709.83Z" transform="translate(-126.869 -134.616)"/><path class="a" d="M796.423,669.618c-4.128-5.148-10.54-8.888-15.737-12.92a116.57,116.57,0,0,0-16.028-10.928c-9.811-5.246-22-6.071-31.085-12.726-.243-.194-.534.194-.34.437,7.528,7.966,18.457,10.54,28.074,15.154,6.411,3.109,12.143,7.917,17.68,12.337,4.857,3.886,9.957,9.131,15.98,11.123C796.52,672.629,797.249,670.687,796.423,669.618Z" transform="translate(-142.698 -110.287)"/><path class="a" d="M795.112,538.876a206.124,206.124,0,0,0-44.3,12c-13.017,5-27.491,11.414-36.914,22.051a1.021,1.021,0,0,0,1.214,1.6c6.314-3.157,12.24-7.043,18.457-10.346a178.623,178.623,0,0,1,20.254-8.84c13.794-5.148,28.219-8.5,42.062-13.5A1.532,1.532,0,0,0,795.112,538.876Z" transform="translate(-132.644 -61.872)"/><path class="a" d="M749.507,608.931c-1.651-2.574-5.391-.923-7.674-.146-1.749.583-3.449,1.214-5.2,1.846-1.214.437-2.768.583-3.643,1.651a.294.294,0,0,0-.049.388c1.214,2.137,5.294.971,7.14.534s3.643-.971,5.488-1.36c1.554-.291,3.06-.34,3.886-1.894A.8.8,0,0,0,749.507,608.931Z" transform="translate(-142.555 -97.2)"/><path class="a" d="M794.869,597.545a12.4,12.4,0,0,0-6.508.486c-2.526.729-5.391,1.263-7.48,2.914a.866.866,0,0,0,.194,1.554,15.859,15.859,0,0,0,6.411-.34c2.817-.534,5.294-.874,7.626-2.623C795.792,598.953,795.889,597.739,794.869,597.545Z" transform="translate(-167.032 -91.933)"/><path class="a" d="M843.6,589.515a9.42,9.42,0,0,0-5.877-.923c-1.749.194-4.614.243-6.12,1.263a1.371,1.371,0,0,0-.291,2.089c1.36,1.36,4.031,1.02,5.78,1.02a12.922,12.922,0,0,0,6.46-1.651A1.012,1.012,0,0,0,843.6,589.515Z" transform="translate(-192.985 -87.4)"/><path class="a" d="M808.541,626.1a140.1,140.1,0,0,0-21.177-.146c-3.448.194-6.9.389-10.394.486-2.671.1-5.731-.291-8.063,1.166a.408.408,0,0,0,0,.68c3.934,2.866,12,1.554,16.66,1.6a227.277,227.277,0,0,0,22.974-1.069A1.363,1.363,0,0,0,808.541,626.1Z" transform="translate(-160.984 -106.499)"/><path class="a" d="M739.914,471.845a135.216,135.216,0,0,0-18.8,26.52c-4.274,7.771-9.86,19.282-7.577,28.317a.344.344,0,0,0,.583.1c2.089-3.934,3.011-8.5,4.517-12.726a97.975,97.975,0,0,1,7.286-14.863c5-8.791,11.22-16.805,16.32-25.548A1.5,1.5,0,0,0,739.914,471.845Z" transform="translate(-132.331 -27.19)"/><path class="a" d="M665.456,474.526c-.486-6.508-.583-13.017-.631-19.525s-.194-13.017-.389-19.574c-.146-5.391.1-11.463-2.428-16.368a1.08,1.08,0,0,0-1.943.243c-1.506,5.1-.437,10.831-.194,16.077.292,6.508.389,13.017.631,19.574.437,12.094.389,26.131,5,37.5a.719.719,0,0,0,1.409-.194C666.913,486.378,665.893,480.4,665.456,474.526Z" transform="translate(-104.695)"/><path class="a" d="M693.648,553.467a1.411,1.411,0,0,0-2.429,0,5.909,5.909,0,0,0-.826,4.517,23.818,23.818,0,0,0,.389,4.566.666.666,0,0,0,.971.389c1.457-.923,1.846-2.283,2.331-3.886C694.62,557.11,694.911,555.119,693.648,553.467Z" transform="translate(-120.648 -69.032)"/><path class="a" d="M701.76,520.648c-.243-.68-1.36-1.069-1.749-.243-.194.437-.534.826-.729,1.263a9.689,9.689,0,0,0-.437,1.7,27.254,27.254,0,0,1-1.117,3.886c-.437,1.214,1.36,1.846,2.04.874a22.7,22.7,0,0,0,1.943-3.546A4.831,4.831,0,0,0,701.76,520.648Z" transform="translate(-124.436 -52.145)"/><path class="a" d="M710.806,482.937a1,1,0,0,0-1.7-.729c-2.283,1.846-2.623,5.634-2.914,8.4-.146,1.263,1.7,1.36,2.089.291C709.106,488.377,711.194,485.608,710.806,482.937Z" transform="translate(-128.82 -32.599)"/><path class="a" d="M740.311,556.682c-2.186.34-3.789,1.749-5.246,3.3-1.117,1.214-2.574,2.574-2.866,4.323,0,.1.049.243.146.243,1.6.437,3.206-.583,4.42-1.506a16.626,16.626,0,0,0,4.76-4.809A1.082,1.082,0,0,0,740.311,556.682Z" transform="translate(-142.2 -71.033)"/><path class="a" d="M775.794,535.5a9.3,9.3,0,0,0-5.489,2.428,25.831,25.831,0,0,0-2.234,1.8c-.34.291-.923,1.069-1.117,1.214a.288.288,0,0,0,.146.534,5.734,5.734,0,0,0,1.36.194,12.98,12.98,0,0,0,3.011-.729,9.519,9.519,0,0,0,5.246-3.837A1.08,1.08,0,0,0,775.794,535.5Z" transform="translate(-160.003 -60.146)"/><path class="a" d="M810.2,516.826c-1.846-.34-3.448.631-5.051,1.409a12.821,12.821,0,0,0-3.643,2.283.385.385,0,0,0,.049.534c1.214.923,2.914.243,4.226-.1,1.748-.486,3.983-1.02,4.906-2.769A.861.861,0,0,0,810.2,516.826Z" transform="translate(-177.799 -50.508)"/><path class="a" d="M584.6,530.7A270.2,270.2,0,0,1,557.7,500.347c-3.837-5.051-7.528-10.2-11.171-15.4-3.594-5.148-6.994-10.831-11.8-14.96-1.36-1.166-4.08-.1-3.351,1.943,2.283,5.926,6.217,10.977,9.908,16.077,3.837,5.343,7.82,10.637,11.9,15.785,8.646,10.831,18.068,21.371,29.482,29.385C584.216,534.249,585.867,531.918,584.6,530.7Z" transform="translate(-38.852 -26.209)"/><path class="a" d="M642.533,558.92a72.318,72.318,0,0,0-5.974-8.84.88.88,0,0,0-1.6.68,25.724,25.724,0,0,0,4.274,8.84c1.8,2.623,3.3,5.828,5.586,8.014a.28.28,0,0,0,.486-.194C645.641,564.408,643.941,561.445,642.533,558.92Z" transform="translate(-92.166 -67.442)"/><path class="a" d="M620.71,501.546a.9.9,0,0,0-1.651.68c1.069,4.128,1.943,8.306,4.226,12a.878.878,0,0,0,1.6-.68A31.862,31.862,0,0,0,620.71,501.546Z" transform="translate(-83.992 -42.465)"/><path class="a" d="M618.6,455.14a.922.922,0,0,0-1.7.437c.243,3.448,1.02,6.751.631,10.248-.194,1.651,2.38,1.6,2.574,0A17.6,17.6,0,0,0,618.6,455.14Z" transform="translate(-82.9 -18.596)"/><path class="a" d="M535.018,610.756c-12.046-4.906-26.908-5.1-39.682-4.906-12.628.194-27.005.826-38.662,6.12-1.8.826-.874,3.691.971,3.643,12.628-.534,25.014-3.691,37.691-4.323,13.163-.68,26.52,1.166,39.585.194C535.358,611.436,535.407,610.95,535.018,610.756Z" transform="translate(0 -96.304)"/><path class="a" d="M604.309,594.808c-3.157-2.963-7.48-4.711-11.366-6.411-1.069-.437-2.089.68-1.263,1.6,3.011,3.3,7.237,6.411,12,6.314A.865.865,0,0,0,604.309,594.808Z" transform="translate(-69.777 -87.302)"/><path class="a" d="M549.829,572.167a17.324,17.324,0,0,0-4.517-3.643c-1.8-1.117-3.206-2.429-5.246-3.06a.917.917,0,0,0-1.117,1.117c.826,2.186,2.331,3.06,4.323,4.128a18.188,18.188,0,0,0,6.266,2.186C549.975,572.9,550.023,572.41,549.829,572.167Z" transform="translate(-42.788 -75.541)"/><path class="a" d="M488.859,539.569c-2.671-2.137-5.731-5-9.228-5.488a1.312,1.312,0,0,0-1.263,2.186c2.526,2.526,6.654,3.3,10.006,4.177C488.859,540.54,489.3,539.909,488.859,539.569Z" transform="translate(-11.445 -59.408)"/><path class="a" d="M798.787,713.472c-3.011-7.82-10.637-11.22-16.223-16.9-1.749-1.8-4.371.874-2.72,2.72,5.051,5.683,11.511,10.005,16.854,15.4C797.525,715.512,799.273,714.686,798.787,713.472Z" transform="translate(-166.434 -142.679)"/></g><g transform="matrix(0.966, -0.259, 0.259, 0.966, -15158.673, 3513.472)"><g transform="translate(47.368 72.529)"><path class="b" d="M504.711,180.353a28.62,28.62,0,0,1-4.686-1.908,9.656,9.656,0,0,1-3.581-2.911,3.6,3.6,0,0,1-.344-.689,2.371,2.371,0,0,1-.1-.327l-.076-.4a3.572,3.572,0,0,1,.212-1.161,24.369,24.369,0,0,1,2.676-4.744,37.17,37.17,0,0,0,3.727-6.835,17.8,17.8,0,0,0,1.051-9.37,18.654,18.654,0,0,0-.541-2.339,21.126,21.126,0,0,0-.834-2.256l-.172-.388-.143-.306-.131-.269q-.265-.536-.573-1.06a17.936,17.936,0,0,0-1.359-2.014,21.856,21.856,0,0,0-7.041-5.747,62.244,62.244,0,0,0-6.9-3.036,55.436,55.436,0,0,1-5.637-2.444,17.045,17.045,0,0,1-2.142-1.322c-.3-.22-.628-.485-.84-.68l-.2-.181-.156-.142-.079-.072c.129.112.034.027.061.05l0-.006-.01-.011a1.779,1.779,0,0,1-.142-.182,3.48,3.48,0,0,1-.446-.969,15.2,15.2,0,0,1-.469-2.137,42.841,42.841,0,0,0-1.615-7.681,18.645,18.645,0,0,0-5.66-8.28L459.3,121.4c.041.025.093.051.132.077a4.731,4.731,0,0,1,1.854,2.185,32.815,32.815,0,0,1,1.465,5.524,25.979,25.979,0,0,0,1.387,4.383,16.007,16.007,0,0,0,3.114,4.768c.34.357.7.693,1.064,1.011l.2.175.082.067.166.132.457.359c.67.513,1.259.912,1.9,1.317a29.733,29.733,0,0,0,3.778,1.988,66.655,66.655,0,0,0,7,2.514,52.761,52.761,0,0,1,5.691,2.028,10.884,10.884,0,0,1,3.654,2.451,7.031,7.031,0,0,1,.6.752c.094.133.184.27.269.414l.066.107.017.026-.034-.071.014.024.048.094.2.377c.117.231.281.578.406.9a9.4,9.4,0,0,1,.3.947,7.19,7.19,0,0,1-.2,3.984,27.659,27.659,0,0,1-2.483,5.211,30.531,30.531,0,0,0-3.337,7.379,11.894,11.894,0,0,0-.1,5.558l.13.5c.071.252.154.546.227.74a11.64,11.64,0,0,0,.515,1.255,12.7,12.7,0,0,0,1.37,2.234,18.2,18.2,0,0,0,7.078,5.283,33.782,33.782,0,0,0,3.956,1.47Z" transform="translate(-459.295 -110.533)"/></g><g transform="translate(117.581 28)"><path class="c" d="M556.9,71.418c.01.175.034.371.039.538a9.643,9.643,0,0,1-.181,2.316,4.073,4.073,0,0,1-.534,1.352c-.06.09-.124.182-.2.273-.05.052-.054.072-.14.157l-.257.254c-.354.34-.782.71-1.262,1.1-.967.781-2.145,1.63-3.439,2.592a50.5,50.5,0,0,0-4.185,3.4,23.544,23.544,0,0,0-4.268,5.129,17.969,17.969,0,0,0-2.465,7.178c-.038.312-.065.622-.085.931l-.024.46-.016.552.016.887c.014.453.049.727.081,1.093a15.854,15.854,0,0,0,1,4.016,19.819,19.819,0,0,0,3.707,5.846c1.294,1.459,2.5,2.579,3.543,3.594a20.556,20.556,0,0,1,4.318,5.146,8.258,8.258,0,0,1,.812,2.443,10.263,10.263,0,0,1,.135,1.364v.71c-.016.224-.024.451-.055.674a11.832,11.832,0,0,1-2.305,5.526,34.186,34.186,0,0,1-5.3,5.635c-4.2,3.733-9.263,7.124-14.169,11.722a37.634,37.634,0,0,0-3.581,3.879,24.96,24.96,0,0,0-1.648,2.342l-.295.486-.362.634c-.261.451-.458.848-.663,1.253a38,38,0,0,0-3.176,9.872,66.513,66.513,0,0,0-.816,16.006l8.406-.636a57.566,57.566,0,0,1,1.515-13.408,28.468,28.468,0,0,1,2.793-7.232c.155-.262.31-.535.445-.73l.22-.34.323-.468a15.84,15.84,0,0,1,1.055-1.3,27.83,27.83,0,0,1,2.755-2.624c4.147-3.477,9.379-6.587,14.518-10.577a45.766,45.766,0,0,0,7.54-7.17,24.278,24.278,0,0,0,5.179-10.827c.1-.523.171-1.05.238-1.578l.075-.905.039-.653a22.769,22.769,0,0,0-.085-3.17,21.389,21.389,0,0,0-1.591-6.283,32.508,32.508,0,0,0-6.5-9.328c-1.065-1.157-2.012-2.177-2.67-3.034a5.418,5.418,0,0,1-1.058-1.84,3.272,3.272,0,0,1,.693-2.3,18.763,18.763,0,0,1,4.719-3.814c1.186-.778,2.524-1.617,3.984-2.649.731-.519,1.492-1.088,2.279-1.745l.587-.505c.195-.167.458-.418.68-.63.459-.447.9-.923,1.316-1.418a19.828,19.828,0,0,0,3.642-6.653,25.1,25.1,0,0,0,1.142-6.619Z" transform="translate(-520.971 -71.418)"/></g><g transform="translate(148.144 86.625)"><path class="d" d="M634.279,122.915a13.021,13.021,0,0,1-5.076,3.308,14.2,14.2,0,0,1-5.286.738l-7.646-.509a47.394,47.394,0,0,0-8.965.1,17.73,17.73,0,0,0-5.6,1.653,14.5,14.5,0,0,0-2.756,1.788c-.215.172-.418.354-.617.538l-.389.367-.169.174a12.7,12.7,0,0,0-1.232,1.487,16.754,16.754,0,0,0-2.4,5.4c-.419,1.58-.656,2.944-.9,4.164a18.408,18.408,0,0,1-1.7,5.568,6.736,6.736,0,0,1-1.313,1.67,7.2,7.2,0,0,1-.921.724c-.048.03-.214.142-.368.224s-.315.168-.486.249a15.811,15.811,0,0,1-5.606,1.128c-2.27.138-4.792.071-7.524.1a33.658,33.658,0,0,0-9.115,1.1A25.528,25.528,0,0,0,551.526,164.7a30.849,30.849,0,0,0-3.708,11.34l9.154,2.219a21.842,21.842,0,0,1,2.93-8.6,16.087,16.087,0,0,1,3.973-4.376,14.954,14.954,0,0,1,5.152-2.524,24.578,24.578,0,0,1,6.269-.437c2.437.049,5.086.222,7.986.156a26.407,26.407,0,0,0,9.548-1.752c.424-.178.846-.368,1.264-.583s.812-.43,1.314-.741a18.435,18.435,0,0,0,2.184-1.595,18.033,18.033,0,0,0,3.652-4.245,28.7,28.7,0,0,0,3.349-9.018c.3-1.307.561-2.483.844-3.392a5,5,0,0,1,.735-1.651c.038-.046.081-.075.009,0l.174-.167c.031-.03-.173.17-.083.083l.008-.006.016-.011.031-.024a.881.881,0,0,1,.12-.092,2.585,2.585,0,0,1,.51-.285,6.215,6.215,0,0,1,1.842-.4,37.512,37.512,0,0,1,6.521.223l3.787.389,1.951.2.977.1.483.048.614.048a27.045,27.045,0,0,0,10.028-1.067,24.718,24.718,0,0,0,3.8-1.511C636.2,133.075,635.115,127.4,634.279,122.915Z" transform="translate(-547.818 -122.915)"/></g></g><g transform="matrix(0.259, 0.966, -0.966, 0.259, -13781.191, 3522.813)"><g transform="translate(86.192 172.79)"><path class="e" d="M261.352,296.833a9.758,9.758,0,1,0,9.758,9.758A9.769,9.769,0,0,0,261.352,296.833Zm0,17.076a7.318,7.318,0,1,1,7.318-7.318A7.326,7.326,0,0,1,261.352,313.909Z" transform="translate(-251.594 -296.833)"/></g><g transform="translate(74.402 103.674)"><path class="f" d="M256.969,344.834a15.042,15.042,0,1,0,15.043,15.043A15.059,15.059,0,0,0,256.969,344.834Zm0,27.647a12.6,12.6,0,1,1,12.6-12.6A12.618,12.618,0,0,1,256.969,372.481Z" transform="translate(-241.927 -344.834)"/></g><g transform="translate(0 90.054)"><path class="g" d="M201.662,346.667A20.735,20.735,0,1,0,222.4,367.4,20.758,20.758,0,0,0,201.662,346.667Zm0,39.03a18.3,18.3,0,1,1,18.3-18.3A18.316,18.316,0,0,1,201.662,385.7Z" transform="translate(-180.927 -346.667)"/></g><g transform="translate(23.377)"><path class="h" d="M226.52,411.166a26.427,26.427,0,1,0,26.427,26.427A26.457,26.457,0,0,0,226.52,411.166Zm0,50.414a23.988,23.988,0,1,1,23.988-23.988A24.015,24.015,0,0,1,226.52,461.58Z" transform="translate(-200.093 -411.166)"/></g></g><g transform="matrix(-0.259, 0.966, -0.966, -0.259, -14650.832, 3493.585)"><g transform="translate(86.192 0)"><path class="e" d="M9.758,19.515a9.758,9.758,0,1,1,9.758-9.758A9.769,9.769,0,0,1,9.758,19.515Zm0-17.076a7.318,7.318,0,1,0,7.318,7.318A7.326,7.326,0,0,0,9.758,2.439Z" transform="translate(0 0)"/></g><g transform="translate(74.401 58.547)"><path class="f" d="M15.042,30.085A15.043,15.043,0,1,1,30.085,15.043,15.06,15.06,0,0,1,15.042,30.085Zm0-27.647a12.6,12.6,0,1,0,12.6,12.6A12.618,12.618,0,0,0,15.042,2.438Z"/></g><g transform="translate(0 60.782)"><path class="g" d="M20.735,41.47A20.735,20.735,0,1,1,41.47,20.735,20.758,20.758,0,0,1,20.735,41.47Zm0-39.03a18.3,18.3,0,1,0,18.3,18.3A18.316,18.316,0,0,0,20.735,2.439Z"/></g><g transform="translate(23.377 139.452)"><path class="h" d="M26.427,52.854A26.427,26.427,0,1,1,52.854,26.427,26.457,26.457,0,0,1,26.427,52.854Zm0-50.414A23.988,23.988,0,1,0,50.415,26.428,24.015,24.015,0,0,0,26.427,2.441Z"/></g></g></g></svg>