<svg xmlns="http://www.w3.org/2000/svg" width="276.581" height="263.828" viewBox="0 0 276.581 263.828"><defs><style>.a{fill:#3b1957;}</style></defs><g transform="translate(0)"><path class="a" d="M1716.243,714.52c-.214-.364-1.041-.561-1.8-.9a9.73,9.73,0,0,0-3.786-1.081c-.408-.617-.088-1.142-.36-1.623-1.407-.628-2.4-.361-2.884-1.262,1.127-.208.5-1.291.54-2.343-1.959-1.032-3.191-.858-3.6-2.524,1.245.325.786-2.1.54-3.244-.667-.5-1.851-.153-2.884-.541-.23-.086-.739-.7-1.082-.9-.695-.418-1.222-.409-1.442-.722a19.316,19.316,0,0,1-.721-2.7,49.393,49.393,0,0,1-1.082-9.554c-.367-8.347.834-20.072-.54-27.759-.886-4.948-3.953-8.247-2.885-13.88a12.066,12.066,0,0,0,5.408-1.983c-.541-3.314-.9-7.039-1.262-10.094a15.959,15.959,0,0,1-.361-3.425c.134-.774.959-1.344,1.082-2.163a21.153,21.153,0,0,0-.36-3.966c-.345-4.011-1.127-7.684-1.442-11.717a2.163,2.163,0,0,0,1.081-2.343c-.121-2.549-3.131-3.087-3.605-4.508-.363-1.088.056-2.863,0-4.145a41.415,41.415,0,0,0-3.064-13.7c-.6-1.6-1.1-3.255-1.8-4.866-.695-1.59-1.732-3.238-1.982-4.688-.086-.489.244-1.156.18-1.622a12.258,12.258,0,0,0-1.262-2.524c-1.279-2.641-2.9-5.461-3.605-8.111-.735-2.779-1.063-5.8-1.622-8.833a57.709,57.709,0,0,1-1.442-9.013c-.1-4.148,1.529-6.9,1.8-11,.071-1.061-.083-2.159,0-3.245a37.794,37.794,0,0,1,.9-4.507,29.1,29.1,0,0,1,.9-4.506c.6-1.414,1.808-2.295,2.343-3.425.76-1.6.677-3.273,1.082-5.589a42.622,42.622,0,0,1,1.8-5.768,30.692,30.692,0,0,0,1.8-5.768c.063-.534-.223-.976-.18-1.623a20.988,20.988,0,0,1,.722-2.524c.679-2.972,1.026-5.887,1.982-8.292a79.593,79.593,0,0,1,4.506-9.193,6.976,6.976,0,0,0,0-6.129,10.964,10.964,0,0,0-3.424-2.524c-4.837-1.913-8.192.667-12.258,1.622-5.915,1.389-11.611,2.435-17.125,4.507-1.292.485-2.721,1.391-3.245,1.262-.693-.173-1.758-2.345-2.524-3.245-2.116-2.488-3.352-3.88-5.228-6.309a26.618,26.618,0,0,0-2.524-3.244c-.389-.334-1.154-.643-1.8-1.082a19.553,19.553,0,0,0-1.622-1.261c-.606-.312-1.548-.473-2.164-.721a13.046,13.046,0,0,0-1.982-.9c-.4.07-1.241,1.113-1.262,1.261-.157,1.1.785,1.149,1.262,2.164-.431-.13-1.72-.524-1.622.361.051.972.749,1.263,1.446,1.516-.426-.056-.937-.1-.989-.1-.468-.022-1.405-.118-1.783.173a.243.243,0,0,1,.032-.278,3.723,3.723,0,0,0,1.087-1.279,4.189,4.189,0,0,1-1.691,1.1,14.856,14.856,0,0,0-1.948.894c-.032.019-.064.04-.1.061-.327.064-.2-.627-.1-.69a.485.485,0,0,1-.344.037,3.525,3.525,0,0,0,.447-1.44,3.306,3.306,0,0,1-.825,1.3.965.965,0,0,0-.333.07c-.056.02-.33.137-.627.269a4.922,4.922,0,0,0-.4-2.1,4.576,4.576,0,0,1-.14,2.075,1.916,1.916,0,0,1-.152.339.589.589,0,0,0-.173.1.182.182,0,0,1,.134-.187c-.737.012-1.2,1.469-1.478,1.943a.5.5,0,0,1,.2-.533c-.012-.232-.435.1-.271-.179a.169.169,0,0,0-.052.008c-.012-.3-.005-.618-.035-.92a6,6,0,0,0-.257,1.949,1.424,1.424,0,0,0,.054.22.115.115,0,0,1-.192-.056,1.323,1.323,0,0,1-.084.172,3.2,3.2,0,0,1-.025-.469.3.3,0,0,1,.053-.089l-.049-.012a6.194,6.194,0,0,1,.187-1.19,4.679,4.679,0,0,0-.646,2.089,2.346,2.346,0,0,0,.029.385c-.535,0-.325.937-.926.212-.031.081-.063.162-.1.244l-.051-.064c-.449-.565-.915-1.1-1.365-1.647-.027-.045-.053-.088-.082-.128l0,.025c-.161-.2-.322-.4-.478-.6.349.825.76,1.631,1.133,2.435l0,0c-.389-.36-.777-.719-1.124-1.108-.024-.056-.048-.111-.071-.167a1.53,1.53,0,0,0-.172-1.314,2.664,2.664,0,0,0-1.8-.541c-.642.1-1.109,1.013-1.443,1.443-1.392,1.792-3.1,3.572-3.785,5.227-1.27,3.053-1.487,7.3-1.983,11-.182,1.354-.555,2.468-.721,3.6-.159,1.091.26,1.832-.18,2.524a19.568,19.568,0,0,1-3.064,1.442c-4.431,2.03-8.329,4.047-12.438,6.129-1.06.537-2.062,1.123-3.064,1.622-2.147,1.068-4.856,1.4-6.851,2.524a10.845,10.845,0,0,0-4.326,5.047c-.681,2.01-.192,5.093.721,6.13,1.2,1.365,3.755,2.373,6.489,2.884,2.808.523,5.663,1.243,7.751,1.8,3.2.857,7.134,2.936,10.094,4.147a27.7,27.7,0,0,1,3.426,1.441c.69.442.874,1.083,1.442,1.442a13.913,13.913,0,0,0,3.245,1.082,14.906,14.906,0,0,1,3.244,1.081c.756.521,1.063,1.778,1.8,2.524.809.816,1.688,1.13,2.164,1.8a17.073,17.073,0,0,1,1.622,4.506c1.445,4.795,4.141,8.338,5.768,12.619a65.577,65.577,0,0,1,3.965,20.55,46.476,46.476,0,0,1,0,4.868c-.123,1.993-1.015,5.957-.18,7.571.337.648,1.125.434,1.443,1.261.347.907.167,2.955.18,4.147.078,7.35-2.657,11.532-3.965,17.845-2.548.287-5.067,3.617-3.606,5.948-1.092,4.079-2.793,7.609-3.965,11.717-.393,1.379-1.087,3.421-.9,4.507.117.681,1.017,1.287,1.082,1.983a16.706,16.706,0,0,1-.541,2.524c-1.012,4.037-2.766,7.255-2.884,11.9,1.549.675,2.95,1.495,4.507,2.163.073,2.984-1.353,5.583-2.343,8.472-3.977,11.6.747,26.231-.18,39.838-.1,1.4-.762,5.52-1.442,6.129a22.783,22.783,0,0,0-1.934,1.47c-.153,1.2-.417,1.776-.591,2.676-.243,1.264-1.079,1.193-1.86,2.076-.854,1.864.38,2.952-1.565,2.971-.96.89.181,1.163-.54,1.622-.217.138-.73-.125-1.261,0a8.4,8.4,0,0,0-2.344,1.442,7.5,7.5,0,0,0-.18,2.524c-.054.765-.4,1.56,0,2.344,1.7.792,4.162.886,6.669,1.08,3.628.282,7.915.914,10.1-.36,1.158-.677,1.245-1.928,2.524-2.884,1.262-.944,2.906-.973,3.425-2.163.547-1.251.069-3.052-.18-5.048a37.643,37.643,0,0,0-.721-5.046c-.252-.809-.991-1.556-1.082-2.164-.074-.5.34-1.137.361-1.621.043-1-.314-2.012-.361-3.064a37.309,37.309,0,0,1,0-4.148c.834-11.454,6.764-22.742,7.391-34.07.216-3.91-.653-6.37-.541-9.553,1.309-.155,3.908-.353,4.507-1.081.507-.619.24-1.734.541-2.7.653-2.106,1.845-4.357,2.524-6.85.7-2.57,1.127-5.356,1.982-7.572.245-.632.784-1.153,1.082-1.8.318-.695.416-1.456.721-2.164,1.706-3.959,3.863-7.815,5.589-11.9,1.889-4.47,2.229-9.072,3.424-13.88.337-1.353.546-3.129,1.983-3.965,1.037,1.864,1.018,4.118,1.443,6.309.852,4.4,1.8,8.874,2.343,13.339.282,2.309,1.018,4.469,1.261,6.669a39.258,39.258,0,0,1-.18,4.507,25.346,25.346,0,0,0,.541,4.867c.277,1.391,1,2.7,1.261,4.146.314,1.755.279,4.862,1.082,5.769.541.611,3.959,1.031,4.326,1.8a10.291,10.291,0,0,1-.36,2.7,36.113,36.113,0,0,0-.541,8.831c1.365,13.823,9.483,25.624,9.194,41.1-2.023.965-1.981,3.486-2.344,6.49-.226,1.883-1.1,4.281-.54,5.769.357.955,2.81,1.793,4.146,2.342a36.975,36.975,0,0,1,4.507,1.983c1.4.854,2.5,2.061,3.965,2.884,4.535,2.547,12.381,1.845,17.305,0a7.044,7.044,0,0,0-.179-5.226Zm-68.5-242.45c.019.023.04.043.059.065-.138-.065-.284-.137-.409-.211l.247.027c.033.037.067.076.1.119Zm.358.394.119.124a16.215,16.215,0,0,1-1.692-.463c.519.01,1.236.373,1.573.339Zm.6.632a4.185,4.185,0,0,1,.845,1.257l-.093-.056a4.375,4.375,0,0,0-1.485-1c-.089-.043-.2-.089-.334-.139a9.507,9.507,0,0,0,1.067-.059Zm-2.484-2.23c-.043-.006-.083-.017-.128-.023.012-.008.022-.017.035-.026l.093.049Zm6.752,10.217a.974.974,0,0,1-.161.027c-.048-.086-.1-.173-.141-.261-.149-.3-.277-.62-.4-.941.313.031.626.8.7,1.175Zm-8.472-11.177c.2.1.432.242.68.39-.2.055-.406.108-.608.168-.367.107-.736.223-1.1.351.022-.02.043-.038.066-.056a10.08,10.08,0,0,0,.888-.889l.077.036Zm-2.073.062c.527-.409,1.179-.142,1.675-.149-.284.183-.573.349-.868.5a5.228,5.228,0,0,1-1.87.594h0c.3-.316,1.155-.632,1.063-.945Zm-5.829-.025.035.016c.093.16.026.233-.07.2.015-.069.026-.141.036-.212Zm-7.634,5.619c.462.313.452.473.241.577-.084,0-.167,0-.251.009a4.47,4.47,0,0,0-.514.07c.058-.175.12-.353.2-.543a4.133,4.133,0,0,1,.184-.383.566.566,0,0,1,.144.27Zm-.6.961c.031.026.05.084.05.194,0,.164-.008.231-.048.268l-.079-.138.013-.006-.016,0-.024-.042,0,0c.024-.092.055-.188.084-.283Zm2.34-2.146c.1.16.2.316.3.473l-.009.016c-.238.376-.354.221-.7.305-.163-.072-.326-.143-.494-.212-.212-.091-.429-.174-.649-.252a15.359,15.359,0,0,0,.834-1.5c.225.408.475.8.716,1.169Zm12.351,33.565c-2.829.5-5.189.8-8.292,1.442-.888.185-1.939.427-2.885.721a22.284,22.284,0,0,1-2.523,1.082c-1.647.277-3.295-.541-4.868-.36a14.615,14.615,0,0,0-2.163.9c-2.346.715-3.864.181-6.129-.722-1.116-.444-2.191-1.07-3.245-1.442,2.48-2.251,5-4.5,7.571-6.669,2.593-2.2,5.663-3.8,7.571-6.67a5.042,5.042,0,0,0,2.292-.381.944.944,0,0,1-.109.242,1.2,1.2,0,0,1-.711.444,1.309,1.309,0,0,0,.878-.292,1.339,1.339,0,0,0,.358-.553l.187-.074a.616.616,0,0,1,.085.148c-.013-.043-.034-.1-.058-.158.1-.04.213-.078.321-.115.2.19.4.368.587.564a2.362,2.362,0,0,1,.507.685.675.675,0,0,1-.17.777.8.8,0,0,0,.405-.736c.057.12.185.3.187.233a.845.845,0,0,0-.145-.292.168.168,0,0,0-.052-.035l0-.005a1.954,1.954,0,0,0-.176-.55.67.67,0,0,1,.085-.033,12.425,12.425,0,0,1,.732,1.124c.017.032.037.063.056.1A4.249,4.249,0,0,1,1634,499.8a3.1,3.1,0,0,0,.2-1.091l.023.036a20.75,20.75,0,0,0,1.982,2.163,11.91,11.91,0,0,0,2.344,2.524c.7.429,1.856.379,2.524.9.487.381.691,1.378,1.081,1.983.38.587,1.31.911.9,1.622Zm35.151-15.683a9.817,9.817,0,0,1-.361,1.622c-.433.737-2.244,1.261-3.245,2.164-.972.875-1.65,2.5-2.7,3.785a24,24,0,0,1-3.965,3.786,3.806,3.806,0,0,1-1.623.9c-2.061.217-4.222-2.48-5.768-3.605-.919-.668-1.7-1.224-2.7-1.982a10.353,10.353,0,0,1-2.523-1.983,5.654,5.654,0,0,1-.6-1.721,2.992,2.992,0,0,0,.873-.143,5.353,5.353,0,0,1,.976-.521,3.141,3.141,0,0,0,1.043-.005,2.659,2.659,0,0,0,1.6-1.006,2.415,2.415,0,0,1-1.633.544,2.167,2.167,0,0,1-.271-.036,4.425,4.425,0,0,0-.361-.261.834.834,0,0,0-.274-.765c.029-.066,2.449.061,2.641.069.068-.129-.907-.128-1.277-.231l.1-.014a3.086,3.086,0,0,0,2.369-1.7,2.72,2.72,0,0,1-2.4.984,3.523,3.523,0,0,1-2.169-1.121l-.032-.035a1.092,1.092,0,0,0,.682.093.966.966,0,0,0,.624-.628.852.852,0,0,1-.651.414,1.02,1.02,0,0,1-.64-.348,6.319,6.319,0,0,1-.926-1.346c-.055-.1-.1-.191-.161-.291a1.9,1.9,0,0,0,.791.623.918.918,0,0,0,.919-.2,2.337,2.337,0,0,0,.5-.678,2.252,2.252,0,0,1-.62.506.6.6,0,0,1-.632,0,1.735,1.735,0,0,1-.545-.914,1.615,1.615,0,0,0-.1-.705,2.2,2.2,0,0,0,.523-1.914c1.706,1.194,3.556,2.572,6.129,2.524,1.182-.022,2.3-.593,3.6-.721,4.393-.429,9.594.35,14.241-.18-.48,1.528-.979,3.089-1.442,5.047Zm-23.253-1.929c.071.063.144.127.22.187l-.12.091a2.369,2.369,0,0,1-.1-.278Z" transform="translate(-1590.103 -464.317)"/><g transform="translate(184.006 5.658)"><path class="a" d="M1893.006,552.837c-3.048,4.7-1.937,9.609-3.985,14.47-1.051,2.486-1.282,7.546-2.793,9.32-.681.8-.927,2.719-1.725,3.283-4.665,1.228-3.517-2.3-6.454,2.9-1.972,3.489-3.774,4.854-2.8,8.829a71.38,71.38,0,0,1,1.513,8.854c1.144,10.044,3.466,23.943,1.4,33.871-.84,4.037-6.617.036-9,3.343-2.486,3.473-.928,10.069-1.577,14.117-.9,5.608-.563,11.693-.832,17.386-.213,4.486,1.933,8.087,1.587,12.738-.265,3.572-.71,9.576-.135,13.012.311,1.875,2,3.206,2.038,5.194.057,3.255-2.615,1.265-4.231,2.343,2.2,2.609,13.882,9.611,8,14.283-5.682,4.511-13.341.623-18.132-2.916-1.882.148-6.243-1.632-6.849-3.7a14.222,14.222,0,0,1,.274-5.754c-1.823-1.249-5.368-.664-4.99-3.922.487-4.2,1.9-7.166,1.653-11.741a70.741,70.741,0,0,1,1.008-14.47c1.235-8.624,1.027-17.629,1.238-26.284.081-3.316,1.139-8.452-2.71-9.035-5.055-.766-6.882.57-5.816,5.816.666,3.288-1.32,7.253-1.4,10.727-.125,5.288-.995,10.345-1.274,15.534-.492,9.135.805,18.163.462,27.252-.117,3.162,1.088,6.08.624,9.275-.431,2.971-5.621,3.323-8.241,4.791-.139,3.3-1.761,5.76-1.755,8.947.009,3.456-.474,6.761-4.4,7.466-8.029,1.439-11.315-3.841-9.442-10.865q.817-2.869,1.82-5.685c1.526-4.539-.23-2.447-2.917-5.176-3.493-3.544-1.482-8.495-.87-12.939,2.407-17.512,5.713-35.052,8.934-52.287,1.184-6.291-.429-6.067-4.855-9.344-4.053-3-.077-9.975,1.148-14.7,1.292-4.975,2.727-9.883,4.175-14.808,1.465-4.98,1.084-10.31,2.682-15.25-4.227.164-5.634-6.322-7.259-9.451-1.952.54-4.445,1.477-4.622-1.585-.188-3.3-2.8-1.532-3.735-4.171-1.082-3.018-1.253-6.9-1.233-10.111s-2.032-3.834-3.225-6.565c-1.214-2.776-.822-6.176-1.568-9.072-1.309-5.067-.022-10.272,2.466-14.655a152.1,152.1,0,0,1,10.877-16.619c.108,3.173,2.091-1.8,2.076-1.758-.315.051-4.791,1.041-4.634-.079,1.847.273,4.127.285,5.24-1.268a35.916,35.916,0,0,0,2.595-4.367,13,13,0,0,0,3.847-2.578c-1.07.18-2.426,1.038-3.435.456a4.02,4.02,0,0,0,3.41-1.082c-.516-.032-1.535.615-1.795-.115.175-.05.431.109.634.132,2.3-1.116,4.837-1.6,6.609-4.108-.383-.017-1.09.405-1.325-.134,1.523.05,2.84-1.183,3.768-2.229-.286.318-.919.307-1.319.716-.519.121-.858.716-1.555.377.025-.149-.076-.254.046-.441.59.447,1.654-.668,2.052-1.155-.543-.134-.737.658-1.331.4a7.819,7.819,0,0,0,3.381-3.25,3.8,3.8,0,0,0,1.416-2.131c-1.113,1-1.519,2.612-2.816,3.2a22.576,22.576,0,0,1-3.939,3.46,12.579,12.579,0,0,1-4.167,2.435c-.965.3-1.814.823-3.029.409a5.867,5.867,0,0,1,1.918-.677,66.69,66.69,0,0,0,8.786-6.9.721.721,0,0,1-.715-.629c.213-.054.273.287.516.388,1.556-.382,2.779-2.363,3.519-4.418-.188-.1-.225-.269-.359-.392-.728.262-2.4-.394-1.627-1.346.216.148-.118.5.09.656,1.51.893,2.678-.812,3.134-2.36a1.6,1.6,0,0,1-1.314-.669,1.683,1.683,0,0,1,.338-.926c.185.107.141.3.453.358a15.135,15.135,0,0,0,6.728-4.363c4.2-4.539,7.729-10.837,13.889-10.219.649.261.956.266,1.53.533a6.7,6.7,0,0,1,5.418.433,16.362,16.362,0,0,1,5.128,6.223,13.834,13.834,0,0,1,2.311,6.5c.9,1.884.916,4.108,1.48,6.123a3.162,3.162,0,0,0,.986,1.057,15.387,15.387,0,0,1,.692,1.542c-.395.179-.617-.325-.93-.5.043.726.646,1.24.832,1.912-.614.06-.894-.7-1.3-1.044-.267,1.446-.891,3.026-.236,4.122-.149.559.124,1.22-.12,1.638-.446-.039-.511-.455-.844-.686a32.453,32.453,0,0,0-2.818,6.894c.141.008.278.023.418.042a11.961,11.961,0,0,1,1.234.547c.529.167,1.131.112,1.506.274a12.955,12.955,0,0,1,2.6,2.055c5.484,4.215,6.793,12.132,11.578,16.715,2.419,2.316,5.074,9.252,6.912,12.6C1895.365,541.174,1895.184,549.482,1893.006,552.837Zm-65.895-18.4c-1.495.566-5.074,5.8-5.883,6.967-2.458,3.54-.537,3.486.815,7.141,2.594,7.008,3.244,13.661,5.2,20.408C1828.437,559.155,1829.934,543.94,1827.112,534.434Zm42.68-1.64a15.667,15.667,0,0,1-.769-2.333C1868.531,530.392,1869.1,531.576,1869.791,532.795Zm2.032,3.667c1.059,3.324-.531,6.7-2.251,9.615-3.453,5.842-2.854,15.367-1.507,21.917,4.282-1.143,6.763-12.916,7.945-16.71C1878.255,544.087,1874.742,540.812,1871.824,536.462Z" transform="translate(-1802.211 -470.839)"/></g></g></svg>