<svg xmlns="http://www.w3.org/2000/svg" width="39.996" height="36.663" viewBox="0 0 39.996 36.663"><defs><style>.a{fill:#3b1957;}</style></defs><path class="a" d="M11.1,23.021H4.583A4.588,4.588,0,0,1,0,18.438V5.583A4.587,4.587,0,0,1,4.583,1H11.1a1.25,1.25,0,0,1,0,2.5H4.583A2.086,2.086,0,0,0,2.5,5.583V18.438a2.086,2.086,0,0,0,2.083,2.083H11.1a1.25,1.25,0,1,1,0,2.5Z" transform="translate(0 -1)"/><path class="a" d="M14.83,37.663H10.38a1.25,1.25,0,0,1-1.25-1.25V28.574L6,22.331a1.252,1.252,0,0,1-.132-.56V2.25A1.25,1.25,0,0,1,7.119,1H26.432a8.1,8.1,0,0,1,7.754,5.839l1.848,6.454a1.205,1.205,0,0,1,.05.343v6.508a4.511,4.511,0,0,1-4.509,4.5H21.411v6.444A6.583,6.583,0,0,1,14.83,37.663Zm-3.2-2.5h3.2a4.08,4.08,0,0,0,4.081-4.071V23.4a1.25,1.25,0,0,1,1.25-1.25H31.574a2.008,2.008,0,0,0,2.01-2V13.814l-1.8-6.286A5.587,5.587,0,0,0,26.432,3.5H8.369V21.476l3.13,6.243a1.252,1.252,0,0,1,.132.56Z" transform="translate(3.912 -1)"/></svg>