<svg xmlns="http://www.w3.org/2000/svg" width="40.657" height="38.816" viewBox="0 0 40.657 38.816"><defs><style>.a{fill:#3b1957;}</style></defs><path class="a" d="M36.792,1.245,33.28,8.522a5.007,5.007,0,0,1-3.846,2.785l-8.055,1.1,5.9,5.658a4.949,4.949,0,0,1,1.454,4.459L27.289,30.54l7.11-3.82a5.065,5.065,0,0,1,4.788,0l7.108,3.82-1.445-8.015A4.954,4.954,0,0,1,46.3,18.066l5.9-5.658-8.055-1.1A5.01,5.01,0,0,1,40.3,8.522l-3.51-7.277m0-5.078a1.775,1.775,0,0,1,1.619,1.011L43.216,7.14a1.792,1.792,0,0,0,1.373.995l10.979,1.5a1.776,1.776,0,0,1,1,3.043l-8.023,7.692a1.775,1.775,0,0,0-.519,1.592L50,32.887a1.79,1.79,0,0,1-2.622,1.877l-9.731-5.227a1.806,1.806,0,0,0-1.71,0L26.2,34.764a1.789,1.789,0,0,1-2.62-1.877l1.969-10.926a1.771,1.771,0,0,0-.519-1.592l-8.023-7.692a1.777,1.777,0,0,1,1-3.043l10.979-1.5a1.792,1.792,0,0,0,1.373-.995l4.807-9.962A1.771,1.771,0,0,1,36.792-3.833Z" transform="translate(-16.463 3.833)"/></svg>