<svg xmlns="http://www.w3.org/2000/svg" width="355.278" height="295.069" viewBox="0 0 355.278 295.069"><defs><style>.a{fill:#3b1957;}</style></defs><g transform="translate(0 0)"><path class="a" d="M761.338,173.252c.067.373-.352.9-.123,1.015,2.268.489,2.6-1.952,3.72-3.05.434.105-.431.92.247.889,1.223.3,2.028-.873,2.355-1.906,1.091-.957,2.469-1.619,3.224-2.921,2.141-.559,2.689-2.75,4.836-3.3,1.035,2.068,2.936,1.123,3.223-1.143.618-.512,1.6-.653,1.86-1.524.566.012.507.667.993.763a24.777,24.777,0,0,0,5.082-6.608,86.7,86.7,0,0,1,15.625-19.055c-.912,4.72-.518,9.605-1.24,14.356-.3,1.956-1.669,4.8.248,5.461-.415,6.14-2.355,10.714-3.844,15.751.066,3.445,3.1-6.61.182,3.445q-.831,2.852-1.653,5.7c-1.123,3.917-2.2,7.853-3.113,11.827-1.924,8.362-2.57,16.921-4.811,25.215-2.479,9.17-6.59,18.366-7.714,27.854-.826,6.971.064,15.822-4.639,21.672-2.237,2.78-1.775,4.6-1.316,8.069.344,2.585.078,5.361.994,7.494.376.321.577-.345,1.239-.128-.242,1.89-3.113,3.22-3.348,5.717-.064.682.345,1.293.373,1.906.045,1.017-.553,1.884.123,2.795.922,1.241,4.925.871,7.564.635,3-.267,5.245-.647,6.694-2.16-.268-1.547.609-1.917,1.241-2.542-.142-1.5.393-3.7-.495-4.444a4.282,4.282,0,0,0,0-2.032,14.462,14.462,0,0,1,2.852-.255c.156-.574-.2-1.444,0-2.159.248-.894,1.39-1.174,1.736-1.652,1.356-1.88.958-5.111.993-7.29.144-9.216,3.325-18.777,5.524-27.65,2.244-9.046,4.386-18.284,7.078-27.2,2.7-8.946,6.6-17.552,9.492-26.461.694-2.14,6.134-19.281,9.838-13.458,7.8,12.276,11.575,29.583,16.078,43.354,5.4,16.518,11.385,34.833,12.639,52.284a39.758,39.758,0,0,0,.207,4.393c.261,1.4,1.594,1.369,2.007,2.533.262.734-.1,1.707,0,2.285.515.335,1.147-.135,1.735-.127-.109.509.222,1.169.126,1.779-.058.354-.4.531-.5.889-.288,1.055.1,2.38.124,3.556a4.121,4.121,0,0,0,4.091,1.4c.222.407.115,1.151.248,1.649,1.878,1.584,5.383,2.255,8.928,2.415,2.059.092,4.473.207,6.2-.509.519-.9-.228-1.485-.248-2.286-.028-1.092.59-2.023.124-3.176-.891-2.2-3.638-3.748-4.959-5.462,1-1.786.31-4.4.5-6.988.309-4.3,1.322-6.438-.792-10.5a32.415,32.415,0,0,1-3.03-8.593c-1.552-7.4-2.564-14.877-4.254-22.255-1.617-7.05-3.966-14.016-4.63-21.237-.431-4.694-3.095-8.795-3.865-13.55-2.025-12.513-6.089-24.1-9.177-35.921a31.971,31.971,0,0,1-.916-5.084c-.4-4.267.562-.516,1-2.647.187-3.045-1.113-6.294-1.241-9.4-.312-7.571.512-12.414,4.588-18.8,4.445-6.964,8.033-14.142,13.256-20.6,2.473-3.056,4.129-7.316,5.624-10.958a13.436,13.436,0,0,1,2.836-4.859c.94-.9,2.774-2.106,2.758-3.6-.027-2.446,4.448-6.911,5.76-9a75.534,75.534,0,0,0,5.461-9.106c3.455-7.682,7.126-15.383,9.315-23.566.486-1.813,1.165-3.316.125-4.318-.12-.117-.844-.484-.869-.635-.067-.43,1.924-2.424,2.357-3.176a32.106,32.106,0,0,0,1.611-3.938c.269-.642.68-1.129.991-1.779.289-.6.33-1.3.621-2.032.194-.485.662-.9.868-1.4.2-.465.175-1.03.372-1.523.724-1.83,2.64-3.843,1.362-5.717-1.676,1.627-2.42,4.21-3.843,6.1-.517-.763.26-1.687.372-2.668.049-.428-.062-.922,0-1.4.446-3.379,1.614-6.1.372-9.274-.047-.118-.06-.453-.372-.507-1.128.453-1.248,1.939-1.86,2.921-1.151.259-2.264,1.865-2.977,2.922-1.633,2.424-2,4.731-3.471,7.622-.388.764-.675,1.482-.993,2.285a55.521,55.521,0,0,0-2.6,6.86c-.237.307-.645-.183-.992.128-3.161,3.3-3.9,7.9-5.7,12.448-3.079,7.772-7.736,16.911-13.56,22.74-2.958,2.955-5.887,5.427-9.005,8.13a48.429,48.429,0,0,0-6.945,6.732,24.966,24.966,0,0,0-2.356,3.939,16.336,16.336,0,0,1-2.109-.763,25.5,25.5,0,0,1-1.363-2.159c-.621-.827-1.38-1.252-1.735-1.778a8.183,8.183,0,0,1-.62-1.4c-.018-.757.793-1.448,1.114-2.16.142-.31.271-.642.393-.992.215.176.355.428.85.318.089-.4-.489-.974-.153-1.628a3.757,3.757,0,0,0,3.027-.389c-.009-.506-.5-.521-.908-.622-.067-.534.644-.269.605-.774a1.119,1.119,0,0,0,1.136,0,6.682,6.682,0,0,0-1.665-2.171c0-.386-.1-.518-.106-.759.038-.123.073-.253.105-.381.11-.036.133.2.378.132a1.121,1.121,0,0,1,.227-.544c.242.439.743.193,1.212.311.151-.282.038-.8.151-.93.572.24.726.911,1.439,1.008-.441-1.019-1.219-2.03-1.514-2.946.653.266.962,1.28,1.816,1.084-.49-.938-1.332-1.778-1.665-2.636.345-.185.763.383,1.134.155-.142-.525-.573-.757-.755-1.242-.006-.257.222-.028.378-.233v-.62c.523.043.963.462,1.513.234-.53-1.343-2.209-1.51-2.346-3.257.29-.24.576.18.833,0,.167-.576-.544-.81-.682-1.318.405-.1,1.193.955,1.664.311-.68-.88-1.833-1.275-2.043-2.637-.056-.265.28-.128.3-.311a5.4,5.4,0,0,0-.757-2.171c.13-.125.38-.128.454-.308-.813-1.39-2.811-1.567-3.86-2.715.791-.161,3.021.776,2.649-.775-.415-.061-.322.395-.605.466-.769.012-1.084-.439-1.665-.621a2.355,2.355,0,0,0,.454-2.713c-.677.328.171,1.924-.833,2.016-.624-.059-1.164-.2-1.363-.7.613-.395,1.568-.806,1.21-1.939-.088-.09-.265-.088-.454-.079-.108-.714-.223-1.422-.831-1.627-.215.338.072.723.075,1.085a.762.762,0,0,1-.53.541c-.244-.187-.162-.713-.68-.619a1.146,1.146,0,0,0,0,.852c-.04.115-.112.2-.152.311-1.3.909-4.342-.544-5.751.621-3.258-.484-5.107.979-6.811,2.325-.448.071-.63-.133-.985-.155-.232.336.065.678.152.931a3.5,3.5,0,0,1-2.346,1.551.779.779,0,0,0,.3.543c-1.131,1.676-2.472,3.861-2.12,6.357-.49,1.5.324,4.361-.6,5.583a3.772,3.772,0,0,0-.984.465c-.021.125.071.133.077.233-.073.28.295.108.453.155-.059.306.033.4-.076.543.042.215.292.218.454.311a1.177,1.177,0,0,1-.683.852c-.8.04-.871-.656-1.362-.931-.05,1.086.688,1.364,1.59,1.474.036.425-.245.524-.228.929-.691.167-.666-.4-1.21-.387a1.3,1.3,0,0,0,1.514,1.008c.143,1.456-.416,3.631.681,4.107-.051-.631-.174-1.894.3-2.4.435.746.158,2.625,1.059,2.634a3.025,3.025,0,0,1-.075-1.162c.371.414.787,1.546,1.589,1.008-.128-.423-.8-.572-.454-1.24a1.86,1.86,0,0,1,.583.311c.041.349.09.687.143,1.023a4.093,4.093,0,0,1-1.029.838c.033.121.238.067.151.31a.925.925,0,0,0,1.031-.207,18.625,18.625,0,0,1,.325,4.992,27.455,27.455,0,0,0-6.021.875c-.866.247-3.65,2.157-3.774,1.16-3.484,2.795-7.373,5.123-10.3,8.588C805.6,99.082,804.2,105.2,802.1,110.3c-3.678,8.929-9.652,17.3-15.446,24.863-1.751,2.287-12.969,17.6-10.194,19.921a31.1,31.1,0,0,1-4.09,4.317c-1.392,1.4-2.576,2.917-3.844,4.449-1.252,1.508-2.349,3.185-3.721,4.572a33.548,33.548,0,0,0-4.09,4.191C760.7,173.056,761.346,172.819,761.338,173.252Zm65.826-98.206a8.375,8.375,0,0,1-.366,1.343,2.418,2.418,0,0,1,.027-1.535A2.963,2.963,0,0,0,827.164,75.046Zm18.327-23.311a.215.215,0,0,1,.149-.233A.215.215,0,0,1,845.491,51.735Z" transform="translate(-760.719 -12.938)"/></g><path class="a" d="M982.162,101.37c-.764-1.112-2.745.753-3.116,1.236s-3.26,4.551-3.216,1.03c.006-.546.389-1.181.4-1.75.017-.9-.575-3.075-.3-4.428.226-1.128,1.5-1.748,1.509-2.78.011-1.17-1.079-1.431-1.407-2.471-.081.054-.091-.224-.3.1-.645,1-.5,1.822-.906,2.677-.756,1.6-2.44,2.4-3.215,3.809-.489.9-.405,1.97-1.1,2.885-.484-.982-.6-2.887-1.809-2.781-.49.356-.194,1.093-.1,1.545.114.559.159,1.171.3,1.75.148.607.633,1.153.7,1.75a10.049,10.049,0,0,1-.3,2.575,10.505,10.505,0,0,1-.4,2.369,12.14,12.14,0,0,1-2.614,1.75,81.976,81.976,0,0,1-8.342,4.531c-2.021.929-4.087,1.749-5.83,2.78-1.687,1-3.185,2.72-4.926,3.707-2.481,1.408-6.282,1.613-9.85,1.853a31.26,31.26,0,0,0-9.548,2.06,3.737,3.737,0,0,1-.6-2.471c.139-.431.63-.446.9-.722.889-.889.57-1.848.4-3.3-.4-3.384-.046-7.111-1.107-9.885-.213-.555-.755-1.019-.905-1.544-.157-.547.01-1.14-.1-1.546a4.923,4.923,0,0,0-.474-1.036,5.682,5.682,0,0,0,1.074.589,5.494,5.494,0,0,0,.756.255,5.922,5.922,0,0,1-2.006-1.144c-.3-.5-.657-1.016-.958-1.444-.15-.21-.3-.421-.453-.632a17.582,17.582,0,0,0,1.334,1.325c.21.169.316.257.544.413a6.808,6.808,0,0,1-.517-.45,16.111,16.111,0,0,1-1.267-1.439,20.432,20.432,0,0,0-1.921-2.142c.171.127.344.254.521.378.855.734,1.653,1.586,2.493,2.375a6.252,6.252,0,0,0,1.522,1.071,4.163,4.163,0,0,0,.58.225,4.7,4.7,0,0,1-.558-.269,5.881,5.881,0,0,1-1.417-1.162c-.4-.423-.765-.869-1.148-1.307a9.891,9.891,0,0,0,2.79,2.157,4.437,4.437,0,0,0,1.849.3c.255-.009.385-.028.64-.046-.254-.009-.385,0-.637-.016a4.192,4.192,0,0,1-1.755-.45,6.331,6.331,0,0,1-1.667-1.393l0,0c.114.1.23.2.346.292a5.149,5.149,0,0,0,1.364.856,3.425,3.425,0,0,0,.473.15,3.867,3.867,0,0,1-.453-.194,5.055,5.055,0,0,1-1.235-.925,9.09,9.09,0,0,0,1.179.3,6.709,6.709,0,0,0,2,.068,5.891,5.891,0,0,0,.681-.123,5.789,5.789,0,0,1-.687.076,6.43,6.43,0,0,1-1.975-.193c-.091-.024-.179-.049-.27-.076-.019-.013-.039-.027-.059-.042a6.794,6.794,0,0,1-.668-.555,8.257,8.257,0,0,0,1.254.272c.243.024.363.036.608.043-.243-.025-.363-.046-.6-.087a7.832,7.832,0,0,1-1.5-.455q-.157-.152-.318-.31l-.194-.193a8.5,8.5,0,0,0,1.482.409,6.117,6.117,0,0,0,1.674.075,5.182,5.182,0,0,0,.555-.088,5.031,5.031,0,0,1-.556.042,5.835,5.835,0,0,1-1.641-.2,8.757,8.757,0,0,1-1.455-.534,6.545,6.545,0,0,0,3.133.378,4.67,4.67,0,0,0,1.627-.563,5.606,5.606,0,0,0,.481-.313c-.2.111-.3.168-.506.262a4.4,4.4,0,0,1-1.619.4,5.707,5.707,0,0,1-1.955-.256c.136.026.271.043.406.06a5.3,5.3,0,0,0,1.476-.016,4.342,4.342,0,0,0,.466-.1,4.677,4.677,0,0,1-.469.057,5.114,5.114,0,0,1-1.439-.1,11.613,11.613,0,0,1-3.417-1.476,11.526,11.526,0,0,0,2.709.971,5.9,5.9,0,0,0,1.4.124,3.8,3.8,0,0,0,.438-.042,3.82,3.82,0,0,1-.433,0,5.6,5.6,0,0,1-1.353-.234,21.363,21.363,0,0,1-4.591-2.3,10.612,10.612,0,0,0-5.567-1.286,11.536,11.536,0,0,0-1.158.094,6.9,6.9,0,0,0-2.222-.145,14.387,14.387,0,0,0-3.473.8c-.146.045-.281.088-.385.125A32.457,32.457,0,0,0,904.9,99.18c-.6.307-1.2.63-1.789.978a13.677,13.677,0,0,0-1.888,1.273,15.04,15.04,0,0,0-3.047,3.493,34.648,34.648,0,0,0-3.309,7.829c-.876,2.456-1.573,5.047-2.43,7.118a10.322,10.322,0,0,1-2.99,4.563,2.475,2.475,0,0,1-1.683.5.414.414,0,0,1-.153-.048c-.012-.011-.035-.011-.034-.028s0-.037-.018.053c.014-.084.017-.054.017-.035s.021.027.035.043a.363.363,0,0,0,.161.081,2.453,2.453,0,0,0,1.828-.4,8.262,8.262,0,0,0,2.692-3.375,38.674,38.674,0,0,0,2.09-5.4,32.569,32.569,0,0,1-2.594,6.969,7.2,7.2,0,0,1-2.045,2.412,4.3,4.3,0,0,1-.729.4,4.284,4.284,0,0,0,.764-.358,7.055,7.055,0,0,0,2.186-2.365,32.275,32.275,0,0,0,2.848-7.131c-.27.958-.4,1.427-.673,2.343l.031.009c-.786,2.727-1.777,5.314-3.2,6.886-.116.141-.185.189-.3.318a4.79,4.79,0,0,1-1.765,1.01,2.734,2.734,0,0,1-.786.151,2.643,2.643,0,0,0,.809-.089c.153-.029.219-.067.369-.107a4.7,4.7,0,0,1-.77.281,3.2,3.2,0,0,1-.8.1,2.978,2.978,0,0,0,.819-.036,5.045,5.045,0,0,0,2.547-1.431c.142-.138.218-.2.357-.352a9.3,9.3,0,0,0,1.024-1.3,6.536,6.536,0,0,1-3.91,3.571,3.217,3.217,0,0,1-1.432.082.88.88,0,0,1-.28-.131c-.142-.1-.142-.138-.153-.2a.19.19,0,0,0,.044.193.468.468,0,0,1-.167-.142c0-.035-.029-.041-.038-.076l-.018-.048-.012-.023-.006-.01,0,0c-.013-.038,0-.008,0,.009-.006-.019-.025-.073-.07-.207v0h0l0,0a.631.631,0,0,1-.044-.181.953.953,0,0,0,.006.2v0h0c.078.227.076.225.067.2l.007.011.006.025.008.057c0,.041.026.054.026.1.008.146.364.477,1.179.512a3.966,3.966,0,0,0,1.862-.191,4.548,4.548,0,0,0,.528-.2,5.562,5.562,0,0,1-1.24.576,4.456,4.456,0,0,1-1.069.2,4.219,4.219,0,0,0,1.085-.138,5.911,5.911,0,0,0,2.442-1.364,9.534,9.534,0,0,0,2.258-2.622c-.231.444-.349.661-.608,1.076a7.875,7.875,0,0,1-2.635,2.7,6.233,6.233,0,0,1-1.1.513,5.893,5.893,0,0,0,1.129-.459,7.438,7.438,0,0,0,2.323-2,8.773,8.773,0,0,1-.845,1.078,6.591,6.591,0,0,1-2.361,1.491,5.064,5.064,0,0,1-1.219.289,4.8,4.8,0,0,0,1.244-.219,5.677,5.677,0,0,0,.907-.355c-.148.1-.525.3-.525.3a6.221,6.221,0,0,0,.863-.477,7.03,7.03,0,0,0,1.473-1.1,6.964,6.964,0,0,1-1.765,1.473,5.177,5.177,0,0,1-4.083.685,2.22,2.22,0,0,1-1.036-.662,2.2,2.2,0,0,0,1.01.74,5.3,5.3,0,0,0,4.245-.509,9.34,9.34,0,0,0,3.706-4.01c-.2.422-.309.632-.54,1.038a10.373,10.373,0,0,1-1.347,1.856,7.764,7.764,0,0,1-1.252,1.061,6.2,6.2,0,0,1-4.149,1.145,3.46,3.46,0,0,1-1.348-.423,3.464,3.464,0,0,0,1.337.506,6.336,6.336,0,0,0,4.313-.982,9.5,9.5,0,0,0,3.032-3.149,12.119,12.119,0,0,1-.633,1.038,10.413,10.413,0,0,1-.666.8,7.791,7.791,0,0,1-3.937,2.366,5.959,5.959,0,0,1-1.522.155,5.949,5.949,0,0,0,1.538-.09,7.25,7.25,0,0,0,2.456-.969,6.82,6.82,0,0,1-4.856,1.422,3.664,3.664,0,0,1-2.5-1.387,4.313,4.313,0,0,1-.819-2.892,1.915,1.915,0,0,1,1.54-1.839,1.97,1.97,0,0,0-1.644,1.823,3.969,3.969,0,0,0,.1,1.621,4.9,4.9,0,0,0,.626,1.432,3.966,3.966,0,0,0,2.64,1.619,7.557,7.557,0,0,0,6.217-2.029,9.716,9.716,0,0,1-.908.8l-.045.03.028-.016-.12.088a7.5,7.5,0,0,1-5.014,1.545,4.853,4.853,0,0,1-1.928-.553,4.831,4.831,0,0,0,1.918.634,7.648,7.648,0,0,0,5.179-1.381,13.447,13.447,0,0,0,4.722-6.956c.3-.8.437-1.2.69-2a25.866,25.866,0,0,1-1.445,4.662,14.135,14.135,0,0,1-1.069,1.875c-.167.234-.243.356-.421.585a9.82,9.82,0,0,1-2.911,2.478,8.663,8.663,0,0,1-1.634.707,8.484,8.484,0,0,0,1.665-.648,6.766,6.766,0,0,0,.647-.369,9.027,9.027,0,0,1-1.443.835,7.833,7.833,0,0,1-1.82.6,7.8,7.8,0,0,0,1.841-.544,9.472,9.472,0,0,0,2.524-1.6l-.352.416a9.651,9.651,0,0,1-2.9,1.812,8.159,8.159,0,0,1-1.991.513,8,8,0,0,0,2.013-.439,9.344,9.344,0,0,0,2.283-1.186l-.013.015,0,.006,0,0c.018-.024-.156.219-.083.119l-.009.011-.04.048-.006.007a9.033,9.033,0,0,1-1.449.8,8.216,8.216,0,0,1-3.384.76,6.023,6.023,0,0,1-3.89-1.289,5.609,5.609,0,0,1-1.08-1.21c-.125-.206-.252-.417-.366-.648-.051-.115-.1-.237-.154-.366l-.08-.2-.039-.1-.01-.027,0,0c0-.016-.012-.034,0,0h0c.005.016.005.017.005.014.009.029.026.081.058.17l-.019-.047-.035-.1-.008-.018c.011.026.024.07.049.142l.008.021,0,.014,0,.005.051.142c.05.13.1.253.145.37.109.236.233.452.352.663a5.683,5.683,0,0,0,1.063,1.252,6.21,6.21,0,0,0,3.936,1.416,8.5,8.5,0,0,0,3.5-.677c.241-.1.477-.207.705-.322-.134.155-.269.309-.408.456l-.1.111a8.9,8.9,0,0,1-1.911.664,8.82,8.82,0,0,0,1.814-.56c-.376.4-.762.774-1.147,1.139-.162.147-.324.289-.489.429a9.688,9.688,0,0,1-2.973.19,7.343,7.343,0,0,1-3.225-1.075,7.435,7.435,0,0,0,3.214,1.154,9.842,9.842,0,0,0,2.745-.068,13.472,13.472,0,0,1-2.092,1.451,9.625,9.625,0,0,1-2.868,1.088l-.178.04h0c-.1.031-.292.093-.257.081l0,0h-.006l-.015,0-.031,0-.059.008c-.064.013-.192.028-.289.042-.221.031-.478.059-.745.081-.543.044-1.135.062-1.729.054a19.242,19.242,0,0,1-4.269-.522,10.818,10.818,0,0,1-1.221-.37,9.666,9.666,0,0,0,1.21.447,18.7,18.7,0,0,0,4.3.718,11.846,11.846,0,0,0,9.506-3.421l.048-.014a13.279,13.279,0,0,1-5.74,3.6l-.235.059-.117.03-.06.016-.029.009-.013,0h0c.013,0,.008,0,0,0h0l-.018.006c-.033.01-.092.029-.2.064h0c-.118.023-.225.053-.378.079-.282.057-.627.1-.976.144a20.159,20.159,0,0,1-2.236.11c-.612,0-1.532-.051-1.53-.058s.917.1,1.535.124a20.136,20.136,0,0,0,2.256-.025c.356-.025.707-.06,1-.106.159-.021.274-.045.4-.063h0c.029-.01.362-.119.2-.067h0l.007,0,.016,0,.03-.007.061-.014.121-.027.244-.05a13.905,13.905,0,0,0,6.585-4.1,20.612,20.612,0,0,1-1.789,1.752l.025.03a14.016,14.016,0,0,1-3.513,2.3c-.3.138-.615.254-.926.362-.153.063-.315.094-.471.143l-.234.07-.029.009-.177.057,0,0h0l-.005,0-.013,0-.047.012-.094.028a12.905,12.905,0,0,1-1.968.339c-.245.029-.374.034-.623.057a22.368,22.368,0,0,1-3.307-.136c-.6-.067-.89-.116-1.468-.218.573.133.866.2,1.464.3.25.042.375.059.627.089-.562-.026-.842-.049-1.393-.108-.615-.073-.921-.116-1.508-.23.583.146.887.2,1.5.3a22.417,22.417,0,0,0,4.649.212c.27-.007.406-.009.669-.026.405-.022.7-.054.975-.087.141-.016.265-.039.41-.058l.2-.037.053-.01.028-.005h0l.008,0c-.018,0-.082.027.145-.047h.005l.007,0,.016,0,.137-.028a19.558,19.558,0,0,1-7.534.635,16.592,16.592,0,0,1-2.515-.422c-.3-.1-.442-.154-.727-.263a7.452,7.452,0,0,1-1.186-.6,5.873,5.873,0,0,0,.843.531,6.742,6.742,0,0,1-1.093-.5,3.483,3.483,0,0,1-.905-.682,3.128,3.128,0,0,0,.858.77,9.917,9.917,0,0,0,3.2,1.233,18.549,18.549,0,0,0,2.827.609c.32.035.479.065.8.094-.788,0-1.187,0-1.969-.056-.657-.049-.984-.081-1.626-.176.637.127.962.174,1.621.251a23.926,23.926,0,0,0,3.943.1,14.811,14.811,0,0,0,4.194-.448c-.3.1-.389.124-.742.237-.178.06-.372.113-.636.18a21.346,21.346,0,0,1-4.793.483c-.654,0-.979-.015-1.63-.056.647.073.975.1,1.63.13a23.058,23.058,0,0,0,3.944-.155c-.656.136-.992.187-1.665.282a24.74,24.74,0,0,1-3.666-.016c-.683-.059-1.026-.091-1.7-.2.665.14,1.009.193,1.69.285.5.06.758.083,1.268.123-.233.009-.787.019-.787.016s.851.022,1.279.013c.932.041,1.4.041,2.334,0a25.494,25.494,0,0,1-2.9.2,19.925,19.925,0,0,1-5.511-.641,9.632,9.632,0,0,1-1.687-.623,9.4,9.4,0,0,0,1.661.715,19.708,19.708,0,0,0,5.534.886,19.175,19.175,0,0,0,6.536-.793c-.5.18-.8.3-1.285.439a19.183,19.183,0,0,1-2.647.515c-.787.078-1.181.1-1.971.132a22.313,22.313,0,0,1-5.319-.444,13.7,13.7,0,0,1-1.709-.479,13.112,13.112,0,0,0,1.687.575,22.236,22.236,0,0,0,5.347.691,20.682,20.682,0,0,0,5.1-.49c-.536.167-.812.228-1.359.352-.479.073-.716.1-1.2.155a25.845,25.845,0,0,1-5.432-.055c-.72-.09-1.078-.146-1.791-.288.706.174,1.063.244,1.784.365a23.3,23.3,0,0,0,3.068.282,22.856,22.856,0,0,1-5.891-.344,8.719,8.719,0,0,1-5.6-3.145,5.435,5.435,0,0,1-.9-2.227,5.423,5.423,0,0,0,.79,2.3,9.014,9.014,0,0,0,5.606,3.513,24.268,24.268,0,0,0,7.346.588c-.525.065-.791.094-1.32.138-.025,0-.037,0-.062,0h.036l-.162.013a23.947,23.947,0,0,1-5.719-.241,15.341,15.341,0,0,1-1.946-.463,14.523,14.523,0,0,0,1.924.557,23.87,23.87,0,0,0,5.749.49,18.859,18.859,0,0,0,9.285-2.427,18.351,18.351,0,0,0,2.126-1.381,16.8,16.8,0,0,1-4.943,3.1c-.23.088-.449.166-.667.239a1.593,1.593,0,0,0-.191-.025,2.706,2.706,0,0,0-2.3.635,27.079,27.079,0,0,1-4.051.25c-.742-.017-1.116-.026-1.862-.086.744.092,1.117.117,1.861.161.312.012.463.015.774.025-.69.025-1.035.036-1.732.028-.78-.013-1.173-.041-1.96-.1.784.092,1.177.133,1.958.172a27.637,27.637,0,0,0,3.92-.085,29.208,29.208,0,0,1-4.857.428c-.8,0-1.206-.017-2.024-.073.813.093,1.217.127,2.018.161a28.2,28.2,0,0,0,5.822-.39.441.441,0,0,0,.007.073l-.4.071a28.447,28.447,0,0,1-4.746.368,19.551,19.551,0,0,1-6.927-1.151,10.686,10.686,0,0,1-2.436-1.3,10.872,10.872,0,0,0,2.4,1.388,19.833,19.833,0,0,0,6.946,1.4,28,28,0,0,0,5.489-.316l.071.094a28.827,28.827,0,0,1-5.337.576c-.817.012-1.23,0-2.063-.042.828.071,1.242.1,2.06.115a28.438,28.438,0,0,0,5.511-.437c.089.105.184.211.286.318a28.092,28.092,0,0,1-3.376.477c-.789.06-1.183.081-1.979.1.794.012,1.19.006,1.982-.027a27.113,27.113,0,0,0,3.523-.4c.024.023.049.045.07.066-.856.22-1.536.339-2.6.513-.828.132-2.079.245-2.079.241s1.251-.066,2.083-.172a26.192,26.192,0,0,0,2.726-.468c.049.042.094.08.142.118a28.537,28.537,0,0,1-4.082.662,26.884,26.884,0,0,1-6.973-.212,18.292,18.292,0,0,1-2.543-.629,18.658,18.658,0,0,0,2.523.722,27.024,27.024,0,0,0,7,.455,28.3,28.3,0,0,0,4.023-.509c.207-.044.413-.09.624-.14l0,0a2.144,2.144,0,0,0,.233.081c-.535.158-1.043.28-1.552.394a30.217,30.217,0,0,1-3.08.5c-.822.087-1.231.122-2.062.166.831-.014,1.24-.035,2.066-.093a29.86,29.86,0,0,0,3.1-.408c.529-.1,1.06-.214,1.621-.363.109-.03.219-.059.333-.092a11.639,11.639,0,0,0,1.439.146l-.123.05-.026.01h0l.181-.06h.018l-.017.008-.123.047-.247.1c-.331.132-.623.231-.925.331q-.872.282-1.68.482c-.871.225-2.134.456-2.134.452s1.267-.186,2.145-.387c.54-.117,1.106-.266,1.695-.439.307-.1.6-.188.935-.312l.253-.094.124-.048L887,146.3l.016,0,.007,0,0,0c.252-.082-.342.11-.28.092v0l.028-.009.424-.163.006,0a6.124,6.124,0,0,1,1.677.268,4.081,4.081,0,0,1,1.636,1.051c-.159-.042-.332-.1-.522-.166.2.086.389.155.561.21a2.3,2.3,0,0,1,.536,1.789c-.1.917-1.268,1.655-2.011,2.471a30.752,30.752,0,0,1-4.624,4.223c-1.294.976-2.517,1.557-2.211,3.191,2.089.106,3.118-1.742,4.825-2.369.214.209-.226.863.3.927,1.045-.027,1.728-.426,2.713-.515.158.262-.371,1.157-.1,1.545a11.663,11.663,0,0,0,7.437-2.987c.283,1.361-.4,4.861,1.107,4.84,1.343-.019.748-3.3,1.1-4.738a10.042,10.042,0,0,1,1.309-2.264c1.833,1.213,2.494,4.214,4.523,5.971.727.63,1.771,1.174,2.613,1.855,1.308,1.055,2.218,2.533,4.322,2.471,1.528-.046,2.411-.971,3.718-1.442,1.985-2.086,2.428-5.752,3.719-8.546a32.362,32.362,0,0,1,2.613,5.044,8.2,8.2,0,0,1,1.107,3.81c-.043,1.273-.833,3.286-1.107,5.045-.722,4.661-3.021,7.747-4.826,11.881-.285.649-.632,1.442.19,1.845,1.2.585.01,1.723-.433,2.6a15.057,15.057,0,0,0-2.1,7.184c.067,3.779,1.417,7.665,2.447,11.189,1.706,5.842,1.059,12.7,1.306,18.741.243,5.9.646,11.855-.6,17.093-1.222-1.033-2.646-2.436-4.623-2.471-.369-.007-.736.19-1.107.207-.706.031-1.238-.2-1.809.206-.646.46-.907,1.966-1.207,3.087-.391,1.465-1.174,3.272-.4,4.223-.255,3.734-3.311,5.339-2.814,9.783.258,2.306.843,8.625,3.016,9.164,2.72.676,3.1-1.853,3.718-3.913a17.747,17.747,0,0,0,.7-2.985c.193-1.993.122-4,1.809-4.43-1.072,4.983-.727,10.973-1,16.684-.138,2.846-2.193,8.976,1.645,9.536a35.493,35.493,0,0,0,4.685.143c.355,1.73.488,3.5.705,5.251.415,3.351,1.3,7.659-1.007,9.474-.382.3-.95.351-1.306.617a5.39,5.39,0,0,0-2.21,4.428c-1.384,1.187.6,2.43,1.709,2.987,1.621.817,4.162,1.17,5.427,1.646.25-.089.35-.326.5-.513,3.4.289,4.713,3.134,8.944,2.881a18.915,18.915,0,0,0,6.633-1.235c1.76-4.886-5.105-3.716-7.738-5.768-.693-.539-.868-1.623-1.306-2.779-.259-.679-.725-1.313-.905-1.853-.308-.918-.318-2.219-.6-3.4a57.945,57.945,0,0,1-1.006-12.975c1.138-.834,5.418-.874,4.59-3.146a5.836,5.836,0,0,1,.033-3.24c.262-1.609-.4-2.86-.5-4.426a98.687,98.687,0,0,1,1.608-22.964c1.025.68,1.606,3.6,3.217,3.708.918.058,2.128-1.185,3.063-1.4,1.713-.4,3.061-1.655,4.74-2.238,4.675-1.627,8.886-4.193,13.782-5.168,3.931-.783,7.085-1.767,9.905-4.766,6.618-7.039-2.735-18.217-6.143-24.969-3.745-7.422-9.284-13.581-15.4-19.018,3.45-.965,1.313-16.221.408-19.834-1.82-7.279,4.024-20.911-.608-26.917-2.094-2.771-5.6-4.667-8.945-6.281,3.265-1.389,6.681-2.531,10.051-3.809a46.565,46.565,0,0,0,8.947-4.943c3.943-2.614,7.744-6.035,12.16-8.651,1.186-.7,3.73-1.716,4.222-2.677.548-1.07.206-2.534,0-3.81,1.409-.238,2.154-1.158,3.116-1.855a15.08,15.08,0,0,1,2.715-4.942C980.347,104.47,983.2,102.885,982.162,101.37Zm-56.229.379c.057.021.115.041.174.06a8.38,8.38,0,0,0,.868.644,9.284,9.284,0,0,1-1.258-.5l-.444-.463C925.489,101.581,925.708,101.668,925.933,101.749Zm-.855-.807c.207.174.412.348.619.524-.316-.15-.621-.315-.919-.489q-.167-.168-.339-.338C924.65,100.746,924.863,100.846,925.078,100.942ZM894.24,122.986c.076-.183.115-.273.19-.457.083-.2.13-.3.216-.5C894.489,122.416,894.407,122.608,894.24,122.986ZM890.668,133.1l-.018.006c.059-.056.115-.112.174-.168C890.772,133,890.718,133.05,890.668,133.1Zm-4.16,6.112.5-.232c.219-.1.326-.156.547-.261C887.14,138.94,886.93,139.035,886.508,139.217Zm-.26,3.8-.068-.026c.115-.041.231-.085.356-.129.249-.072.37-.122.613-.21C886.857,142.79,886.553,142.9,886.248,143.016Zm14.41-9.735c.019-.233.029-.351.049-.586-.031.449-.04.677-.083,1.119C900.639,133.6,900.649,133.5,900.658,133.281Zm-2.268-11.329c-.019.3-.037.609-.056.913l-.258.343c-.044.06-.089.116-.133.177C898.108,122.905,898.255,122.427,898.39,121.952Zm-.478,14.393c.147-.218.29-.438.43-.655-.149.248-.3.5-.457.747C897.893,136.406,897.9,136.376,897.912,136.345Zm-1.562-11.134c.1-.192.151-.288.248-.481q-.182.455-.4.917c-.049.063-.1.127-.149.192C896.141,125.645,896.243,125.439,896.351,125.211Zm-8.47,18.379a2.445,2.445,0,0,1-.377-.084,17.583,17.583,0,0,0,1.689-.832,20.17,20.17,0,0,0,4.333-3.312l.1.111a21.838,21.838,0,0,1-1.724,1.659,18.361,18.361,0,0,1-3.885,2.473C887.974,143.6,887.926,143.6,887.881,143.591Zm1.225-.015c-.069.039-.14.076-.209.113l-.169-.012c.464-.243.879-.492,1.462-.848.646-.4.957-.61,1.567-1.047A20.607,20.607,0,0,1,889.106,143.576Zm1.458.187a21.139,21.139,0,0,0,3.031-2.315,27.541,27.541,0,0,0,4.055-4.719c-.014.048-.028.095-.043.142a25.4,25.4,0,0,1-6.332,6.889C891.042,143.765,890.8,143.765,890.564,143.763Zm2.141-.07c-.305.029-.63.045-.97.058a24.3,24.3,0,0,0,5.121-5.073,6.29,6.29,0,0,1-.382.623,7.205,7.205,0,0,0,.584-.889q.489-.657.933-1.318c.137-.216.272-.433.408-.65-.069.3-.149.6-.238.893-.058.207-.091.309-.164.5a7.633,7.633,0,0,1-2.021,3.024,8.856,8.856,0,0,0,.838-.793,2.591,2.591,0,0,0,.274-.324,5.628,5.628,0,0,1-.594.8,11.586,11.586,0,0,1-.892.919,10.883,10.883,0,0,0,.942-.875,8.5,8.5,0,0,0,1.814-3.111c.082-.222.133-.325.207-.554.183-.55.283-.9.4-1.386l.056-.09a10.9,10.9,0,0,1-2.2,5.581,12.538,12.538,0,0,1-1.59,1.577c-.236.168-.355.248-.592.4-.292.182-.491.3-.716.419A7.2,7.2,0,0,1,892.706,143.693Zm1.521-.347c-.038.009-.076.016-.114.025.09-.042.182-.087.281-.137C894.335,143.273,894.281,143.311,894.227,143.346Zm.49-.065c-.045,0-.088.005-.131.007a12.415,12.415,0,0,0,1.519-1.142,10.651,10.651,0,0,0,1.755-1.636c.149-.185.228-.314.382-.523a7.241,7.241,0,0,1-.847,1.324,12.351,12.351,0,0,1-.944,1.064,12.1,12.1,0,0,0,1-1.02,9.243,9.243,0,0,0,1.615-2.806,15.856,15.856,0,0,0,1.143-3.711c-.067.545-.093.817-.19,1.344a13.265,13.265,0,0,1-1.336,4.055,7.62,7.62,0,0,1-.721,1.135,7.428,7.428,0,0,0,.779-1.1,12.123,12.123,0,0,0,1.3-3.206,12.62,12.62,0,0,1-.35,1.48,10.753,10.753,0,0,1-1.442,2.778,11.558,11.558,0,0,1-.974,1.116,11.352,11.352,0,0,0,1.037-1.068,6.833,6.833,0,0,0,.621-.867c-.084.174-.278.548-.305.588.033-.046.376-.632.53-.951a11.95,11.95,0,0,0,.871-1.857,11.675,11.675,0,0,1-.95,2.375,11.27,11.27,0,0,1-2.506,3.094A8.145,8.145,0,0,0,894.717,143.281Zm2.98.139a1.6,1.6,0,0,1-.667.376.913.913,0,0,1-.306-.012,11.284,11.284,0,0,0,2.608-2.977,15.052,15.052,0,0,0,1.791-5.7c-.051.5-.062.752-.137,1.248a15.419,15.419,0,0,1-.513,2.421,11.871,11.871,0,0,1-.651,1.659A10.468,10.468,0,0,1,897.7,143.42Zm2.007-1.465c-.1.053-.2.106-.3.161a10.806,10.806,0,0,0,1-1.546A9.313,9.313,0,0,1,899.7,141.955Zm1.529-.515-.1.016c.044-.087.085-.175.125-.264C901.248,141.276,901.24,141.359,901.232,141.44Zm.158-1.44a9.123,9.123,0,0,1-.329.878c-.009.022-.013.033-.024.054l.014-.031c-.022.057-.035.085-.057.142-.067.166-.141.327-.218.488l-.159.044a10.859,10.859,0,0,0,.778-1.62C901.393,139.969,901.391,139.983,901.39,140Zm-.023-2.6c-.094.435-.173.641-.29,1.07a12.266,12.266,0,0,1-1.9,3.777q-.171.1-.342.208l-.046.031a9.477,9.477,0,0,0,1.3-1.912,15.131,15.131,0,0,0,1.476-4.447C901.495,136.638,901.465,136.9,901.367,137.4Zm1.641-7.029c.013.206.027.414.038.623-.019.081-.039.164-.059.245C903,130.983,903,130.71,903.008,130.373Zm-1.086,11.042c.029-.172.055-.342.08-.515a15.278,15.278,0,0,0,.562-1.455,16.1,16.1,0,0,1-.629,1.972A.023.023,0,0,1,901.921,141.415Zm.7.108-.056-.014c.02-.047.045-.094.064-.142Zm.115-1.565a15.241,15.241,0,0,1-.542,1.484c-.028,0-.055-.006-.082-.009a14.986,14.986,0,0,0,.657-1.83C902.76,139.722,902.748,139.839,902.738,139.958Zm-.069-1.6a16.474,16.474,0,0,1-.53,1.67c.062-.376.127-.751.2-1.127q.356-2.007.8-3.977c-.007.169-.01.339-.017.509-.09.878-.136,1.318-.3,2.2C902.764,137.918,902.741,138.065,902.669,138.353Zm1.063,3.568c0,.01,0,.025,0,.035-.046-.025-.094-.051-.142-.075.051-.128.105-.263.158-.4C903.741,141.631,903.737,141.775,903.732,141.922Zm.017-.563c-.06.175-.123.349-.185.511-.084-.042-.17-.083-.259-.12.026-.063.056-.127.088-.2.138-.319.265-.643.382-.968C903.765,140.843,903.757,141.1,903.748,141.359Zm.064-1.822c-.011.23-.019.461-.027.692q-.2.65-.453,1.3c-.027.071-.055.136-.083.2-.091-.038-.184-.073-.28-.1l.03-.249a16.9,16.9,0,0,0,.872-2.781Q903.84,139.065,903.813,139.537Zm-.019-1.685a17.69,17.69,0,0,1-.72,2.942c.035-.287.07-.571.107-.856a19.76,19.76,0,0,0,.8-3.6C903.915,136.943,903.9,137.242,903.793,137.852Zm.709,4.641c-.054-.045-.11-.09-.164-.133a.1.1,0,0,1,0-.02l.021-.094.01-.049,0-.023.005-.013h0v-.016c0,.053,0,.193,0,.17h0v-.006l0-.009.036-.251,0-.012c.029-.073.055-.144.083-.216C904.511,142.045,904.508,142.269,904.5,142.493Zm-.037-.753c.014-.092.028-.187.042-.289,0,.057,0,.112,0,.168S904.479,141.7,904.465,141.74Zm.025-9.147c0-.033,0-.065-.007-.1.025-.1.046-.208.07-.311C904.531,132.329,904.509,132.464,904.489,132.593Zm2.663,6.816c.021-.232.031-.35.055-.58-.023.442-.05.665-.056,1.109C907.147,139.724,907.147,139.619,907.152,139.408Zm-.61,2.9c-.015.765-.062,1.543-.132,2.334l-.463-.595q.148-.583.274-1.167c.058-.266.126-.659.177-.826l.147-1.045C906.544,141.526,906.553,141.968,906.542,142.31Zm.354,2.241q-.035.3-.078.609l-.2-.249c.1-.6.19-1.208.263-1.8C906.889,143.683,906.9,143.966,906.9,144.552Zm.39,1.16c-.062-.069-.121-.138-.181-.207.089-.4.159-.746.259-1.26C907.339,144.836,907.318,145.255,907.286,145.711Zm1.009.615c-.009.107-.022.215-.03.321-.148-.116-.291-.239-.426-.368q.13-.847.229-1.688c.1.225.2.419.313.63C908.359,145.571,908.331,145.872,908.3,146.326Zm.12-1.691c-.009.2-.019.372-.03.532-.106-.228-.2-.437-.305-.69a32.555,32.555,0,0,0,.215-3.333c.033.471.057.768.083,1.176C908.418,143.239,908.428,143.7,908.415,144.636Zm.93-.38c-.1.96-.231,1.916-.383,2.866-.073-.041-.145-.086-.217-.131.036-.2.074-.4.108-.6a34.7,34.7,0,0,0,.521-4.367c.029.48.036.72.057,1.2C909.4,143.637,909.382,143.843,909.345,144.256ZM915.5,96.58a9.646,9.646,0,0,1,.988-.013c.228,0,.458.023.689.041l-.159-.008a11.674,11.674,0,0,0-1.372.025C915.6,96.608,915.552,96.593,915.5,96.58Zm.283.092c.195,0,.392,0,.589.016-.113,0-.224,0-.335,0-.051,0-.12,0-.195,0Zm1.019.277c-.158-.016-.318-.03-.477-.039l-.1-.05c.254.022.508.053.764.095C916.932,96.951,916.87,96.95,916.806,96.948Zm-.727-.16-.126-.054.086,0a11.274,11.274,0,0,1,1.144.111C916.811,96.815,916.441,96.792,916.079,96.789Zm23.164,117.648c2.578,1.669,5.949,3.641,7.439,6.487-3.282.727-5.8,3.3-9.047,4.119C938.26,221.522,938.6,217.955,939.243,214.437Z" transform="translate(-786.495 -23.757)"/><path class="a" d="M1090.744,215.555c2.031.024,2.233,1.021,3.479,1.711,1.619.346,3.094.266,4.531,1.212,3.069,2.02,5.216-.05,5.662,4.486.7,7.119,1.143,13.265-.465,20.319-.813,3.564-2.426,7.175-2.907,10.782a57.515,57.515,0,0,0,.142,10.983c.472,7.119,1.862,13.663,0,20.683a6.292,6.292,0,0,0-.28,2.853,5.135,5.135,0,0,1-.417,2.854c-.082.22-.324.464-.417.711-.149.4-.025.741-.3,1.095a13.452,13.452,0,0,1-.946.969,18.386,18.386,0,0,0-1.849,2.563,8.636,8.636,0,0,0-1.316,2.281c-.148.51.035.785-.357,1.19a1.23,1.23,0,0,0-.387.673c-.117.819-.771,1.254-.706,2.22a4.91,4.91,0,0,0,.3,1.413c.116.3.326.244.409.434.621,1.412,2.808,2.122,4.177,2.281a6.507,6.507,0,0,0,5.241-1.551,16.649,16.649,0,0,0,3.084-4.1,10.344,10.344,0,0,0,1.779-5.23,2.982,2.982,0,0,0-.8-2.292c-.587-.666-.32-1.274-.4-2.086-.04-.426-.274-.836-.278-1.141-.014-.956.39-1.893.418-2.849a21.527,21.527,0,0,0-.278-2.284c-.844-10.679,5.643-20.54,6-30.946.175-5.1,1.878-8.847,2.823-13.765,1.022-5.317,1.775-10.714,2.733-16.052a22.583,22.583,0,0,0,11.242,1.077c2.092-.363,4.156-1.078,6.3-1.077.559,1.626,1.11,3.259,1.634,4.9,2.207,6.877,3.008,14.617,6.3,21.061,2.441,4.79,2.32,10.288,4.316,15.259,2.557,6.392,4.724,12.947,6.823,19.543a23.162,23.162,0,0,1,1.113,4.706c.105,1.245-.18,2.264-.139,3.423a20.165,20.165,0,0,0,.386,2.016,5.485,5.485,0,0,1-.218,1.971,4.883,4.883,0,0,0-.176,1.959c.064.351.512.831.1,1.091-.817.521-1.315.875-1.291,1.948a4.88,4.88,0,0,0,.827,2.813,25,25,0,0,0,3.015,3.035,16.739,16.739,0,0,0,2.8,2.26,5.381,5.381,0,0,0,2.687,1.123,10.428,10.428,0,0,0,3.845-.1c1.786-.487,3.854-1.818,3.286-4.028-.13-.509-.435-.742-.612-1.19-.156-.394-.2-1.105-.529-1.373-.558-.451-.5-.348-.661-1.082a2.41,2.41,0,0,0-.527-.984,27.2,27.2,0,0,1-2.546-2.741,8.109,8.109,0,0,0-1.825-2.076,5.085,5.085,0,0,1-1.321-2.642c-.147-1.164.269-2.25,0-3.424-.558-2.443-1.669-4.524-2.088-6.845-1.241-6.878-.618-14.142-1.253-21.112-.643-7.078-3.351-12.443-5.47-19.114-2.028-6.386-2.281-12.54-2.323-19.183-.028-4.448.245-4.109,4.173-4.348-.083-.009,2.861-2.158,3.458-1.64-.128-.215-.259-.432-.4-.641.645-.117,1.3-.212,1.949-.289-6.617-10.784-10.674-22.782-14.239-34.88-2.379-8.07-3.535-14.426-2.329-22.885.5-3.5.871-6.976,1.531-10.413.883-4.591,3.025-8.858,4.57-13.3a9.955,9.955,0,0,0,2.4,3.336c.3.482.617,1.305,1.249,1.209a42.245,42.245,0,0,0-3.412-5.244,31.614,31.614,0,0,0,1.18-4.538c1.2-6.868,7.351-10.237,11.547-15.191,3.117-3.678,5.07-7.836,8.362-11.34,1.4-1.5,2.321-5.234,3.2-7.131,1.589-3.423,2.785-7.014,4.455-10.414.642-1.305,1.434-2.622,2.226-3.993.665-1.147,1.756-2.359,2.646-3.564.572-.775.648-1.217,1.393-1.57a4.975,4.975,0,0,1,.974-.286c.44-.1.979-.027,1.531-.143.479-.1,1.067-.406,1.671-.57s1.2-.275,1.81-.427c1.663-.415,2.841-1,4.455-.857A2.666,2.666,0,0,0,1198.1,77c.064-.009.5-.073.543-.084.523-.117,1.144-.211,1.67-.286,1.439-.206,2.674.186,3.2-.856.707-.177,1.76,0,2.089-.571.015-1.306-1.412-1.385-2.507-1.141a3.355,3.355,0,0,1,.834-.428c.228-.086.878.029.834-.427-.232-.434-.29-.531-.555-.714-.166-.114-.408-.385-.7-.427-.588-.091-1.315.357-1.949.427-.555.059-1.242-.079-1.811,0-1.085.152-2.012.85-3.063.57,1.012-.674,2.644-.716,3.482-1.567-.294-1.514-1.884-1.034-3.2-.714-.868.208-1.58.563-2.505.857a7.089,7.089,0,0,1-1.948.285c-.347.022-.8.177-.974.143-.561-.116-.636-.417-.978-.715-.269-.237-.763-.389-.833-.856-.232-.659.866-1.356,1.112-2.283a1.991,1.991,0,0,0-.833-2.567c-.866.339-1.27,1.1-1.813,1.855-.062.088-.228.2-.276.285s-.063.332-.139.427c-.623.774-1.577,1.23-2.229,2-.19.226-.241.594-.416.856l-.558.714c-.164.237-.4.466-.556.712a9.65,9.65,0,0,1-1.392,1.855c-.091.088-.321.065-.418.142-.184.146-.2.471-.417.713-.68.747-.929,2.087-1.392,3.281a10.2,10.2,0,0,1-.836,1.711c-.869,1.386-2.039,3.113-3.062,4.563-.181.259-.38.459-.558.716s-.254.614-.419.854c-.185.271-.38.466-.556.715a60.426,60.426,0,0,0-5.151,7.558c-1.15,2.283-1.876,6.091-3.758,7.844-2.022,1.887-4.525,3.19-6.575,5.212a52.978,52.978,0,0,1-7.941,6.4c-.667-.421-1.333-.847-1.962-1.323-.85-.645-1.681-1.143-2.569-1.709a12.519,12.519,0,0,1-4.166-4.408c1.537.583,2.634,1.994,4.651,1.848-.543-.818-1.706-1-2.43-1.635a4.83,4.83,0,0,1-2.151-1.28c1.35.279,2.686,1.621,4.234.995-.787-.876-2.5-.8-3.472-1.494-.957-.677-1.925-1.346-2.845-2.063-2.6-2.29-4.551-5.245-6.944-7.753a21.612,21.612,0,0,0-11.175-4.2,11,11,0,0,0-1.319.285,5.3,5.3,0,0,0-2.5.213,18.855,18.855,0,0,0-3.609,2.774c-1.724,2.189-2.584,5.26-3.322,8.458-.558-1.824-1.128-3.682-1.6-5.6-1.4-5.775-2.694-10.97-5.149-16.4a95.37,95.37,0,0,1-4.734-12.692c-.432-1.5.206-3.452.555-5.421.147-.819.14-1.608.28-2.424.122-.72.426-1.429.557-2.14.18-.981.083-1.981.277-2.854a10.3,10.3,0,0,1,.279-1,10.044,10.044,0,0,0,.556-1.711c.157-.762.406-1.745.694-2.71a5.065,5.065,0,0,0,.56-2.569c-.025-.106-.285-.089-.279-.285a.759.759,0,0,0,.14-.283c.041-.991.576-2.013.416-3a1.275,1.275,0,0,0-1.39.711c-.366.372-.2-.328-.646-.24-.2.012-.149.02-.289.1-.014.01-.284.256-.319.287-.443.373-.553,1.055-.837,1.855-.213.6-.527,1.27-.7,1.855-.21.736-.228,1.517-.417,2.28-.07.279-.339.553-.418.858-.089.358-.191.819-.292,1.1-.146.406-.429.648-.544,1.034a18.735,18.735,0,0,0-.556,2c-.607.233-1.079.605-1.67.854-.442-.559-.254-1.6-.419-2.422-.152-.781-.623-2.6-1.531-2.71-2.227-.269-1.012,4.062-.834,5.7.094.875.068,1.794.14,2.283a10.485,10.485,0,0,0,.416,1.284c.133.462.138.971.278,1.425.235.757.747,1.486.974,2.284.34,1.176.265,2.5.557,3.852,1.4,6.452,2.228,12.747,3.146,19.3.583,4.162,2.058,7.525,3.12,11.365s1.851,8.505,2.784,12.695c.336,1.509.655,2.911.975,4.564.032.17.059.356.085.541-.074.109-.149.218-.225.325-.512.423-1.165.7-1.666,1.136-.106.348.255.216.348.357a25.174,25.174,0,0,0-4.444,3.556,6.919,6.919,0,0,0-1.805,2.205c-.485.83-1.2,1.427-1.32,2.631.725-.039.866-1.6,1.6-1.636a22.758,22.758,0,0,1-3.056,4.766,11.249,11.249,0,0,1-1.387,1.21c-.261.61-1.15.573-1.25,1.35.386.184.668-.3.972-.426,2.078-.718,3.46-2.145,5-3.415a3.951,3.951,0,0,1,.831-1c-.425,1.936-1.71,3.606-2.428,5.477a11.251,11.251,0,0,0-1.738,2.846c.811-.149,1.213-1.316,1.944-1.779.471-.847.97-1.663,1.391-2.561a11.064,11.064,0,0,0,1.6-2.56c1.365-.19,2.589-.525,3.958-.711a2.624,2.624,0,0,1-.763,1.21,16.5,16.5,0,0,0-1.389,3.272c-.141,1.591-.8,3.243-.556,4.551-.223.44-.077.951-.138,1.637a.331.331,0,0,0-.069.212,3.642,3.642,0,0,1-1.389,1.424c-.148.226-.328.423-.485.641-.7.493-1.4.983-2.083,1.494a9.9,9.9,0,0,1-1.041.709c-.2.31-1,.338-.834.783.059.447.543-.03.9.071,1.991-.9,3.623-2.542,5.276-3.556a10.978,10.978,0,0,1,2.083-2.417,11.419,11.419,0,0,0,.208,4.41,8.119,8.119,0,0,1-1.249.64c-.708.913-1.813,1.413-2.017,2.844-.62.879-.687,2.329-.971,3.556.1,1.338-.509,2.692-.209,3.77.579-.19.357-1.2.627-1.708a7.23,7.23,0,0,1,.484-1.779,12.523,12.523,0,0,0,1.043-1.918c1.315-1.732,2.085-3.334,3.957-4.125a4.484,4.484,0,0,1-.973,3.271c-.4.671-1.354,1.112-1.319,1.992.517.092.684-.762,1.181-.925.154.909.067,2.443.693,2.631.334-.511.127-1.262.209-1.849a13.97,13.97,0,0,1,1.182-2.774,10.643,10.643,0,0,0,1.526,4.978,11.884,11.884,0,0,0-.485,2.775q-.785,2.577-1.528,5.193a36.342,36.342,0,0,0-2.082,4.409c1.146-.627,1.476-2.092,2.43-2.917.868-.912,1.322-2.249,2.153-3.2.361,3.169-1.562,4.986-2.153,7.182.335-.063.576-.832.834-1.21a5.881,5.881,0,0,0,.7-1.494c.141-.165.274-.332.414-.5a2.158,2.158,0,0,1,.625-1.141c.123,1.033-.464,1.7-.278,2.562a8.779,8.779,0,0,0-.694,1.849c-.18.464-.715.913-.554,1.495a2.439,2.439,0,0,0,.971-1.28,9.082,9.082,0,0,0,2.084-2.988c.307,1.865.235,3.965.415,5.761.164,1,.015,2.311.626,2.846.674-.92-.05-2.352.14-3.556.349-2.456.59-5.023,1.078-7.341a25.277,25.277,0,0,1,.818,6.4c-.269,6.34-4.333,12.029-6.877,17.57-4.908,10.693-10.253,21.327-18.044,30.068.228.126,2.479.664,2.128,1.051A.457.457,0,0,0,1090.744,215.555Zm10.451-75.007a13.525,13.525,0,0,1-2.289,1.779A10.218,10.218,0,0,1,1101.2,140.547Zm-1.458-11.094a3.6,3.6,0,0,1-.624,1.067C1099.266,130.152,1099.419,129.411,1099.737,129.453Zm6.041-5.9c-.735,1.948-1.639,3.725-4.027,3.984.918-1.741,2.47-2.828,3.888-4.055C1105.693,123.493,1105.776,123.479,1105.778,123.55Zm35.337-19.773c.361.313-.221-.129,0,0Zm1.041.781c-.379-.083-.568-.364-.833-.567A1.981,1.981,0,0,1,1142.156,104.558Zm4.721,11.027c.285.3.572.634.86.97-.437.3-.9.628-1.368.979a52.133,52.133,0,0,0-2.477-5.08c.635.3.933.94,1.595,1.21.057.249.21.4.279.639C1146.269,114.554,1146.467,115.146,1146.877,115.585Zm4.027-1.351c.169.237-.233-.174,0,0Zm-.462.562c-.415.269-.838.541-1.271.814-.031.022-.07.046-.1.066a14.256,14.256,0,0,1-.942-1.656,9.52,9.52,0,0,1-1.389-1.921,3.853,3.853,0,0,1,1.737,1.35C1149.2,113.824,1149.757,114.376,1150.442,114.8Z" transform="translate(-850.325 -17.136)"/><path class="a" d="M953.112,159.239c.215-.331.641-.565.735-.879a3.479,3.479,0,0,1,.123-1.254c.136-.46.458-.66.857-1a16.815,16.815,0,0,1,3.306-1.758c.127-.066.218-.3.368-.376.77-.412,1.429-.563,2.08-.876a5.579,5.579,0,0,0,.981-.5c.677-.565,1.37-2.237,1.96-2.885.089-.1.037-.267.121-.378.125-.165.366-.237.49-.375,5.7-6.426,6.194-16.458,12.736-22.333,4.031-3.619,8.254-7.453,10.288-12.674,2.066-5.3,3.2-13.688,7.961-17.439a11.493,11.493,0,0,1,9.844-2.129c-.047-.013,2.837.683,2.994.667,1.576-1.614,4.636-5.008,5.163-6.442.2-.553.44-1.117.659-1.689a4.21,4.21,0,0,1-.971-.679c-.355.289-.215-.13-.526-.2-.3,0-.24.382-.59.336,0-.586.309-.85.393-1.346-.168-.237-.436-.074-.656,0,.133-.582.656-.762.984-1.144-.144-.227-.445-.274-.592-.335-.174.174.178.1,0,.269A2.228,2.228,0,0,1,1009.263,82c.513.779,2.913,1.48,3.217,0-.8-.173-1.673-.26-1.9-1.009,1.685.333,1.628-2.343.46-2.621-.03-.345.157-.469.2-.741-.474-.477-1.86-.023-2.036-.806.608-.012,1.185-.39,1.181-.807-.016-.251-.544.02-.524-.269.238-.249.583-.387.589-.874-.022-.178-.334-.06-.392-.2,1.5-.819.839-3.3.984-5.244a5.95,5.95,0,0,1,1.117-3.3,16.4,16.4,0,0,1,1.247-1.076c1.1-1.134,1.8-2.822,2.953-3.765a9.049,9.049,0,0,1,5.186-1.883c1.591,1.2,3.26-.682,4.6-.808a11.323,11.323,0,0,1,6.105,1.212,12.888,12.888,0,0,1,5.38,4.572,11.484,11.484,0,0,1,2.1,4.1c.493,3.639-2.16,7.854,0,10.826-.461-.066-.406-.661-.919-.673a1.294,1.294,0,0,0,.919,1.95c.089.5-.339,1.044-.591,1.413-.282-.205-.3-.683-.789-.673-.23.85.337,1.442.592,2.019-1,.3-1.808-.439-2.561-.807-.153,1.17.919,1.656,1.969,1.814-.581.711-1.872.649-2.823.339a1.843,1.843,0,0,0,.329,1.68,4.532,4.532,0,0,1-.984-.068,2.128,2.128,0,0,0-.852,2.085c.255.209.594.331.852.539.163.14-.436-.136-.46.133.048.291.268.4.2.808-.421.5-1.052-.1-1.51,0-.429.1-.349.5-.722.739-.78-.227-1.259-1.327-2.034-1.68l-.045-.016c-1.172,1.048-3.143,2.689-2.718,3.962,2-1.522,6.289,1.9,7.348-1.005a12.726,12.726,0,0,1,5.756-6.649c1.772-1,3.888-1.767,4.9-3.389,2.34-3.752,6.12-5.9,8.694-9.283,1.951-2.563,1-5.926,1.225-8.908.271-3.549,1.471-6.926,1.471-10.541,0-1.2.1-2.506,0-3.513-.044-.429-.277-.966-.367-1.63-.069-.494-.015-1-.124-1.506a2.871,2.871,0,0,0-.489-1.255c-.259-.226-.688-.154-.981-.251a4.569,4.569,0,0,1-.981-.376,3.219,3.219,0,0,1-.735-.877c-.079-.106-.284-.146-.366-.252a11.669,11.669,0,0,1-.856-1.5,8.611,8.611,0,0,1-1.349-3.388,3.663,3.663,0,0,1,.859-2.382c.2-.212.4-.165.491-.253.332-.321.074-1.146-.123-2.007-.112-.487-.364-1.432-.49-1.755-.133-.343-.462-.864-.736-1.382-.319-.606-.717-1.027-.612-1.629a1.839,1.839,0,0,1,1.225-1.13c.888-.074,1.385.8,1.836,1.506.424.661,1.343,2.06,1.593,1.506-.207-.6-.4-1.13-.614-1.632-.277-.648-.628-.951-.49-1.63a1.343,1.343,0,0,1,.367-.752,2.154,2.154,0,0,1,1.348-.5c.352.053.491.391.614.5.043.039.057.111.1.154s.106.05.146.1a1.889,1.889,0,0,1,.368.5c.342.676.711,1.451.978,1.881.214.343.229.881.614.753.963-.45.483-1.817,1.471-2.132,1.437-.465,2.06.774,2.2,2.258.529-.144.871-.425,1.47-.126a2.458,2.458,0,0,1,.859,1.507c.066.325-.075.519,0,.877.173.86.57,1.752.732,2.636a29.076,29.076,0,0,1,.245,6.773c-.04.636-.238,1.343-.245,2.009-.01.894.161,1.837.245,2.759.271,2.918.7,5.456,1.1,8.03.785,5.072,2.734,11.6,1.13,16.633a66.045,66.045,0,0,1-7.147,14.22c-1.168,1.829-1.621,3.873-3.047,5.908-.42.6-.841,1.165-1.224,1.758-2.116,3.258-4.732,6.607-6.124,10.288-3.96,10.473-6.241,23.183-3.62,34.327,1.461,6.214,4.044,11.861,4.895,18.273.666,5.01,1.5,9.725,2.521,14.65a17.21,17.21,0,0,1,.367,1.881c.033.444-.138.908-.121,1.38.377,10.065,4.843,19.647,5.326,29.845.488,10.217-1.256,20.524,2.027,30.393a186.631,186.631,0,0,1,7.033,30.655q1.27,8.179,2.394,16.381a44.482,44.482,0,0,0,1.345,6.651c-1.538.313-3.1.421-4.652.627a2.49,2.49,0,0,1,.856,1.38q-.669-.208-1.347-.38c2.277,3.008,3.668,7.143,7.227,8.784a5.392,5.392,0,0,1,3.182,3.89c.414,3.313-1.727,3.125-4.409,3.765-3.413.817-15.882-.823-16.533-5.144-.462-3.077.429-6.577-.365-9.909-4.243,2.407-3.686-2.38-4.14-4.829-1.842-9.985-3.114-20.261-4.3-30.352-1.115-9.458-3.149-18.274-5.095-27.565-1.81-8.638-5.5-16.959-6.98-25.638-.646-3.793-1.515-16.559-6.059-17.26-.324,3.622-4.662,8.475-6.612,11.668-3.344,5.475-5.887,11.422-8.94,17.064-2.214,4.1-4.383,8.292-6.738,12.282-2.656,4.488-6.554,10.792-6.365,16.217.481,13.756-2.487,28.412-3.428,42.139a2.68,2.68,0,0,1-2.573,2.635c-3.722.542-1.752,4.6-1.988,7.716-.267,3.553-3.449,5.756-6.463,6.587-2.379.657-16.3-.743-10.284-5.53a17.033,17.033,0,0,0,5.755-10.655c.265-2.369-5.008.537-4.043-4.141.677-3.275.539-6.932.843-10.26.706-7.692,1.317-15.446,2.533-23.078,1.967-12.353,7.68-22.975,10.708-34.915,1.882-7.418,3.688-14.968,6.842-21.947,2.1-4.647,7.241-11.322,6.629-15.819.359-1.076-.033-2.159,0-3.263a26.023,26.023,0,0,1,.491-3.137c.083-.522.185-1,.243-1.5.466-3.971.432-8.3.736-12.046.094-1.148.1-2.276.245-3.387.276-2.075,1.164-4.053,1.347-5.895.8-8.034-5.874-18.626-8.449-26.1-7.905,7.755-14.847,15.96-22.656,23.965-2.387,2.446-4.62,4.526-6.734,6.776A27.236,27.236,0,0,0,967.2,155.1a17.687,17.687,0,0,0-1.593,2.759,8.945,8.945,0,0,1-.613,1.634,13.925,13.925,0,0,1-2.326,2.383,26.729,26.729,0,0,1-2.571,1.631c.527.085.988-.136.981.25a5.6,5.6,0,0,1-.368,1.881c-.1.407.024.666-.124,1-.443,1.027-1.613.8-2.816.754a4.825,4.825,0,0,1-2.45-.377c-.485-.361-.624-1.083-.855-1.629a3.618,3.618,0,0,0-.245-.629c-.253-.335-.468-.286-.734-.5-.756-.607-.512-1.174-.615-2.384a13.4,13.4,0,0,1-.244-1.631A3.118,3.118,0,0,1,953.112,159.239Z" transform="translate(-800.891 -14.789)"/></svg>