<svg xmlns="http://www.w3.org/2000/svg" width="1228.509" height="593.497" viewBox="0 0 1228.509 593.497"><defs><style>.a{fill:#ffbe55;}.b{fill:none;stroke:#e2e2e2;stroke-miterlimit:10;}.c{fill:#e2e2e2;}.d,.e{fill:#fff;}.e{opacity:0.67;}</style></defs><g transform="translate(139.713 -48.074)"><g transform="translate(1.715 16.96)"><g transform="translate(-141 408.94)"><path class="a" d="M72.994,731.844c-4.12-3.195-10.964-4.513-15.97-4.756-2.631-.128-2.955.411-4.252-1.5-1.2-1.773-1.238-5.994-1.681-8.127l-3.361-16.2a55.215,55.215,0,0,0,19.413-73.48c-2.138-3.907-5.556-7.974-10-7.728-3.327.184-5.991,2.776-8.02,5.419-6.431,8.378-9.8,18.833-10.816,29.347s.205,21.13,2.237,31.5A5.786,5.786,0,0,1,40.6,689.3a5.684,5.684,0,0,1-2.125,2.426C25.953,701.4,12.471,711.141,5.848,725.512a45.5,45.5,0,0,0-3.316,27.516c1.847,9.5,7.066,18.584,15.239,23.761,5.355,3.392,11.655,4.968,17.915,5.966,7.924,1.263,16.121,1.668,23.907-.27.9,4.737,1.657,9.5,2.246,14.287.464,3.776.934,7.622,1.106,11.448.056,1.223-.042,2.415-.042,3.631a16.365,16.365,0,0,1-2.566,7.066,17.689,17.689,0,0,1-2.05,2.627,25.211,25.211,0,0,1-8.3,5.605,19.732,19.732,0,0,1-6.932,1.656,17.206,17.206,0,0,1-3.592-.2l-.309-.052a15.213,15.213,0,1,0-20.538-6.294l-.088-.027c.215.413.47.772.7,1.16.094.148.172.3.272.448C27.449,836.391,44.876,835.7,44.876,835.7a22.366,22.366,0,0,0,6.412-.878A25.9,25.9,0,0,0,63.417,828a25.14,25.14,0,0,0,4-5.416,20.025,20.025,0,0,0,2.1-5.115,23.616,23.616,0,0,0,.154-7.606,173.83,173.83,0,0,0-2.816-17.519l-.824-4.123q-.737-3.684-1.473-7.366c-.025-.124-.049-.248-.075-.372,0,0,14.591-4.256,17.631-17.023C82.114,763.458,87.889,743.4,72.994,731.844ZM46.849,640.819c5.954-8.025,18.813-4.463,19.732,5.487,0,0,1.811,14.263-10.61,28.389-2.019,2.752-6.313,6.947-11.319,11.46l-1.494-7.092c-.107-.521-.179-1.845-.26-2.372-1.321-8.5-1.543-20.694-.741-25.416A23.434,23.434,0,0,1,46.849,640.819ZM22.756,771.408c-6.208-5.268-10.728-12.852-11.118-20.985-.448-9.342,4.441-18.137,10.3-25.428a91.744,91.744,0,0,1,21-19.111l4.086,17.689a5.88,5.88,0,0,1,.032,3.749c-.581,1.262-1.945,1.925-3.165,2.59-8.961,4.881-14.453,14.684-14.637,24.8-.069,3.818.505,7.772,2.539,11s5.758,5.587,9.553,5.178c-1.632.176-4.243-6.872-4.605-8.073a22.16,22.16,0,0,1-.578-10.394,15.579,15.579,0,0,1,14.342-13c2.682,12.086,5.793,26.439,8.318,39.022.012.062.024.123.037.185A38.715,38.715,0,0,1,22.756,771.408Zm40.749,4.958-1.048-5.5c-.025-.153-.024-.3-.056-.458l-6.564-31.155c4.176.222,15.864,2.259,18.894,17.911C74.732,757.162,77.333,768.937,63.505,776.365Z" transform="translate(-1.715 -620.046)"/></g><g transform="translate(701.924 405.897)"><path class="a" d="M819.031,778.851h0v-85.89a.7.7,0,0,0-.7-.7h-3.071a.7.7,0,0,0-.7.7v78.911c-4.539-2.257-11.474-1.848-18.008,1.55-9.077,4.72-13.917,13.388-10.811,19.362s12.982,6.99,22.059,2.27C815.384,791.115,819.066,784.407,819.031,778.851Z" transform="translate(-784.81 -692.265)"/></g><g transform="translate(-259 31.114)"><g transform="translate(621.718 75.685)"><path class="b" d="M818.705,341.473c-.02-30.7,5-71.439,32.922-92.066,33.172-24.5,71.545-.582,110.674-20.413,23.815-12.07,51.334-42.082,62.058-123.6" transform="translate(-818.705 -105.397)"/><g transform="translate(12.474 14.859)"><path class="c" d="M833.281,354.014c.4-15.49,2.051-31.081,6.473-46.058a96.724,96.724,0,0,1,9.19-21.5,66.717,66.717,0,0,1,15.161-17.87,62.252,62.252,0,0,1,9.814-6.527,57.824,57.824,0,0,1,10.947-4.388,82.043,82.043,0,0,1,23.251-2.84c7.8.016,15.533.633,23.237,1.04a161.815,161.815,0,0,0,23.029-.069,84.956,84.956,0,0,0,42.5-15.578l4.609-3.422c1.482-1.209,2.907-2.492,4.365-3.734.716-.635,1.469-1.23,2.156-1.9l2.037-2.031c1.345-1.366,2.744-2.68,4.046-4.087l3.789-4.335,1.892-2.17,1.752-2.288,3.5-4.576c.6-.749,1.137-1.549,1.669-2.35l1.611-2.393a249.186,249.186,0,0,0,21.818-40.668l4.428-10.692c1.422-3.587,2.684-7.237,4.034-10.852l1.993-5.437,1.789-5.509,3.578-11.019,1.457.439-3.5,11.083-1.751,5.542L1060.2,145.3c-1.327,3.641-2.565,7.316-3.965,10.932l-4.365,10.785a250.472,250.472,0,0,1-21.881,41.061l-1.623,2.424c-.537.811-1.074,1.622-1.682,2.383l-3.538,4.646-1.769,2.323-1.915,2.209-3.836,4.411c-1.32,1.433-2.739,2.777-4.1,4.169l-2.068,2.071c-.7.682-1.463,1.292-2.192,1.942-1.482,1.271-2.932,2.582-4.442,3.819l-4.7,3.51a92.2,92.2,0,0,1-20.674,11,83.12,83.12,0,0,1-22.871,5.089,164.134,164.134,0,0,1-23.346.01c-7.742-.43-15.441-1.064-23.122-1.1a79.971,79.971,0,0,0-22.668,2.695,55.745,55.745,0,0,0-10.568,4.2,60.334,60.334,0,0,0-9.494,6.277,64.739,64.739,0,0,0-14.752,17.3A95.333,95.333,0,0,0,841.56,308.5c-4.473,14.708-6.243,30.158-6.763,45.555Z" transform="translate(-833.281 -122.759)"/></g><g transform="translate(25.852 29.91)"><path class="c" d="M848.913,366.593a176.6,176.6,0,0,1,2.776-24.155,123.129,123.129,0,0,1,6.785-23.6,81.811,81.811,0,0,1,12.845-21.629,66.351,66.351,0,0,1,20.522-16.4,64.976,64.976,0,0,1,12.732-4.959,77.414,77.414,0,0,1,13.6-2.382c9.189-.817,18.354-.27,27.355.528s17.922,1.873,26.827,2.407a136.07,136.07,0,0,0,26.522-.674,109.361,109.361,0,0,0,12.932-2.493,115.7,115.7,0,0,0,12.465-4.009,126.6,126.6,0,0,0,23.007-11.844c14.384-9.391,26.752-21.129,37.825-33.7,5.528-6.3,10.711-12.859,15.639-19.57,4.879-6.741,9.5-13.637,13.93-20.633,8.851-14,16.778-28.479,24.256-43.14l1.266.492a484.194,484.194,0,0,1-23.129,43.831q-6.5,10.654-13.694,20.962c-4.865,6.832-10,13.522-15.5,19.978a183.438,183.438,0,0,1-38.3,34.591,130.517,130.517,0,0,1-23.7,12.328,113.325,113.325,0,0,1-26.39,6.867,140.564,140.564,0,0,1-27.406.593c-9.075-.582-18.031-1.693-26.945-2.527s-17.821-1.384-26.6-.638a68.147,68.147,0,0,0-24.976,6.711A63.406,63.406,0,0,0,873.8,298.9a80.286,80.286,0,0,0-12.773,20.8c-6.485,14.9-9.3,30.955-10.733,46.965Z" transform="translate(-848.913 -140.346)"/></g><g transform="translate(39.704 45.235)"><path class="c" d="M865.1,379.271c.313-4.222.741-8.44,1.321-12.648q.893-6.308,2.319-12.556a109.309,109.309,0,0,1,8.51-24.361A73.05,73.05,0,0,1,893.1,308.293a62.02,62.02,0,0,1,24.364-13.818,70.353,70.353,0,0,1,14.237-2.6,99.3,99.3,0,0,1,14.4-.022c9.539.625,18.827,2.22,28.026,3.653a253.977,253.977,0,0,0,27.479,3.267,115.657,115.657,0,0,0,13.663-.115,113.565,113.565,0,0,0,13.485-1.82,116.2,116.2,0,0,0,13.142-3.377l3.214-1.071c1.071-.358,2.113-.786,3.172-1.176,2.126-.76,4.176-1.69,6.256-2.555a160.117,160.117,0,0,0,23.487-13c14.92-9.831,28.15-21.726,40.447-34.312a427.894,427.894,0,0,0,33.9-40.151c10.536-13.939,20.331-28.349,29.806-42.948q-12.551,22.715-27.471,44.327c-4.957,7.2-10.222,14.232-15.639,21.174l-4.142,5.157c-1.378,1.721-2.849,3.381-4.269,5.076s-2.862,3.374-4.359,5.017-2.941,3.323-4.458,4.951a261.749,261.749,0,0,1-19.15,18.822,212.683,212.683,0,0,1-21.467,16.8,159.727,159.727,0,0,1-24.242,13.6c-2.165.914-4.3,1.89-6.521,2.7-1.106.413-2.194.863-3.315,1.244l-3.365,1.139a114.308,114.308,0,0,1-28.092,5.472,121.794,121.794,0,0,1-14.39.061,243.178,243.178,0,0,1-28.129-3.5c-9.211-1.56-18.328-3.238-27.463-3.95-9.109-.707-18.289-.411-26.919,1.951a59.277,59.277,0,0,0-23.1,12.4,71.325,71.325,0,0,0-15.94,20.1,111.9,111.9,0,0,0-9.492,23.607A187.388,187.388,0,0,0,865.1,379.271Z" transform="translate(-865.099 -158.253)"/></g></g><g transform="translate(807.443 191.079)"><path class="a" d="M1015.54,256.544h0v73.071a.592.592,0,0,0,.592.592h2.613a.592.592,0,0,0,.592-.592V262.482c3.861,1.92,9.761,1.571,15.321-1.319,7.722-4.015,11.84-11.39,9.2-16.472s-11.044-5.946-18.766-1.932C1018.638,246.111,1015.514,251.817,1015.54,256.544Z" transform="translate(-1015.54 -240.234)"/></g><g transform="translate(669.785 186.182)"><path class="a" d="M923.233,234.895v.033l-32.4,6.6a.544.544,0,0,0-.436.533V282.9c-2.368-1.178-5.987-.964-9.4.809-4.737,2.463-7.262,6.986-5.641,10.1s6.775,3.647,11.511,1.184c3.953-2.056,6.548-5.556,6.53-8.455V250.428a.478.478,0,0,1,.383-.469l28.874-5.859a.478.478,0,0,1,.573.469v30.118c-2.369-1.178-5.987-.964-9.4.809-4.737,2.463-7.262,6.986-5.641,10.1s6.775,3.647,11.511,1.184c3.953-2.056,6.356-5.545,6.1-8.455h.023V235.056a.544.544,0,0,0-.646-.534Z" transform="translate(-874.871 -234.512)"/></g><g transform="translate(874.601)"><path class="a" d="M1130.016,44.669c-4.287-2.1-7.073-6.138-8.6-10.552a30.871,30.871,0,0,1-1.349-5.644c-.125-.858-.179-6.662-.234-7.527a8.221,8.221,0,0,0-.229-2.229c-.47-1.285-3.176-2.031-4.44-1.663-.979.285-.985,1.546-.928,2.369.086,1.258.094,7.44.09,8.7q-.013,3.818-.026,7.635-.017,4.994-.034,9.987-.019,5.754-.039,11.508-.021,6.1-.041,12.2-.021,6.027-.041,12.054-.019,5.539-.038,11.078-.015,4.635-.032,9.271-.012,3.316-.022,6.632-.005,1.58-.01,3.16a.751.751,0,0,0,0,.151c-5.407-2.689-13.669-2.2-21.453,1.847-10.813,5.623-16.579,15.949-12.879,23.065s13.052,8.672,23.865,3.05c9.025-4.693,14.948-12.683,14.907-19.3v-64.9c13.2-.4,25.435,15.568,25.435,15.568,12.318,21.693-7.66,43.3-7.66,43.3-1.323,4.1,1.383,3.232,1.383,3.232,7.065-4.257,15.272-17.692,15.272-17.692C1171.813,68.408,1130.016,44.669,1130.016,44.669Z" transform="translate(-1078.589 -16.96)"/></g></g><path class="a" d="M90.315,345.361h-49.2v57.684c-3.289-1.635-8.314-1.339-13.049,1.123-6.577,3.42-10.085,9.7-7.834,14.03s9.407,5.065,15.984,1.645c5.49-2.854,9.093-7.715,9.068-11.741V355.96H86.705v46.966c-3.289-1.635-8.314-1.339-13.049,1.123-6.577,3.42-10.084,9.7-7.834,14.03s9.407,5.065,15.984,1.645c5.49-2.854,8.826-7.7,8.476-11.741h.032V355.959H134.66v47.084c-3.289-1.635-8.314-1.339-13.049,1.123-6.577,3.42-10.085,9.7-7.834,14.03s9.407,5.065,15.984,1.645c5.49-2.854,9.093-7.715,9.068-11.741V345.359H90.315Z" transform="translate(-160.977 -234.452)"/><path class="a" d="M667.855,156c-.178-.556-.389-1.1-.615-1.643a15.213,15.213,0,0,0,.86-8.624,20.662,20.662,0,0,0-.759-1.97,15.127,15.127,0,0,0,.759-8.363c-2.387-7.452-9.291-13.636-15.933-17.758-5.462-3.39-7.928-4.269-9.542-9.429a5.225,5.225,0,0,0-.25-1.107.9.9,0,0,0-.121-.2l-.007-.026s0,.007,0,.011a2.942,2.942,0,0,0-2.711-.627c-.651.189-.617.957-.617,1.574,0,.135,0,.276,0,.413l-.129,60.9c-3.594-1.788-9.087-1.294-14.262,1.4-7.188,3.738-11.021,10.6-8.562,15.333s10.281,5.535,17.469,1.8c6-3.119,8.333-8.271,8.306-12.671v-35.4a33.043,33.043,0,0,0,4.514,2.412c9.5,4.349,20.588,15.982,16.72,26.479-.514,1.4-2.1,4.028-2.8,5.339-1.581,2.982,2.5,2.177,4.134-.229C667.969,168.246,669.811,162.108,667.855,156Zm-21.349-34.575c9.927,3.258,16.567,7.407,18.071,17.351,0,0,0,.088.011.239a44.585,44.585,0,0,0-12.421-11.04c-4.467-2.772-7.1-4.118-8.82-7.37C644.079,120.82,645.006,120.934,646.506,121.425Zm5.416,16.817a44.115,44.115,0,0,1-9.735-7.888c1,.8,1.939.625,4.319,1.406,9.927,3.258,16.567,7.407,18.071,17.351,0,0,.008.207.027.542A44.072,44.072,0,0,0,651.922,138.242Z" transform="translate(250.648 5.717)"/><path class="d" d="M743.638,527.286l2.273,18.987,12.9,1.473-12.9,1.472-2.273,18.988-2.273-18.988-12.9-1.472,12.9-1.473Z" transform="translate(-175.419 -138.935)"/><path class="d" d="M590.874,302.432l2.273,18.988,12.9,1.472-12.9,1.472-2.273,18.988L588.6,324.364l-12.895-1.472L588.6,321.42Z" transform="translate(-138.906 -85.192)"/><path class="d" d="M897.224,432.176l-4.269,18.641,11.641,5.739-12.635-2.967-8.549,17.106,4.269-18.641-11.642-5.739,12.635,2.968Z" transform="translate(-210.691 -116.203)"/><path class="e" d="M370.439,184.613l3.03,15.717,10.854.46-10.678,2-.766,15.988-3.03-15.717-10.854-.46,10.678-2Z" transform="translate(-87.11 -57.032)"/><path class="a" d="M1138.68,49.337c-5.009-2.448-8.265-7.172-10.049-12.33a36.072,36.072,0,0,1-1.577-6.595c-.146-1-.209-7.785-.273-8.8a9.6,9.6,0,0,0-.267-2.6c-.549-1.5-3.711-2.373-5.188-1.943-1.144.333-1.151,1.807-1.085,2.768.1,1.47.11,8.693.1,10.17l-.03,8.921q-.019,5.835-.04,11.67-.023,6.723-.046,13.447l-.048,14.252-.048,14.085q-.023,6.473-.044,12.945-.018,5.417-.037,10.833-.014,3.875-.026,7.749-.006,1.847-.012,3.693a.868.868,0,0,0,0,.176c-6.318-3.142-15.972-2.572-25.067,2.158-12.635,6.57-19.372,18.636-15.049,26.951s15.251,10.133,27.886,3.564c10.546-5.484,17.467-14.82,17.419-22.555V62.068c15.423-.47,29.72,18.191,29.72,18.191,14.393,25.348-8.95,50.6-8.95,50.6-1.546,4.788,1.616,3.777,1.616,3.777,8.255-4.974,17.845-20.673,17.845-20.673C1187.52,77.076,1138.68,49.337,1138.68,49.337Z" transform="translate(-84.087 171.04)"/></g></g></svg>