<svg xmlns="http://www.w3.org/2000/svg" width="248.173" height="276.692" viewBox="0 0 248.173 276.692"><defs><style>.a{fill:#3b1957;}</style></defs><path class="a" d="M336.333,688.246a11.074,11.074,0,0,0-.138-1.519c-.219-.523-1.046-1.12-1.521-1.8-.465-.662-.989-1.392-1.383-1.937-.7-.976-2.278-3.278-2.212-4.56.034-.626.675-1.17.692-1.8a7.575,7.575,0,0,0-.414-1.384c-.11-.755.053-1.556,0-2.352-.328-4.875-2.355-9.179-3.456-13.548-.881-3.5-1.005-7.239-2.9-10.369a28.273,28.273,0,0,1-4.013-9.124c-2-8.6-6.667-16.563-7.878-25.3a35.292,35.292,0,0,1-.552-4.564,31.919,31.919,0,0,1,1.106-6.08c1.308-6.148,3.346-11.715,4.84-17.145a149.464,149.464,0,0,0,4.562-20.877c.129-1.021.589-2.056.69-3.042a25.166,25.166,0,0,0-3.454-14.795c-.288-.417-.788-.637-.969-1.1-.134-.35.1-.855,0-1.246a14.369,14.369,0,0,0-1.243-2.074c-1.217-2.44-1.832-4.591-3.043-7.05,3.641-3.581,8.857-7.387,12.444-11.338a34.6,34.6,0,0,0,4.839-7.05,14.952,14.952,0,0,0,1.521-2.49c.842-3.192-.733-4.4-2.212-6.083-2.52-2.856-5.923-5.422-7.466-8.712-2.041-4.345-3.736-7.762-8.3-9.125.128-1.7-1.241-2.233-2.847-2.517-.319-.181-.588-.371-.987-.644a10.014,10.014,0,0,1-2.153-2.042c-.044-.592-.08-1.175-.1-1.745a8.828,8.828,0,0,0,.483.748c.14.443.3.872.455,1.3-.038-.3-.1-.6-.158-.91.151.193.306.38.472.562.442.391.646.624,1.116.975-.453-.374-.646-.616-1.068-1.023-.2-.242-.39-.5-.57-.754q-.072-.326-.151-.659a7.358,7.358,0,0,0,.865,1.079c.094.164.183.327.265.485-.044-.11-.076-.22-.116-.33.021.021.04.043.063.064a10.082,10.082,0,0,0,4.021,2.264c.586.163.88.243,1.466.4l-1.437-.485a10.036,10.036,0,0,1-3.83-2.407c-.2-.215-.379-.442-.554-.676-.064-.229-.13-.456-.181-.686.161.2.325.36.527.615-.211-.288-.377-.461-.543-.689-.025-.115-.045-.232-.068-.346a9.01,9.01,0,0,0,1.069,1.312c.4.316.573.507.992.79-.4-.307-.566-.506-.944-.838a8.568,8.568,0,0,1-1.206-1.726c-.047-.287-.084-.571-.115-.854a6.417,6.417,0,0,0,2.081,2.8,5.62,5.62,0,0,0,1.086.707,5.505,5.505,0,0,1-1.042-.759,6.571,6.571,0,0,1-2.034-3.147c-.071-.224-.127-.414-.175-.593-.008-.14-.01-.277-.017-.415a4.792,4.792,0,0,0,.211.594,7.191,7.191,0,0,0,.267.829,3.1,3.1,0,0,1-.149-.513,2.64,2.64,0,0,0,.372.77,4.324,4.324,0,0,0,.628.942,4.587,4.587,0,0,1-.574-.967,8.024,8.024,0,0,1-.75-2.377c-.009-.088-.017-.165-.027-.237,0-.14,0-.284,0-.424a9.649,9.649,0,0,0,.543,2.139,3.586,3.586,0,0,0,.454.98,3.726,3.726,0,0,1-.406-1,12.587,12.587,0,0,1-.57-3.308c0-.184.007-.372.009-.557a17.734,17.734,0,0,0,.491,2.491,7.553,7.553,0,0,0,.871,2.434,3.594,3.594,0,0,0,.594.836,3.617,3.617,0,0,1-.546-.863,4.982,4.982,0,0,1-.471-1.163c.086.193.115.3.211.479a5.878,5.878,0,0,0,1.1,1.4,6.128,6.128,0,0,0,1.9,1.383c.423.2.679.254,1.121.431-.432-.2-.681-.272-1.087-.492-.314-.2-.471-.3-.79-.485.239.1.415.176.7.3a7.2,7.2,0,0,1-.856-.484c-.157-.122-.234-.182-.394-.3a4.783,4.783,0,0,1-.946-1.2,11.809,11.809,0,0,1-1.1-5.162c.107.664.159.995.267,1.657a2.917,2.917,0,0,0,.111.475,7.264,7.264,0,0,0,1.012,2.74,2.734,2.734,0,0,0,.539.673,2.871,2.871,0,0,1-.492-.7c-.119-.254-.222-.375-.324-.618a2.363,2.363,0,0,0,.148.22,7.86,7.86,0,0,0,.494.681c-.2-.25-.253-.425-.443-.7a6.939,6.939,0,0,1-.685-1.951l-.08-.424c-.276-2.264-.444-4.733-.571-7.178h.027c-.052-.812-.079-1.221-.132-2.049.216,2.319.428,4.593.732,6.817a23.6,23.6,0,0,0,.652,3.4c.155.344.367.836.365.837s-.183-.5-.319-.848a25.588,25.588,0,0,1-.532-3.4c-.238-2.176-.394-4.4-.554-6.672a67.875,67.875,0,0,0,1.49,9.656,4.035,4.035,0,0,0,1.19,1.949c.205.14.234.259.492.348-.242-.106-.259-.232-.449-.381a4.119,4.119,0,0,1-1.044-1.951c-.788-3.46-.982-7.792-1.568-12.372a35.086,35.086,0,0,0-1.485-5.082c-.046-.33-.1-.66-.181-.991-.088-.369-.09-.741-.17-1.11-.111-.494-.277-1-.4-1.493a8.018,8.018,0,0,0-2.022-3.784,20.353,20.353,0,0,0-1.952-1.995c-.34-.277-.737-.553-1.143-.829a7.362,7.362,0,0,0-1.223-.794c-.138-.055-.307-.108-.484-.16a6.264,6.264,0,0,0-5.881-.811c.036.1.068.191.1.279a5.147,5.147,0,0,0-1.659-.289,8.091,8.091,0,0,0-1.931.138c-.605.188-.913.693-1.354,1.067-.188.158-.444.254-.614.4a6.812,6.812,0,0,0-.529.535,16.765,16.765,0,0,0-1.587,1.316,33.143,33.143,0,0,0-5.269,6.2,83.47,83.47,0,0,0-4.512,7.437c-.416.714-.833,1.41-1.27,2.029-.17.263-.444.6-.443.6s.289-.33.47-.586c.465-.6.9-1.292,1.344-1.995.79-1.288,1.65-2.858,2.556-4.207-1.131,1.831-2.061,3.852-3.032,5.482a17.645,17.645,0,0,1-1.282,1.918c-.186.217-.268.348-.456.548.2-.19.289-.316.484-.53a16.671,16.671,0,0,0,1.365-1.877c.137-.223.213-.324.348-.556a20.605,20.605,0,0,1-1.631,2.6,7.539,7.539,0,0,1-1.584,1.617,2.866,2.866,0,0,1-.554.356,2.707,2.707,0,0,0,.583-.32,7.275,7.275,0,0,0,1.687-1.56,25.648,25.648,0,0,0,2.593-4.055c-.134.27-.2.406-.332.676-.216.4-.325.584-.541.973a21.956,21.956,0,0,1-1.357,2.1c-.188.265-.492.611-.489.616s.318-.34.517-.6c.372-.467.548-.719.9-1.232-.325.563-.659,1.108-1.019,1.608-.183.238-.264.377-.455.6.2-.217.289-.35.484-.581a18.055,18.055,0,0,0,1.325-1.988c.43-.721.831-1.489,1.242-2.269.2-.356.3-.53.5-.893l.067.031c-.711,1.4-1.371,2.754-2.132,3.987a13.459,13.459,0,0,1-1.43,1.977,5.964,5.964,0,0,1-.529.556,5.485,5.485,0,0,0,.556-.533,13.263,13.263,0,0,0,1.511-1.937c.149-.232.23-.336.374-.577a16.174,16.174,0,0,1-1.817,2.693,6.7,6.7,0,0,1-1.916,1.605c-.278.155-.432.187-.711.324.288-.117.445-.143.735-.28a6.661,6.661,0,0,0,2.02-1.544,17.388,17.388,0,0,0,2.334-3.335l-.117.245c-.317.563-.488.831-.824,1.369a14.059,14.059,0,0,1-1.544,1.961c-.223.235-.351.324-.58.541.241-.2.378-.287.612-.513a11.815,11.815,0,0,0,1.371-1.551,12.182,12.182,0,0,1-.98,1.383,6.015,6.015,0,0,1-.543.618,5.8,5.8,0,0,0,.57-.6,6.142,6.142,0,0,0,.475-.577l-.186.283c-.187.265-.289.386-.482.646.2-.251.313-.368.512-.624a17.259,17.259,0,0,0,.991-1.5l.185-.3c.227-.366.333-.554.544-.937.459-.731.884-1.5,1.309-2.27-.188.43-.283.638-.473,1.062a24.287,24.287,0,0,1-2.213,3.788,8.936,8.936,0,0,1-1.733,1.834,3.735,3.735,0,0,1-.672.47,3.734,3.734,0,0,0,.7-.433,8.794,8.794,0,0,0,1.839-1.772l.048-.057-.009.014.016-.023c.153-.192.239-.283.38-.488a10.7,10.7,0,0,1-2.212,2.566,6.235,6.235,0,0,1-2.532,1.243c-.374.062-.565.078-.943.133.381-.028.573-.032.958-.071a6.267,6.267,0,0,0,2.651-1.133,8.339,8.339,0,0,0,1.308-1.171c-.1.173-.2.353-.294.527-.168.189-.284.328-.491.544.182-.175.3-.3.433-.44-.058.1-.115.207-.171.311-.152.152-.312.3-.478.442a4.709,4.709,0,0,1-.735.564,4.553,4.553,0,0,0,.765-.527c.118-.093.229-.193.343-.293-.067.122-.135.238-.2.361-.042.069-.078.133-.119.2-.1.085-.2.173-.308.254-.352.222-.509.358-.878.552.378-.178.543-.307.906-.515.068-.047.13-.1.2-.152-.276.472-.542.922-.812,1.385a2.784,2.784,0,0,1-.156.247,5.479,5.479,0,0,1-1.109.447,5.169,5.169,0,0,0,1.058-.373c-.09.128-.166.227-.163.229s.085-.108.183-.238c.033-.014.057-.026.092-.041a3.782,3.782,0,0,0,.414-.2c-.018.031-.033.062-.052.094-.048.028-.1.058-.153.087.056-.027.1-.055.151-.082-.183.309-.374.614-.581.908-.149.222-.223.334-.369.556.158-.217.236-.324.394-.542.243-.316.464-.648.677-.986.045-.026.084-.054.124-.081a13.174,13.174,0,0,1-.728,1.2,15.428,15.428,0,0,1-1.28,1.837c-.179.24-.271.356-.449.594.193-.226.289-.342.481-.572a26.253,26.253,0,0,0,2.352-3.319l.085-.056a11.1,11.1,0,0,1-.774,1.28l-.391.589.416-.575a9.232,9.232,0,0,0,.717-1.092,13.3,13.3,0,0,1-.806,1.427c-.142.234-.213.348-.353.581l.378-.565a15.777,15.777,0,0,0,1.05-1.752c.02-.033.04-.072.06-.108.071-.057.135-.116.227-.2l.041-.033c-.19.364-.38.721-.566,1.066-.332.629-.752,1.211-1.122,1.818a5.243,5.243,0,0,1-.4.588,5.076,5.076,0,0,0,.424-.573c.391-.592.835-1.163,1.189-1.785.116-.2.173-.3.287-.5a27.042,27.042,0,0,1-1.4,2.429c-.425.678-.935,1.294-1.394,1.947-.188.259-.31.362-.516.6a7.973,7.973,0,0,0,.547-.581c.488-.629,1.027-1.232,1.478-1.9a26.513,26.513,0,0,0,1.809-2.964l-.092.206c-.254.47-.38.7-.633,1.172l-1.186,1.817c-.163.237-.264.344-.437.574.188-.221.294-.324.468-.555l1.046-1.464-.741,1.26a5.617,5.617,0,0,1-.384.616,5.49,5.49,0,0,0,.41-.6l.348-.548-.138.257c-.134.247-.2.371-.331.618l.357-.6.771-1.321.137-.259c.131-.253.212-.406.323-.614-.176.449-.356.895-.532,1.342-.135.231-.272.465-.421.689a15.44,15.44,0,0,1-1.218,1.824l-.432.592c.185-.227.279-.342.463-.57a15.414,15.414,0,0,0,1.306-1.776l.005-.009c-.033.085-.068.169-.1.254a18.005,18.005,0,0,1-1.111,1.708,17.072,17.072,0,0,1-1.522,1.947c-.212.254-.318.38-.533.634.229-.241.343-.36.571-.6a16.424,16.424,0,0,0,1.63-1.875c.177-.216.339-.44.505-.663-.159.4-.324.784-.486,1.174-.041.066-.087.134-.141.217.045-.06.084-.112.121-.163-.408.973-.823,1.936-1.267,2.857-.449.979-.8,1.74-1.237,2.49a6.116,6.116,0,0,1-.426.706,5.557,5.557,0,0,0,.458-.69,26.079,26.079,0,0,0,1.324-2.46c.443-.869.866-1.766,1.28-2.677.04-.054.084-.112.132-.178.029-.042.062-.08.092-.122-.607,1.526-1.24,3-1.929,4.542a17.469,17.469,0,0,1-1.228,2.253,4.206,4.206,0,0,1-.455.623,4.009,4.009,0,0,0,.49-.6,17,17,0,0,0,1.325-2.22c.133-.269.2-.4.332-.675a20.421,20.421,0,0,1-1.545,3.072,8.373,8.373,0,0,1-1.669,1.918c-.27.2-.4.307-.666.517.277-.193.417-.289.7-.479a8.285,8.285,0,0,0,1.794-1.861,27.941,27.941,0,0,0,2.495-4.854c-.122.314-.181.471-.3.784-.194.459-.336.786-.528,1.2a18.939,18.939,0,0,1-1.3,2.491,7.984,7.984,0,0,1-.479.726,7.381,7.381,0,0,0,.51-.708,13.512,13.512,0,0,0,.879-1.459,16.749,16.749,0,0,1-.967,1.89,5.018,5.018,0,0,1-.456.69,4.6,4.6,0,0,0,.491-.669,18.608,18.608,0,0,0,1.276-2.35c.394-.868.812-1.858,1.177-2.723.188-.408.281-.614.47-1.024l.08.027c-.638,1.542-1.282,3.258-2,4.714a11.676,11.676,0,0,1-1.407,2.322,3.549,3.549,0,0,1-.555.652,3.557,3.557,0,0,0,.589-.629,11.548,11.548,0,0,0,1.5-2.285c.144-.274.219-.407.361-.685a14.943,14.943,0,0,1-1.772,3.167c-.036.051-.078.093-.114.142a3.607,3.607,0,0,0-.556.64,11.348,11.348,0,0,1-1.448,1.246c-.346.212-.519.321-.862.538.354-.2.534-.3.895-.495a12.156,12.156,0,0,0,1.139-.843c-.191.336-.381.732-.625,1.236-.134.274-.263.565-.39.865a12.521,12.521,0,0,1-1.28.752l-1,.52c.412-.182.619-.272,1.033-.457a12.3,12.3,0,0,0,1.155-.587,18.6,18.6,0,0,0-1.453,8.034c.083,1.234.5,2.462.552,3.734a27.1,27.1,0,0,1-1.1,6.635c-1.013,4.424-1.7,8.6-2.629,13.135a56.5,56.5,0,0,0-1.382,6.5c-.538,6.9-.039,14.224.277,21.014.153,3.268.748,6.4.554,9.262-.134,1.934-.365,4.141-.554,5.807a26.318,26.318,0,0,0-.552,4.424,23.821,23.821,0,0,0,1.106,6.635,18.321,18.321,0,0,0,1.381,3.321c.368.563.543,1.094.97.83,1.824-1.136-.931-3.894-.416-5.394a21.718,21.718,0,0,0,4.979,5.253,3.961,3.961,0,0,0-.969-4.838c-.187-2.407-2.018-4.357-1.937-6.776.036-1.023.457-1.988.553-3.041.61.45.534,1.587,1.244,1.937,1.068-.185,2.117-.532,2.212-1.384.071-.634-.668-1.039-1.1-1.8a8.561,8.561,0,0,1-.969-2.213c-.094-.628.228-1.546.139-2.075-.189-1.09-1.294-2.229-1.383-3.318-.166-2.039.6-4.454.968-6.774,1.032-6.554,2.569-13.481,3.733-19.633.513,5.9.357,12.431.829,18.11a28.326,28.326,0,0,0,.277,3.734c.233.76,1.113.962,1.244,1.658a8.291,8.291,0,0,1-.277,1.523,46.059,46.059,0,0,0,.277,13c.373,1.864,1.246,3.734,1.66,5.666,2.621,12.266,8.328,21.446,12.994,31.665.846,1.847,1.84,3.937,1.936,5.529.318,5.173-2.872,10.673-3.986,15.688-.488,2.2-.475,4.454-.949,6.647-.408,1.877-1.9,2.594-2.036,4.662a53.561,53.561,0,0,1-2.084,10.771,67.028,67.028,0,0,0-2.42,14.216,14.174,14.174,0,0,0,.83,6.635c.194.4.937.83.969,1.246.22,2.151-.074,5.127.137,7.328.1,1.013.563,1.431.692,2.074.273,1.382-.16,2.606.692,3.318.928.773,4.343.659,6.22.553,2.607-.15,5.734-.587,6.638-1.659.152-.18-.011-.873.415-.691-.134-.689-.06-1.291-.139-1.937-.063-.521-.377-1.048-.414-1.521-.034-.432.232-.9.138-1.382a21.327,21.327,0,0,0-1.52-3.456,18.183,18.183,0,0,1-1.106-3.873,18.742,18.742,0,0,0,4.563-.55c1.064-.247,3.056-.64,3.317-1.8.344-1.522-.366-3.754-.252-5.377.124-1.762.362-3.512.528-5.268,1.531,5.791,3.359,11.886,3.32,18.8,2.3,1.25,6.183.913,9.4,1.247-.145,1.265-.738,2.536-.831,3.868a20.979,20.979,0,0,0,0,4.839c.294,1.22,1.394,1.437,2.213,2.214.448.423.569,1.036.83,1.247,1.537,1.238,4.82,1.77,7.742,1.935s6.272.128,8.158-.969c-.253-.275.23-.378.277-.551C337.249,690.745,336.484,689,336.333,688.246ZM275.31,489.576c.2-.271.4-.547.581-.843-.133.247-.265.492-.4.733C275.426,489.5,275.368,489.539,275.31,489.576Zm.467-.281c-.025.015-.045.029-.07.042q.288-.515.545-1.053l.07-.145a.293.293,0,0,0,.069.275l.011,0a.738.738,0,0,1,.2-.453,1.226,1.226,0,0,1-.007.148q-.234.51-.5.994C275.993,489.168,275.887,489.232,275.777,489.295Zm.61-1.286c.014-.029.024-.051.039-.083.06-.121.11-.223.156-.318.012.005.021,0,.033.014A1.174,1.174,0,0,1,276.386,488.009Zm.082,41.241a29.612,29.612,0,0,1,.138-4.561C276.75,525.85,277.012,528.319,276.469,529.25Zm.31-42.661c-.284.685-.466.99-.782,1.634a13.587,13.587,0,0,1-.925,1.505l-.14.092a17.476,17.476,0,0,0,1.95-3.525Zm.524-5c-.068.1-.135.2-.2.3l-.038.057c.129-.289.254-.582.382-.875l.129-.179C277.483,481.125,277.394,481.36,277.3,481.591Zm.387-1c-.033.055-.07.105-.1.16.054-.128.113-.253.167-.38l.07-.126C277.779,480.359,277.735,480.473,277.69,480.589Zm.244-.633a.108.108,0,0,1-.01.018c.007-.015.016-.033.022-.05C277.942,479.936,277.937,479.945,277.934,479.956Zm1.48-6.727c.035-.044.074-.088.108-.134-.153.249-.277.431-.406.609C279.215,473.544,279.316,473.388,279.414,473.229Zm-.491.8c.129-.159.258-.32.378-.485-.089.164-.177.324-.265.487q-.189.239-.391.467C278.737,474.343,278.829,474.183,278.923,474.028Zm-.481.812c.116-.11.23-.224.34-.339-.105.2-.21.39-.312.582-.128.127-.257.252-.393.373C278.2,475.245,278.32,475.046,278.442,474.84Zm-1.581,2.54-.014.006a2.378,2.378,0,0,0,.149-.221c.321-.509.64-1.006.971-1.535.126-.1.251-.2.371-.3-.222.417-.44.82-.649,1.191-.1.2-.217.394-.328.589C277.2,477.2,277.033,477.3,276.861,477.38Zm.646-.241-.132.1c.017-.028.031-.056.05-.083.037-.021.071-.041.11-.064C277.525,477.105,277.516,477.121,277.506,477.14Zm.1-.187c-.036.021-.069.045-.105.068.092-.152.188-.3.277-.456l.281-.465C277.91,476.384,277.761,476.668,277.609,476.952Zm.475-.335c-.031.023-.056.046-.086.067.317-.556.627-1.133.986-1.762-.116.235-.173.354-.288.588-.187.355-.272.5-.449.815C278.191,476.423,278.136,476.521,278.084,476.617Zm.87-1.046c-.033.032-.062.063-.1.1l.092-.088c-.1.193-.2.384-.3.571-.082.073-.168.144-.253.215.267-.483.541-.991.821-1.532.015-.026.027-.046.04-.071.084-.1.169-.2.27-.328.005-.006.009-.013.014-.019Q279.245,475.006,278.954,475.571Zm.7-1.377c-.051.064-.1.133-.163.217s-.109.151-.158.215c.1-.178.181-.318.306-.54l.039.018c-.007.01-.011.014-.016.021a.166.166,0,0,1,.016-.019l.016.008C279.682,474.141,279.669,474.167,279.657,474.195Zm30.735,10.134c.008.03.023.06.032.09a7.414,7.414,0,0,1-.4-.876c-.025-.141-.045-.283-.066-.423a7.148,7.148,0,0,0,.341.689A3.551,3.551,0,0,0,310.392,484.328Zm-.332-2.52a3.662,3.662,0,0,1,.112.546c-.065-.2-.11-.364-.145-.52C310.04,481.828,310.043,481.813,310.059,481.808Zm-.116.627a6.1,6.1,0,0,0,.309.867c.007.09.012.178.021.266a9.624,9.624,0,0,1-.371-.937c-.007-.073-.016-.146-.02-.22,0-.058-.007-.135-.007-.214C309.9,482.276,309.916,482.357,309.943,482.435Zm-.183,1.58c.074.153.152.3.234.451a6.707,6.707,0,0,0,.152.706c-.151-.256-.286-.515-.409-.78A.8.8,0,0,1,309.76,484.015Zm.148,2.858a10.045,10.045,0,0,0,2.091,1.81c.383.24.648.412.947.57-.973-.168-2.021-.253-2.873-.452C310.015,488.158,309.958,487.514,309.908,486.873Zm2.506,35.051c.11-.443.426-.924.553-1.383,1.055-3.788,1.062-9.881,1.8-13.963,3.1,2.426,5.139,5.921,8.987,7.6-3.722,4.94-7.125,10.2-10.506,15.484C312.522,527.277,311.647,525.067,312.414,521.924Z" transform="translate(-266.089 -440.271)"/><g transform="translate(190.3 11.814)"><path class="a" d="M1104.131,565.775c.409-2.558,5.673-17.3,3.681-19.075-1.724-1.537,2.447-8.259,3.274-9.695,2.238-3.891-1.008-6.811-3.264-10.591-3.94-6.607-4.06-12.442-5.078-20.068-.973-7.286-7.607-16.723.935-22.183,2.681-1.714,5.813-.711,8.363-2.138,2.644-1.479,3.368-2.419,6.4-3.2,2.65-2.814,1.694-6.777.705-10.513a2.144,2.144,0,0,1-.546-.019c-1.384-.242-2.306-1.077-3.616-.953-.314-.509-.1-1.3-.627-1.7-.67-.167-.7.849-1.268.88-1.724-1.154-.209-3.134.778-4.3a4.776,4.776,0,0,1-1.618-1.742c-.621.129-.156,1.034-.482,1.617-.512-.045-.479-.388-.856-.508-.783.161-.153,1.4-.633,1.7-.86-.536-.543-1.71-.28-2.852.248-.137.706.11,1.074.194.234-.45,0-.646.2-1.074a2.481,2.481,0,0,0,.794-.139c-.083-1.147-1.407-.083-2.125-.888-.437-.031-.416.785-.852.752-.874-.466.2-1.662.586-1.964.606.2.9.482,1.5.449-.234-.624-1.336-1.157-.521-2.044a3.005,3.005,0,0,0,.993.045c.19-.367.172-1.117.5-1.236-.559-.626-1.253-1.491-2.243-.92a1.628,1.628,0,0,1-.867-.888c-1.283.661-2.634-.789-2.393-2.1.652.2.842.643,1.211.991.537-.086.7-.864,1.272-.879.429.286.794.634,1.189.23-.231-.965-1.284-2.107-.177-3.2.586.168.64.623.383,1.246.813-.111,1.2-1,2.309-.569.208-.951-1.92-.641-1.8-1.544.323-.539,1.1-.241,1.466-.694.2-.43-.037-.627.2-1.074.384-.181.794.216,1.154.344.128-.36.214-.7.01-.878.441-.679,1.364-.462,1.835-1.088.291.068.46.2.51.4.34-.027.376-.616.945-.22-.822-.955-3.383.447-3.408-1.647.383-.185.9-.126,1.086-.683a.915.915,0,0,1,.739.472c.34-.148.417-.784.773-.9.309.188.61.38.669.7.25.043.184-.5.4-.509.212.08.366.191.4.369a2.792,2.792,0,0,0,.922-.984c.353.1.377.379.588.556.218.045.188-.371.37-.395.524.282,1.073.637,1.572.218.352.1.375.378.589.553.477-.135.734-.677.992-1.213.823.7.884-.33,1.675-.131a3.362,3.362,0,0,1,.67-1.812c.77.227.109,1.232.208,1.824.659-.575.954-1.822,2.252-1.216.191,1.134.407,1.808,1.56,1.095.049.361.491.511.635.818a1.985,1.985,0,0,0,.484-.358c.389.209.386.631.451,1.015.37-.035.542-.432.9-.485.154.208.383.374.289.717.4-.112,1.146-.117.971.54.508.043.821-.275,1.328-.232.467.3.41.878,1.063,1.073.081.338.146.538-.125.842.354.294,1.061.4,1.133.842.835.128,1.594-.406,2.182.275.376-.082.569-.5.935-.6.292.068.3.289.51.4.61-.122.955-.74,1.372-1.225.626.6.7-.214,1.132-.419,1.006.234-.045,1.575.069,2.287a1.031,1.031,0,0,0-1.65.893c-1.006-.824-1.6.622-2.354.3,1.421.9,2.552,1.639,3.917.792.377.151.344.525.372.866,1.192.5,2.872-.442,3.453.654-.434.869-1.448.665-2.018,1.284-.04.538.418.807.2,1.443A1.974,1.974,0,0,1,1146.2,453a2.4,2.4,0,0,0,1.144-1.294l.577.172c-.119,1.324-.985,2.682-2.492,2.025-.776.517-.383,2.075-1.812,1.85-.045.891-.594,1.132-.2,1.953.959.327,2.38-.394,2.575.643-.675,1.085-2.369.28-3.454.6.089.308.561.408.672.7-.109.4-.207.817-.508.855.144.343.593.521.3,1.1a1.531,1.531,0,0,0-1.375-.033c.231.3.683.471.6.934-.577.912-1.705.579-2.633-.031a.607.607,0,0,0-.45.244c-.137.655.924.663.73,1.349.54.1.826-.265,1.409-.082a1.278,1.278,0,0,1-.184,1.455c.178.227.563.342.556.669-.088.674-.527.7-.808,1.017.276.723.831,1.3.72,2.228-2.139.021-2.805-2.744-4.425-1.2-.516-.142-.222-.719-.6-.934a2.329,2.329,0,0,1-.8-.078,18.3,18.3,0,0,1-1.009,1.74,2.625,2.625,0,0,1,.536,2.613,2.057,2.057,0,0,1-1.554-.241,11.382,11.382,0,0,0,.307,5.522c1.621-.235,4.429-.475,6.114.291.59.27.826.966,1.454,1.165,3.66,1.164,6.932-1.2,10.637.918a10.481,10.481,0,0,1,4.935,8.1c.524,4.958-1.494,9.9-1.239,14.936.221,4.384.842,8.753.657,13.153-.29,6.9-3.547,15.719-6.549,21.829,3.542,5.862,1.977,11.238,2.787,16.416,1.334,8.5,2.984,16.853,3.557,25.456.317,4.716-.519,4.814-2.27,7.1-2.211,2.878-2.717,5.853-3.521,9.92-1.595,8.047-4.084,16.628-4.544,24.821-.356,6.4,4.026,12.747,3.556,19.764a209.979,209.979,0,0,1-4.04,27.686c-1.5,7.346,1.292,14.415,3.6,21.21,1.715,5.063,2.737,6.774-4.165,8.046-4.317.793-11.465-1.381-6.954-7.115,2.8-3.566-.809-9.73.406-13.428,2-6.12-1.092-16.411-2.355-22.668-1.66-8.232-3.461-16.005-1.55-24.391,1.626-7.124-1.5-15.485-1.19-23.048a94.2,94.2,0,0,0-.427-13.441c-.641-6.307-.847-5.66-6.178-8.154-2.848,8.458-1.584,17.854-1.933,26.609-.166,4.176-2.377,9.482-1.365,13.451,1.019,3.99,2.037,7.571,2.052,11.764.033,9.793-2.777,19.736-4.251,29.39-.6,3.942-.171,6.819.244,10.691.227,2.086,2.2,7.042,1.179,8.95,1.231,2.311,3.205,3.292,3.541,5.976a2.837,2.837,0,0,0-.12,3.183c1.806,2.846-7.383.158-7.932.009-5.734-1.554-9.85-4.257-7.905-10.057,2.231-6.657,4.833-10.434,3.3-18.371-1.522-7.879-2.472-16.051-3.489-24.013-1.044-8.151,2.6-15.855,1.693-23.525-1.122-9.467-2.725-18.867-4.353-28.255-.512-2.972.267-6.7-3.185-7.343q-3.747.3-1.679-3.916C1102.892,575.174,1103.382,570.455,1104.131,565.775Zm17.953,118.106c.168.576.168-.578,0,0Z" transform="translate(-1099.371 -438.29)"/></g><g transform="translate(130.474 1.099)"><path class="a" d="M1019.491,696.146c6.414,1.515,16.514,1.9,22.73-.49,3.469-1.337,4.214-1.151,8.112-1.207,2.756-.039,7.718-.13,7.72-3.371,0-4.023-.488-7.532-.294-11.577.2-4.234-.99-8.356-1.749-12.572-2.849-15.87-2.668-32.033-5.429-47.844-1.343-7.69,1.014-15.517,2.119-23.215,1.021-7.121,2.438-14.2,3.031-21.381.744,4.853.122,9.806.363,14.685.229,4.573,1.807,8.885,2.635,13.368,1.6,8.613,1.8,17.737,2.387,26.471.669,9.926,1.048,20.032,1.025,29.979-.009,4.614-.776,9.1-.995,13.676-.17,3.54,3.3,5.39,2.966,8.917,3.876.154,3.2.145,3.257,4.475.027,2.132,1.5,3.333,1.262,5.376-.448,3.918,6.3,3.454,8.659,3.359,1.777-.071,9.359-.341,8.1-3.8-.734-2.013.369-3.4-1.056-5.311-1.287-1.729-3.457-2.9-4.4-4.885.324-.611,1.474,1.086,2.262.369.718-2.191-.145-4.357.152-6.575.271-2.041,2.157-3.456,2.127-5.555-.034-2.21-1.9-4.725-2.383-6.9-2.515-11.5.954-23.365.124-34.972-1.646-22.968-2.782-45.774-4-68.8-.254-4.781-1.568-11.015-.679-15.724.657-3.477,6.809-7.806,9.09-10.546,7.711-9.285,7.627-14.395,5.65-25.927-1.458-8.5-3-15.475-2.983-24.306.025-10.645-10.431-14.186-18.105-18.378-.911-.5-1.2-1.336-2.226-1.9-.009-.137-.018-.277-.033-.408.816.205,1.031.944,1.935,1.074.3-1.121-1.1-1.427-1.244-2.423.458.017,2.175,1.014,2.6.072-.033-.518-.995-.212-1.455-.349a3.649,3.649,0,0,1-1-.67,2.734,2.734,0,0,1-.144-1.923c.915.349,1.385,1.839,2.52,1.459-.612-.887-1.628-2.075-.909-3.62.331-.019.6.262.865.052.307-.643-.234-1.2-.236-1.841.2-.17.723.366.96-.029-.043-.672-.592-.9-.6-1.6.211-.316.641-.387.665-.916.5.266.348,1.115,1.059,1.2.427-1.3-1-2.326-.987-3.8.094-.231.263.139.521.032a9.968,9.968,0,0,0,.3-4.939c.184-.179.617.2.789-.125-.036-.869-.778-1.114-1.02-1.8-.071-.33.231-.233.207-.509-.2-.592-.812-.811-.771-1.612-.061-.378.434-.126.461-.407.08-.646-.408-.788-.441-1.331.158-.158.6,0,.627-.31,0-.821-.691-1.026-1.129-1.46-3.921-4.807-6.367-10.92-13.286-13.074a13.459,13.459,0,0,1-2.162-.218c-.171.116-.047.566-.216.682a7.869,7.869,0,0,0-2.2-1,9.415,9.415,0,0,1-2.741.7,14.275,14.275,0,0,1-4.766,2.579c-.022.155.095.188.066.352.4.287.8-.116,1.305-.007-.568.871-1.867.916-2.781,1.395a4.58,4.58,0,0,1-1.272.879c-.484.533-.975,1.056-1.485,1.561-.039,1.409-1.086,2.24-.576,3.706-.256,1.251-1.95.881-2.378,1.941.439.3.908-.057,1.31-.1.129.314-.147.854-.246,1.2.745,1.444-.561,2.027-1.128,2.8.172.284.77.194,1.2.247.016.469-.84.706-.95,1.335.713,1.636-.375,3.133-1.206,4.1-.427.291-1.1.309-1.274.878.8.973,2.083-.158,2.568-.712-.241,1.177-1.141,1.612-1.631,2.508.2.068.119.388.5.292a2.674,2.674,0,0,1-.237,1.03c.082,1.339-.438,2.7.588,3.166.073-1.514-.115-3.811,1.062-4.543.522.509-.66,1.832-.321,2.415.827-.054.993-.854,1.389-1.392.237,1.192-.36,2.246-.3,3.546.241.68.1,2.069,1.108,1.807a8.8,8.8,0,0,1-.052-2c1.929,1.09-.338,4.221-.014,5.911,1-.076,1.065-1.2,1.833-1.541-.067.764-.691,1.962-.45,3.1-.123.509-.73.471-.845.992.068.35.595.295,1.025.324.148.143.039.511.315.54a3.278,3.278,0,0,0,1.393-.846c.074.158.146.318.231.468-2.224,3.031-6.528,3.567-9.82,5.457-10.051,5.769-9.247,20.035-8.2,30.192.543,5.277.235,10.782,1.6,15.948,1.466,5.535.207,10.023.332,15.613.237,10.621,1.547,19.5-.028,30.693-1.445,10.293-2.276,20.525-3.416,30.917-.588,5.358,1.637,9.014,2.265,14.046.657,5.271-.848,10.616-.533,16.021a127.134,127.134,0,0,0,1.83,16.926c1.016,5.267,3.011,11.237,1.1,16.49-1.939,5.328.836,8.817,3.223,13.123,2.241,4.043-2.79,9.079.872,12.541.021,2.934,1.576,4.448-1.135,6.3a41.6,41.6,0,0,1-6.973,3.619c-2.767,1.2-7.492,2.05-6.956,6.052A3.592,3.592,0,0,0,1019.491,696.146Zm25.428-238.325a1.02,1.02,0,0,1-.316.125,3.833,3.833,0,0,1,.113-1.027Q1044.813,457.377,1044.919,457.821Zm.293,1.038c-.173.229-.362.481-.6.3.177-.081.362-.352.539-.493C1045.173,458.734,1045.193,458.8,1045.212,458.859Zm27.743-12.312c-.121.336-.08-.348,0,0Zm-.014-1.219c-.06.15.074.516-.118.515C1072.755,445.775,1072.628,445.229,1072.941,445.328Zm2.628,57.834c-.014,5.978,6.648,7.75,7.87,13.227.787,3.525-4.953,10.57-7.37,12.866a27.758,27.758,0,0,1-2.061-9.19C1073.579,515.493,1072.093,506.967,1075.569,503.161Z" transform="translate(-1019.491 -421.775)"/></g><g transform="translate(53.963)"><path class="a" d="M560.6,303.2c-1.2-1.836-3.916-1.951-4.871-3.911,4.889-3.349-1.16-17.628-1.521-22.374a27.7,27.7,0,0,0-1.9-8.545c-1.24-3.454-.458-7.873-.614-11.483-.348-8.059-2.074-16-2.657-24.051-1.2-16.658-3.058-33.069-5.031-49.647-.169-1.427-.761-2.98-.609-3.912.174-1.054,1.411-1.683,1.828-2.816a17.028,17.028,0,0,0,.609-2.66c.61-3.719.532-8.326,1.521-11.735.3-1.049,1.042-2.006,1.37-3.13.222-.76.118-1.485.3-2.191a23.824,23.824,0,0,1,1.675-3.442c2.17-4.8,4.449-9.8,4.567-16.272.1-5.4-3.282-8.221-4.414-13.3,1.779-1.342-.523-10.14-.609-12.361-.181-4.613.014-10.785-1.563-15.084a14.247,14.247,0,0,0-8.16-8.351c-4.159-1.632-8.985-.328-12.654-3.633.161-3.122,2.112-4.4,2.435-7.354,3.366.471,3.726-4.294,3.807-7.2a.676.676,0,0,0-.088-.24c-.238-.837.33-1.3.192-1.995.259.017.356-.194.577-.231.062-.418-.579-.3-.516-.719a1.164,1.164,0,0,0,1.023-.083c-.028-.39-.149-.658.134-.94a2.162,2.162,0,0,1-.4-1.021c.492-.033,1.134-.451.845-.991.232.074.242-.163.349-.265-.13-.574-.563-.919-.633-1.538.269.352.358.03.7.027.147-.368-.264-.31-.224-.6.358.051.428.322.8.363-.033-.3.349-.015.348-.267-.495-.854-1.7-1.164-1.762-2.35a6.549,6.549,0,0,1-1.677-1.855,1.6,1.6,0,0,1,.3-.435c-.224-.178-.56-.271-.53-.64.092-.247.391-.208.46-.49-.321-.408-1.172-.409-.995-1.193A6.762,6.762,0,0,0,532,54.3c-.11-.264-.379-.407-.616-.574.009-.914-1.092-.979-1.747-1.386-.351.044-.485.389-.775.521-.351-.5-.978-.788-1.2-1.383-.558.181-.707.583-1.516.248-.184-.527-.836-.365-1.086-.566-.223-.18-.191-.7-.682-.664a1.392,1.392,0,0,1-1.986.817c-.318.449-.878-.021-1.416.1-.161-.224-.291-.474-.7-.508-.341.436-.219,1.514-.911,1.461a2.591,2.591,0,0,0-.728-.351,7.591,7.591,0,0,0-.406.658.528.528,0,0,0-.522-.159c-.147.14-.135.5-.318.591-.271-.069-.351-.176-.61-.092a1.353,1.353,0,0,0,0,.56,2.179,2.179,0,0,1-.849-.051c-.137.562-.51.8-.725,1.25.08.241.307.369.466.55-.058.233,0,.622-.242.6s-.3-.188-.6-.17c.037.627-.658.759-.368,1.463-.366-.1-.386.277-.535.479l-.533-.08c-.147.2-.158.592-.276.837a5.89,5.89,0,0,1,.687,1.7,2.842,2.842,0,0,0-.751-.194c-.174.126-.091.366-.081.549a.486.486,0,0,0-.391.02.737.737,0,0,0,.323,1.009c-.507.359.072.733.158,1.064a.83.83,0,0,0-.45.411c.122.093.134.271.084.495a2.057,2.057,0,0,0-.719.129,2.806,2.806,0,0,1-.037.794c.194.226.528.342.607.654-.057.179-.122.4-.176.628a.987.987,0,0,0-.933.124c-.756,1.789-1.309,5.682,0,7.353.514.656.938.647,1.674,1.095a12.411,12.411,0,0,1-1.674,7.824c-3.728,1.384-6.632,4.329-10.35,5.32-4.07,1.083-7.881,1.3-11.256,4.228-3.682,3.19-3.609,6.743-3.965,11.263a117.626,117.626,0,0,1-1.826,15.491c-1.062,4.843-1.478,9.486-3.4,14.1a14.384,14.384,0,0,0,1.112,12.968c2.242,3.626,5.545,6.236,8.524,9.075.766.729,1.293,1.672,1.979,2.347.769.757,1.837,1.167,2.436,2.034,1.524,2.209,1.005,4.215.761,7.354-.342,4.413-.978,8.99-1.675,12.832-2.044,11.27-4.058,21.849-5.326,33.327-1.232,11.148-3.444,22.119-4.849,33.232-.628,4.981-.416,9.889-.688,14.878-.275,5.039,1.048,11.7-.288,16.451-1.826,6.465-1.1,13.121-4.068,19.461-.54,1.154-2.437,2.723-2.437,4.382,0,1.978,1.363,3.3,3.805,3.128a5.629,5.629,0,0,0,3.045,2.191c-.651,1.7.607,2.479.913,3.6.251.92.044,1.894.3,2.5.515,1.209,2.282,1.734,3.96,1.878,3.684.316,9.468-.58,12.786-.938.221-2.352.788-4.873.457-7.353,4.426.738,5.013-2.892,4.563-6.416-1.082-8.524-2.973-17.257-3.346-25.974-.288-6.688-.895-15.524,1.051-21.937,1.007-3.316,2.6-6.571,2.472-10.134a54.1,54.1,0,0,1,1.157-12.344c1.489-7.564,4.024-14.858,5.555-22.411,1.205-5.949.453-17.507,5.593-21.579,1.067,9.8,3.719,19.329,6.292,28.8,1.019,3.74,2.712,7.253,3.582,11.04a20.6,20.6,0,0,1,.254,5.744c-.107,2.5,1.2,4.291,1.44,6.674.384,3.841-.633,7.212.758,10.969,1.651,4.46,1.261,8.648,1.077,13.32-.395,9.927,2.018,19.691,1.057,29.694-.264,2.765-1.038,7.635-.3,9.545.967,2.52,4.995,2.314,8.066,1.877.167,2.278,1.214,3.952,3.2,3.912-.045,3.156,2.235,4.086,5.023,4.38,3.886.412,9.861-.6,12.331-1.251C561.412,306.97,561.678,304.859,560.6,303.2ZM496.215,149.236c-2.075-2.117-3.51-4.876-5.177-7.823a8.668,8.668,0,0,1-1.217-2.19c-.259-1.775.836-4.364,1.674-5.79,1.072-1.819,2.674-3.254,3.349-5.164.519-.669,2.133-1.035,2.169-2.023C497.831,133.526,498.962,143.414,496.215,149.236Zm44.14-7.2c-.164-4.855-.665-9.906-.76-14.863h.3c1.6,2.7,4.682,5.888,4.717,10.638.007.61-.242,1.2-.3,1.879-.469,5.162.447,11.642-1.521,15.177A45.389,45.389,0,0,1,540.355,142.039Z" transform="translate(-476.121 -50.491)"/></g></svg>