<svg xmlns="http://www.w3.org/2000/svg" width="1280" height="674.611" viewBox="0 0 1280 674.611"><defs><style>.a{fill:none;stroke:#e2e2e2;stroke-miterlimit:10;}.b{fill:#e2e2e2;}.c{fill:#ffbe55;}.d,.e{fill:#fff;}.e{opacity:0.67;}</style></defs><g transform="translate(-1.715 -16.96)"><g transform="translate(1.715 16.96)"><g transform="translate(943.637 67.299)"><path class="a" d="M818.705,315.316c-.018-27.3,4.445-63.524,29.274-81.865,29.5-21.789,63.618-.517,98.411-18.151,21.177-10.733,45.646-37.419,55.182-109.9" transform="translate(-818.705 -105.397)"/><g transform="translate(11.092 13.212)"><path class="b" d="M833.281,328.391c.357-13.774,1.823-27.637,5.756-40.955a86.007,86.007,0,0,1,8.171-19.121,59.325,59.325,0,0,1,13.481-15.89,55.355,55.355,0,0,1,8.727-5.8,51.418,51.418,0,0,1,9.734-3.9,72.951,72.951,0,0,1,20.675-2.525c6.933.014,13.812.563,20.662.925a143.879,143.879,0,0,0,20.477-.062,75.543,75.543,0,0,0,37.789-13.852l4.1-3.042c1.318-1.075,2.585-2.216,3.881-3.32.637-.565,1.307-1.094,1.917-1.688l1.811-1.806c1.2-1.215,2.44-2.383,3.6-3.634l3.37-3.854,1.683-1.93,1.558-2.035,3.116-4.069c.536-.666,1.011-1.377,1.484-2.09l1.432-2.128a221.577,221.577,0,0,0,19.4-36.162l3.937-9.508c1.264-3.189,2.386-6.435,3.587-9.649l1.772-4.835,1.59-4.9,3.182-9.8,1.3.39L1038.353,133l-1.557,4.928-1.74,4.868c-1.18,3.238-2.281,6.506-3.526,9.721l-3.882,9.59a222.715,222.715,0,0,1-19.457,36.511l-1.443,2.156c-.477.721-.955,1.442-1.5,2.119l-3.146,4.131-1.573,2.065-1.7,1.964-3.411,3.922c-1.173,1.275-2.435,2.469-3.649,3.708l-1.839,1.842c-.62.607-1.3,1.149-1.949,1.727-1.318,1.13-2.607,2.3-3.949,3.4l-4.178,3.121a81.986,81.986,0,0,1-18.383,9.781,73.911,73.911,0,0,1-20.337,4.526,145.947,145.947,0,0,1-20.759.009c-6.885-.383-13.73-.946-20.56-.979a71.111,71.111,0,0,0-20.156,2.4,49.568,49.568,0,0,0-9.4,3.736,53.649,53.649,0,0,0-8.442,5.582A57.567,57.567,0,0,0,848.7,269.208a84.769,84.769,0,0,0-8.061,18.716c-3.978,13.078-5.551,26.816-6.014,40.507Z" transform="translate(-833.281 -122.759)"/></g><g transform="translate(22.988 26.596)"><path class="b" d="M848.913,341.525a174.66,174.66,0,0,1,2.21-21.479,119.454,119.454,0,0,1,5.4-20.983,74.983,74.983,0,0,1,10.227-19.232,54.33,54.33,0,0,1,16.339-14.583,48.627,48.627,0,0,1,10.137-4.41,55.824,55.824,0,0,1,10.825-2.118,110.209,110.209,0,0,1,21.779.47c7.174.718,14.269,1.666,21.359,2.14a97.086,97.086,0,0,0,21.117-.6,79.017,79.017,0,0,0,10.3-2.217,85.38,85.38,0,0,0,9.925-3.565,97.389,97.389,0,0,0,18.318-10.531c11.452-8.35,21.3-18.788,30.116-29.962,4.4-5.605,8.528-11.434,12.451-17.4,3.885-5.994,7.561-12.126,11.091-18.347,7.047-12.452,13.358-25.323,19.312-38.361l1.008.438q-8.264,19.9-18.415,38.975-5.172,9.473-10.9,18.64c-3.874,6.075-7.959,12.024-12.338,17.764a153.181,153.181,0,0,1-30.495,30.758,100.529,100.529,0,0,1-18.869,10.962,82.764,82.764,0,0,1-21.012,6.106,100.283,100.283,0,0,1-21.82.527c-7.226-.517-14.356-1.505-21.453-2.247a107.381,107.381,0,0,0-21.174-.568,49.9,49.9,0,0,0-19.885,5.968,51.692,51.692,0,0,0-15.735,13.667,73.281,73.281,0,0,0-10.17,18.494c-5.163,13.25-7.4,27.526-8.545,41.761Z" transform="translate(-848.913 -140.346)"/></g><g transform="translate(35.305 40.223)"><path class="b" d="M865.1,354.783c.251-3.754.6-7.5,1.062-11.247s1.1-7.464,1.864-11.165a104.288,104.288,0,0,1,6.84-21.662,64.969,64.969,0,0,1,12.738-19.04,48.862,48.862,0,0,1,19.582-12.287,51.693,51.693,0,0,1,11.443-2.309,72.166,72.166,0,0,1,11.578-.02c7.667.556,15.132,1.974,22.526,3.249a185.416,185.416,0,0,0,22.086,2.9,84.038,84.038,0,0,0,10.982-.1,83.015,83.015,0,0,0,10.839-1.619,86.2,86.2,0,0,0,10.563-3l2.583-.953c.861-.318,1.7-.7,2.549-1.046,1.709-.676,3.356-1.5,5.028-2.272a125.623,125.623,0,0,0,18.877-11.559c11.992-8.741,22.626-19.319,32.509-30.51a373.751,373.751,0,0,0,27.249-35.7c8.468-12.394,16.341-25.208,23.957-38.189q-10.088,20.2-22.08,39.416c-3.984,6.4-8.216,12.655-12.57,18.828l-3.329,4.586c-1.107,1.53-2.29,3.007-3.431,4.513s-2.3,3-3.5,4.461-2.364,2.955-3.583,4.4a222.386,222.386,0,0,1-15.392,16.736,174.644,174.644,0,0,1-17.254,14.934,125.519,125.519,0,0,1-19.484,12.089c-1.74.813-3.455,1.68-5.241,2.4-.889.367-1.763.768-2.664,1.106l-2.7,1.013a89.336,89.336,0,0,1-11.111,3.209,83.476,83.476,0,0,1-23.034,1.711,177.612,177.612,0,0,1-22.609-3.112c-7.4-1.387-14.731-2.879-22.073-3.513-7.321-.629-14.7-.365-21.636,1.735a46.407,46.407,0,0,0-18.565,11.027,62.835,62.835,0,0,0-12.812,17.872,105.852,105.852,0,0,0-7.629,20.992A182.215,182.215,0,0,0,865.1,354.783Z" transform="translate(-865.099 -158.253)"/></g></g><g transform="translate(0 458.94)"><path class="c" d="M72.994,731.844c-4.12-3.195-10.964-4.513-15.97-4.756-2.631-.128-2.955.411-4.252-1.5-1.2-1.773-1.238-5.994-1.681-8.127l-3.361-16.2a55.215,55.215,0,0,0,19.413-73.48c-2.138-3.907-5.556-7.974-10-7.728-3.327.184-5.991,2.776-8.02,5.419-6.431,8.378-9.8,18.833-10.816,29.347s.205,21.13,2.237,31.5A5.786,5.786,0,0,1,40.6,689.3a5.684,5.684,0,0,1-2.125,2.426C25.953,701.4,12.471,711.141,5.848,725.512a45.5,45.5,0,0,0-3.316,27.516c1.847,9.5,7.066,18.584,15.239,23.761,5.355,3.392,11.655,4.968,17.915,5.966,7.924,1.263,16.121,1.668,23.907-.27.9,4.737,1.657,9.5,2.246,14.287.464,3.776.934,7.622,1.106,11.448.056,1.223-.042,2.415-.042,3.631a16.365,16.365,0,0,1-2.566,7.066,17.689,17.689,0,0,1-2.05,2.627,25.211,25.211,0,0,1-8.3,5.605,19.732,19.732,0,0,1-6.932,1.656,17.206,17.206,0,0,1-3.592-.2l-.309-.052a15.213,15.213,0,1,0-20.538-6.294l-.088-.027c.215.413.47.772.7,1.16.094.148.172.3.272.448C27.449,836.391,44.876,835.7,44.876,835.7a22.366,22.366,0,0,0,6.412-.878A25.9,25.9,0,0,0,63.417,828a25.14,25.14,0,0,0,4-5.416,20.025,20.025,0,0,0,2.1-5.115,23.616,23.616,0,0,0,.154-7.606,173.83,173.83,0,0,0-2.816-17.519l-.824-4.123q-.737-3.684-1.473-7.366c-.025-.124-.049-.248-.075-.372,0,0,14.591-4.256,17.631-17.023C82.114,763.458,87.889,743.4,72.994,731.844ZM46.849,640.819c5.954-8.025,18.813-4.463,19.732,5.487,0,0,1.811,14.263-10.61,28.389-2.019,2.752-6.313,6.947-11.319,11.46l-1.494-7.092c-.107-.521-.179-1.845-.26-2.372-1.321-8.5-1.543-20.694-.741-25.416A23.434,23.434,0,0,1,46.849,640.819ZM22.756,771.408c-6.208-5.268-10.728-12.852-11.118-20.985-.448-9.342,4.441-18.137,10.3-25.428a91.744,91.744,0,0,1,21-19.111l4.086,17.689a5.88,5.88,0,0,1,.032,3.749c-.581,1.262-1.945,1.925-3.165,2.59-8.961,4.881-14.453,14.684-14.637,24.8-.069,3.818.505,7.772,2.539,11s5.758,5.587,9.553,5.178c-1.632.176-4.243-6.872-4.605-8.073a22.16,22.16,0,0,1-.578-10.394,15.579,15.579,0,0,1,14.342-13c2.682,12.086,5.793,26.439,8.318,39.022.012.062.024.123.037.185A38.715,38.715,0,0,1,22.756,771.408Zm40.749,4.958-1.048-5.5c-.025-.153-.024-.3-.056-.458l-6.564-31.155c4.176.222,15.864,2.259,18.894,17.911C74.732,757.162,77.333,768.937,63.505,776.365Z" transform="translate(-1.715 -620.046)"/></g><g transform="translate(946.51 419.897)"><path class="c" d="M819.031,778.851h0v-85.89a.7.7,0,0,0-.7-.7h-3.071a.7.7,0,0,0-.7.7v78.911c-4.539-2.257-11.474-1.848-18.008,1.55-9.077,4.72-13.917,13.388-10.811,19.362s12.982,6.99,22.059,2.27C815.384,791.115,819.066,784.407,819.031,778.851Z" transform="translate(-784.81 -692.265)"/></g><g transform="translate(1093.426 169.908)"><path class="c" d="M1015.54,254.737h0v64.974a.527.527,0,0,0,.527.527h2.323a.527.527,0,0,0,.527-.527V260.017c3.433,1.708,8.68,1.4,13.623-1.173,6.866-3.571,10.528-10.128,8.178-14.647s-9.821-5.287-16.687-1.718C1018.295,245.46,1015.517,250.534,1015.54,254.737Z" transform="translate(-1015.54 -240.234)"/></g><g transform="translate(898.804 165.554)"><path class="c" d="M917.874,234.852v.029l-28.808,5.869a.484.484,0,0,0-.387.474v36.31c-2.106-1.047-5.324-.857-8.356.719-4.212,2.19-6.458,6.212-5.016,8.984s6.024,3.243,10.235,1.053c3.515-1.828,5.822-4.94,5.806-7.519V248.665a.425.425,0,0,1,.341-.417l25.675-5.21a.425.425,0,0,1,.51.417v26.781c-2.106-1.047-5.324-.857-8.356.719-4.212,2.19-6.458,6.212-5.016,8.984s6.024,3.243,10.235,1.053c3.515-1.828,5.652-4.93,5.427-7.519h.021V235a.483.483,0,0,0-.575-.475Z" transform="translate(-874.871 -234.512)"/></g><g transform="translate(1141.406)"><path class="c" d="M1124.318,41.6c-3.812-1.863-6.29-5.458-7.647-9.383a27.445,27.445,0,0,1-1.2-5.019c-.111-.763-.159-5.924-.208-6.693a7.309,7.309,0,0,0-.2-1.982c-.418-1.142-2.824-1.806-3.948-1.479-.87.253-.876,1.375-.826,2.106.077,1.119.084,6.615.08,7.739q-.011,3.395-.023,6.789-.015,4.44-.031,8.881-.017,5.116-.035,10.233-.018,5.423-.036,10.846-.018,5.359-.036,10.718-.017,4.925-.033,9.851-.014,4.122-.028,8.244-.01,2.948-.02,5.9,0,1.405-.009,2.81a.666.666,0,0,0,0,.134c-4.808-2.391-12.154-1.957-19.076,1.642-9.615,5-14.742,14.182-11.452,20.509s11.606,7.711,21.221,2.712c8.025-4.173,13.292-11.278,13.255-17.164v-57.7c11.737-.358,22.616,13.843,22.616,13.843,10.953,19.289-6.811,38.507-6.811,38.507-1.176,3.644,1.23,2.874,1.23,2.874,6.282-3.785,13.58-15.732,13.58-15.732C1161.484,62.707,1124.318,41.6,1124.318,41.6Z" transform="translate(-1078.59 -16.96)"/></g><path class="c" d="M90.315,345.361h-49.2v57.684c-3.289-1.635-8.314-1.339-13.049,1.123-6.577,3.42-10.085,9.7-7.834,14.03s9.407,5.065,15.984,1.645c5.49-2.854,9.093-7.715,9.068-11.741V355.96H86.705v46.966c-3.289-1.635-8.314-1.339-13.049,1.123-6.577,3.42-10.084,9.7-7.834,14.03s9.407,5.065,15.984,1.645c5.49-2.854,8.826-7.7,8.476-11.741h.032V355.959H134.66v47.084c-3.289-1.635-8.314-1.339-13.049,1.123-6.577,3.42-10.085,9.7-7.834,14.03s9.407,5.065,15.984,1.645c5.49-2.854,9.093-7.715,9.068-11.741V345.359H90.315Z" transform="translate(-5.977 -95.452)"/><path class="c" d="M667.855,156c-.178-.556-.389-1.1-.615-1.643a15.213,15.213,0,0,0,.86-8.624,20.662,20.662,0,0,0-.759-1.97,15.127,15.127,0,0,0,.759-8.363c-2.387-7.452-9.291-13.636-15.933-17.758-5.462-3.39-7.928-4.269-9.542-9.429a5.225,5.225,0,0,0-.25-1.107.9.9,0,0,0-.121-.2l-.007-.026s0,.007,0,.011a2.942,2.942,0,0,0-2.711-.627c-.651.189-.617.957-.617,1.574,0,.135,0,.276,0,.413l-.129,60.9c-3.594-1.788-9.087-1.294-14.262,1.4-7.188,3.738-11.021,10.6-8.562,15.333s10.281,5.535,17.469,1.8c6-3.119,8.333-8.271,8.306-12.671v-35.4a33.043,33.043,0,0,0,4.514,2.412c9.5,4.349,20.588,15.982,16.72,26.479-.514,1.4-2.1,4.028-2.8,5.339-1.581,2.982,2.5,2.177,4.134-.229C667.969,168.246,669.811,162.108,667.855,156Zm-21.349-34.575c9.927,3.258,16.567,7.407,18.071,17.351,0,0,0,.088.011.239a44.585,44.585,0,0,0-12.421-11.04c-4.467-2.772-7.1-4.118-8.82-7.37C644.079,120.82,645.006,120.934,646.506,121.425Zm5.416,16.817a44.115,44.115,0,0,1-9.735-7.888c1,.8,1.939.625,4.319,1.406,9.927,3.258,16.567,7.407,18.071,17.351,0,0,.008.207.027.542A44.072,44.072,0,0,0,651.922,138.242Z" transform="translate(17.783 -38.283)"/><path class="d" d="M743.638,527.286l2.273,18.987,12.9,1.473-12.9,1.472-2.273,18.988-2.273-18.988-12.9-1.472,12.9-1.473Z" transform="translate(16.484 -138.935)"/><path class="d" d="M590.874,302.432l2.273,18.988,12.9,1.472-12.9,1.472-2.273,18.988L588.6,324.364l-12.895-1.472L588.6,321.42Z" transform="translate(12.659 -85.192)"/><path class="d" d="M897.224,432.176l-4.269,18.641,11.641,5.739-12.635-2.967-8.549,17.106,4.269-18.641-11.642-5.739,12.635,2.968Z" transform="translate(19.738 -116.203)"/><path class="e" d="M370.439,184.613l3.03,15.717,10.854.46-10.678,2-.766,15.988-3.03-15.717-10.854-.46,10.678-2Z" transform="translate(6.726 -57.032)"/><path class="c" d="M1138.68,49.337c-5.009-2.448-8.265-7.172-10.049-12.33a36.072,36.072,0,0,1-1.577-6.595c-.146-1-.209-7.785-.273-8.8a9.6,9.6,0,0,0-.267-2.6c-.549-1.5-3.711-2.373-5.188-1.943-1.144.333-1.151,1.807-1.085,2.768.1,1.47.11,8.693.1,10.17l-.03,8.921q-.019,5.835-.04,11.67-.023,6.723-.046,13.447l-.048,14.252-.048,14.085q-.023,6.473-.044,12.945-.018,5.417-.037,10.833-.014,3.875-.026,7.749-.006,1.847-.012,3.693a.868.868,0,0,0,0,.176c-6.318-3.142-15.972-2.572-25.067,2.158-12.635,6.57-19.372,18.636-15.049,26.951s15.251,10.133,27.886,3.564c10.546-5.484,17.467-14.82,17.419-22.555V62.068c15.423-.47,29.72,18.191,29.72,18.191,14.393,25.348-8.95,50.6-8.95,50.6-1.546,4.788,1.616,3.777,1.616,3.777,8.255-4.974,17.845-20.673,17.845-20.673C1187.52,77.076,1138.68,49.337,1138.68,49.337Z" transform="translate(108.832 237.04)"/></g></g></svg>