<svg xmlns="http://www.w3.org/2000/svg" width="268.04" height="214.96" viewBox="0 0 268.04 214.96"><defs><style>.a{fill:#3b1957;}</style></defs><g transform="translate(11 -6.299)"><path class="a" d="M1375.025,436.276c-.482-.01-.968.008-1.358,0a10.742,10.742,0,0,1-.292-1.553,8.988,8.988,0,0,0,4.95-4.66,1.647,1.647,0,0,0,.68-.292,9.075,9.075,0,0,0,1.261-1.941,12.446,12.446,0,0,0,1.262-2.038c-.9-.859.246-1.753.582-2.525-.031-.228-.46-.057-.388-.388.6-.75.557-1.618.971-2.427.12-.235.368-.387.485-.582a17.573,17.573,0,0,0,1.456-4.853c1.578-7.183,2.695-14.519,4.369-21.26a26.256,26.256,0,0,1,2.718-6.891c.407-.712.837-1.349,1.165-2.039,1.406-2.964.882-7.856,1.068-11.939.148-3.249.969-6.154,1.359-9.223-.5-.275-1.12-.205-1.553-.485-.277-.178-.269-.678-.68-.679.746-2.655,1.6-5.352,2.427-8.348.528-1.919,1.334-4.247,1.844-6.309a10.352,10.352,0,0,0,.486-2.233c-.021-.284-.308-.593-.291-.873.029-.522.619-1.08.485-1.65-1.181-.465-.775-.638-.485-1.651.558-1.948,1.013-3.79,1.359-5.63.172-.917.128-1.824.291-2.524a14.475,14.475,0,0,1,.777-1.553c.483-1.178.973-2.662,1.359-3.786.161-.469.228-.992.388-1.359.273-.622.837-1.054.97-1.65a20.852,20.852,0,0,0,0-2.136c.1-.455.5-.738.583-1.165.457-2.477-.9-3.033-1.553-4.465-.2-.441-.3-.954-.486-1.359-.219-.48-.479-.848-.679-1.262a30.244,30.244,0,0,1-1.747-5.727c-.24-.961-.543-1.926-.777-2.913-.052-.221-.1-.446-.14-.671-.063.068-.131.14-.21.223.077-.1.142-.185.2-.265-.047-.251-.092-.5-.137-.755-.1.156-.215.309-.332.457a6.3,6.3,0,0,1-1.094,1.08,6.481,6.481,0,0,0,.993-1.173,7.293,7.293,0,0,0,.379-.647c-.033-.175-.069-.348-.108-.519a6.54,6.54,0,0,1-.869,1.3,6.536,6.536,0,0,0,.845-1.4c-.013-.051-.027-.1-.04-.153a6.611,6.611,0,0,1-.788,1.11,5.568,5.568,0,0,1-1.775,1.328,6.593,6.593,0,0,1-2.07.569,8.874,8.874,0,0,1-1.408.036,9.424,9.424,0,0,0,1.386-.213,6.639,6.639,0,0,0,1.423-.488,8.616,8.616,0,0,1-3.868.275c-.543-.075-.813-.126-1.35-.244.546.056.819.077,1.361.094a7.862,7.862,0,0,0,3.831-.707,4.6,4.6,0,0,0,1.636-1.4,6.215,6.215,0,0,0,.932-2.008,7.176,7.176,0,0,1-.406.818,4.4,4.4,0,0,1-2.254,2,4.879,4.879,0,0,1-.984.255,4.913,4.913,0,0,0,.94-.367,4.132,4.132,0,0,0,1.928-2.1,7.752,7.752,0,0,0,.437-1.317c-.138-.247-.274-.5-.4-.746-.037-.072-.072-.145-.108-.217q-.056.184-.118.36a6.631,6.631,0,0,1-.605,1.3,3.28,3.28,0,0,1-.736.849,2.366,2.366,0,0,1-.551.321,2.56,2.56,0,0,0,.474-.4,3.405,3.405,0,0,0,.591-.888,6.627,6.627,0,0,0,.441-1.284c.072-.3.129-.612.18-.936a14.272,14.272,0,0,0-.83-1.625,4.426,4.426,0,0,0-.3-.412c-.031.034-.062.071-.094.1-.233.247-.352.366-.6.6.219-.261.326-.392.535-.661.031-.039.06-.081.091-.121-.333-.4-.709-.764-.994-1.161l-.117-.165a13.929,13.929,0,0,1-1.2,1.576c-.3.325-.452.482-.77.782.282-.34.417-.515.677-.873.233-.321.452-.654.655-1a13.447,13.447,0,0,1-2.116,2.239c-.33.271-.5.4-.844.648.32-.284.475-.432.776-.735a12.779,12.779,0,0,0,1.949-2.515q.224-.378.422-.771l-.206-.288c-.156.243-.317.482-.487.711-.221.29-.334.432-.573.7.21-.3.31-.449.5-.758.162-.26.311-.529.454-.8-.125-.17-.25-.339-.38-.505-.084-.107-.169-.21-.253-.315-.12.181-.213.313-.368.52.137-.231.217-.372.325-.574a38.322,38.322,0,0,1-6.692-10.212c-.54-1.229-1.087-2.7-1.748-4.077a16.328,16.328,0,0,1-.971-1.941,10.217,10.217,0,0,1-.194-4.659c.235-2.421.444-4.576.777-6.8.427-2.847,1.257-5.763,1.456-8.737a7.957,7.957,0,0,1,.486-3.2,12.238,12.238,0,0,1,2.62-2.524c1.108-.9,2.308-1.483,3.107-2.136.477-.39.985-1.009,1.65-1.65.372-.358,1.385-1.525,1.942-1.359s.2.555.291.971c.556-.533,1.95-2.147,2.621-.777.71-.372,1.03-.287,1.261.1.4.661-.365.478-.582,1.165a.71.71,0,0,1,1.067.486,17.2,17.2,0,0,1-1.844,1.553c-.61.517-1.137,1.155-1.748,1.65-.238.193-.877.462-1.262.777s-.748.761-1.262,1.165c-1.012.794-1.753,1.444-2.815,2.233-.61.453-1.247.79-1.36,1.164-.047.157.011.739,0,1.165-.066,2.8-.065,5.6-.194,8.445-.055,1.219-.263,2.644-.194,3.592a24.793,24.793,0,0,1,.1,3.3,13.259,13.259,0,0,0-.291,1.844,10.787,10.787,0,0,0,.679,1.456c.228.558.362,1.246.583,1.651a31.847,31.847,0,0,0,2.039,2.718c.893,1.268,1.8,2.859,2.728,4.392.183-1.168.367-2.364.6-3.574.174-.9.379-1.811.63-2.724.026-.49.061-.982.107-1.478a18.023,18.023,0,0,1,.326-4.812,9.817,9.817,0,0,1,1.248-2.192,7.151,7.151,0,0,1,.848-.925,4.09,4.09,0,0,1,.625-.483c0,.007-.281.229-.585.541a7.079,7.079,0,0,0-.776.949,10.709,10.709,0,0,0-1.531,3.924,11.32,11.32,0,0,1,1.47-3.553,11.181,11.181,0,0,1,6.348-4.334,7.783,7.783,0,0,1,2.273.113,9.283,9.283,0,0,1,2.86.521,7.357,7.357,0,0,1,2.057.35,11.127,11.127,0,0,1,1.793.758c.209.052.417.106.622.163,1.1.307,2.141.674,3.167,1,.622.2,1.247.385,1.867.543l.618.155c-.254-.03-.382-.047-.637-.085-.636-.1-1.284-.224-1.931-.357-.7-.144-1.4-.306-2.116-.464.194.132.385.266.573.4l.042.033c.8.3,1.587.607,2.379.882.619.217,1.249.414,1.882.581.253.068.38.1.634.163-.261-.031-.391-.049-.652-.088-.649-.1-1.3-.236-1.947-.383l-.523-.12.74.289.37.1c.507.137,1.022.263,1.537.372q-.445-.07-.887-.155l-.32-.064c.339.118.68.231,1.023.334a19.2,19.2,0,0,0,2.168.529c.293.055.441.08.736.126-.3-.007-.449-.013-.749-.032q-.4-.029-.81-.073a18.482,18.482,0,0,0,2.122.359c.3.034.449.049.75.074-.3.008-.452.009-.755.007a20.812,20.812,0,0,1-2.262-.165,23.474,23.474,0,0,1-2.618-.493l.516.191c.641.227,1.3.429,1.971.6.269.068.4.1.673.161-.274-.034-.41-.054-.683-.1-.68-.113-1.357-.259-2.019-.425l-.191-.05q.506.473,1,.949c.232.079.371.126.623.207-.221-.049-.356-.081-.54-.127.756.729,1.5,1.454,2.243,2.14.058.053.118.106.176.16l.044,0-.038.007c.307.279.616.551.928.813l.124-.016-.109.029q.226.19.454.372a7.633,7.633,0,0,0,1.257-.3c.275-.091.411-.142.681-.252-.255.146-.386.215-.654.34-.241.111-.488.21-.74.3a8.37,8.37,0,0,0,1.983-.722c.266-.136.4-.207.656-.358-.242.18-.367.265-.621.428a9.1,9.1,0,0,1-2.047.959l-.01,0c.112.085.211.159.329.246.105-.024.209-.05.349-.086-.125.046-.221.079-.316.111l.089.064-.105-.059c-.1.033-.2.063-.336.1a8.778,8.778,0,0,1-1.021.213c.408.358.825.7,1.254,1.012.268.2.4.29.677.47-.293-.144-.44-.223-.729-.388-.228-.134-.455-.278-.68-.425-.113.019-.209.033-.316.046.359.271.725.53,1.1.769-.334-.189-.663-.395-.986-.609l-.216-.147-.026,0c.312.281.631.552.959.808a9.477,9.477,0,0,0,2.461,1.436,6,6,0,0,0,.9.271,5.608,5.608,0,0,1-.938-.154,7.765,7.765,0,0,1-.994-.327,6.407,6.407,0,0,0,2.651.811,5.2,5.2,0,0,0,.98-.025,5.077,5.077,0,0,1-.983.129,6.858,6.858,0,0,1-2.914-.627,13.877,13.877,0,0,1-2.546-1.5l.349.4a13.231,13.231,0,0,0,1.94,1.412c.326.189.493.279.838.442a8.592,8.592,0,0,1-.872-.366,12.452,12.452,0,0,1-1.161-.651c.137.152.276.3.414.453.1.069.2.139.305.2.261.171.393.254.655.412-.28-.125-.421-.193-.7-.333.07.075.139.152.209.226.584.62,1.188,1.218,1.8,1.771.246.223.369.331.618.544-.273-.183-.409-.279-.678-.475-.669-.5-1.334-1.041-1.985-1.6-.485-.419-.963-.858-1.44-1.305q-.314-.194-.625-.4c-.119-.078-.238-.162-.358-.242q.52.642,1.043,1.275c.038.031.073.064.111.095.308.249.466.372.8.609-.286-.173-.451-.279-.683-.438.215.259.43.518.648.773.368.269.744.524,1.127.757.277.17.417.251.7.4-.3-.118-.448-.183-.744-.32-.206-.1-.411-.2-.615-.313.16.181.317.364.48.542.089.049.176.1.265.145-.08-.037-.159-.078-.239-.117.017.019.034.039.051.059.13.142.263.282.4.421a10.061,10.061,0,0,0,2.041.947,7.872,7.872,0,0,0,.9.242,7.171,7.171,0,0,1-.927-.126,9.482,9.482,0,0,1-.99-.264,8.129,8.129,0,0,0,2.619.723,7.131,7.131,0,0,0,.956.031,6.773,6.773,0,0,1-.962.071,8.357,8.357,0,0,1-2.321-.353c.044.04.089.081.134.121.256.228.386.339.647.556-.285-.185-.427-.281-.707-.48-.134-.1-.268-.2-.4-.3-.07-.023-.14-.045-.209-.069-.141-.05-.281-.1-.42-.158.326.291.657.574,1,.846l.025.01-.021-.006c.034.026.066.055.1.081l-.12-.088c-.159-.049-.284-.089-.406-.131.084.082.167.164.252.245a17.626,17.626,0,0,0,2.284,1.837c.324.219.489.323.823.525-.356-.157-.533-.24-.882-.419q-.467-.247-.926-.526a15.418,15.418,0,0,0,2.382,1.523c.351.18.529.266.888.428-.374-.121-.56-.188-.928-.332a16.64,16.64,0,0,1-2.648-1.375,22.506,22.506,0,0,1-2.813-2.142c.164.182.329.363.5.541a21.046,21.046,0,0,0,2.018,1.873c.287.233.433.347.73.568-.315-.192-.469-.293-.774-.5a23.316,23.316,0,0,1-2.167-1.706,33.475,33.475,0,0,1-2.757-2.765l-.091-.065q.8,1.012,1.614,2.008c.115.083.229.168.347.249.317.217.479.324.814.528-.347-.174-.517-.267-.849-.458l-.106-.065c.141.172.281.347.422.518.715.859,1.458,1.7,2.225,2.5.305.32.46.477.771.786-.344-.27-.515-.41-.854-.7q-.312-.268-.621-.545c-.177-.143-.315-.258-.53-.442-.653-.566-1.268-1.165-1.852-1.772q.354.46.713.915l.447.474c.615.647,1.247,1.285,1.9,1.894-.385-.328-.766-.666-1.14-1.008l-.405-.375q.584.706,1.193,1.384a21.145,21.145,0,0,0,2.72,2.592,11.316,11.316,0,0,0,1.013.716,10.168,10.168,0,0,1-1.1-.585c-.385-.237-.761-.5-1.13-.767a11.555,11.555,0,0,0,2.971,2.079,5.621,5.621,0,0,0,1.211.4,5.424,5.424,0,0,1-1.255-.279,12.473,12.473,0,0,1-3.34-1.929,32.2,32.2,0,0,1-2.805-2.471l.179.281.185.3a29.923,29.923,0,0,0,2.035,2.2c.343.332.519.5.882.813-.387-.282-.576-.429-.945-.729-.443-.369-.871-.751-1.288-1.142.368.623.721,1.226,1.066,1.762.117.182.2.312.289.439a11.2,11.2,0,0,1,5.772,3.649c.748.89,1.206,1.968,2.038,2.815.183.186.471.284.679.486.659.639,1.24,1.141,1.942,1.747,2.689,2.326,5.277,4.451,7.863,6.7.854.742,1.826,1.412,2.62,2.233a5.4,5.4,0,0,1,1.068,1.747c.218,1.783-1.821,3.693-2.621,4.66-.412.5-.732,1.019-1.068,1.456-2.269,2.953-4.506,5.278-6.116,8.64a20.01,20.01,0,0,1-4.174,5.728c-.413.413-2.043,2.356-2.621,2.33-.617-.028-.656-.563-.971-1.068-.3.078-.823.272-1.068.1-.4-.05-.172-.734-.388-.971-.157.251-.855-.04-.874.1-.124.786.621,1.128.874,1.845a12.871,12.871,0,0,1,.291,2.524c.231,1.695,1.006,3.239,1.262,4.66-.081.357-.763.327-.874.68-.134.43.4,1.122.388,1.65-.006.316-.25.451-.291.873a12.548,12.548,0,0,0,.194,1.359c.308,2.9.848,5.225,1.068,8.445.244,3.582.433,6.74.777,9.513-.831.27-2.1.1-2.816.486a52.488,52.488,0,0,1-.971,10c-.314,1.516-.709,2.979-1.068,4.466a21.8,21.8,0,0,0-.777,4.756,19.368,19.368,0,0,0,1.068,4.951c1.12,4.313.911,9.176.679,14.464-.187,4.239-.4,8.085-.582,12.134a43.628,43.628,0,0,0,0,5.145c.088,1.135.417,2.332.486,3.495.021.361-.058.9,0,1.165.066.3.3.238.388.388a2.341,2.341,0,0,1,.291.777c.044.483-.269.557-.291.777-.011.106.087.151.1.291a7.154,7.154,0,0,0,1.359,2.718c.589.94,1.04,2.009,1.456,2.621.585.862,1.858,1.8,1.456,2.62-.238.489-.073.921-.291,1.359-.552,1.105-3.879,2.317-6.019,1.942a6.6,6.6,0,0,1-1.068-.486c-1.018-.435-1.388-.576-1.845-1.359a11.759,11.759,0,0,1-.485-1.359,2.8,2.8,0,0,1-1.067-.1,10.692,10.692,0,0,0,.1-2.329c-.052-.712-.345-1.35-.389-2.038-.047-.738.3-1.591.292-2.136,0-.179-.168-.317-.194-.485-.232-1.474.72-2.444.679-3.688-.02-.608-.346-1.091-.388-1.651a16.48,16.48,0,0,1,.194-2.136,26.14,26.14,0,0,0,0-2.621,72.7,72.7,0,0,0-1.65-11.455c-.971-4.668-2.242-8.693-2.233-13.687.005-2.794.97-5.444,1.165-8.154.193-2.692-.48-4.393-1.068-6.5-.4-1.451-.842-2.919-1.165-4.368-.734-3.3-.684-6.56-1.456-9.707a61.321,61.321,0,0,0-6.892-.1c-1.837,4.614-3.338,9.062-5.728,13.2-.572.991-1.1,2.056-1.65,3.106a12.03,12.03,0,0,0-1.36,3.4c-.5,2.51-.218,5.4-.874,8.639a25.006,25.006,0,0,1-1.165,3.592c-3.058,8.224-8,14.851-9.416,24.366.075.248.626.021.583.388a13.81,13.81,0,0,0-.194,2.913c-.025.194-.253.4-.292.582s.127.419.1.68c-.024.217-.191.416-.194.582a6.325,6.325,0,0,1-.776,4.466c-.305.909-.731,1.7-1.068,2.524-.375.175-.872.229-.97.68-.088.436.587.431.291.776-.184.262-.362.156-.583.291-.277.171-.268.366-.485.485-.306.17-.828.267-1.262.485a5.017,5.017,0,0,1-1.262.582,13.124,13.124,0,0,1-2.621-.1,17.381,17.381,0,0,0-2.913-.292c-.966.07-2.054.528-3.106.194.33-.073.874-.045,1.358-.1.392-.043,1.105.023.971-.291-.139-.361-.749-.185-1.165-.194Zm50.259-150.426c.154.072.293.132.485.211-.273-.2-.545-.4-.811-.612l-.334-.268c.216.228.437.45.66.669Zm-4.55,5.512-.009-.013-.019-.026-.146-.2,0-.007c-.165-.079-.327-.164-.487-.253.1.173.2.344.3.517l.1.17.006.011,0,.005v0h0c-.025-.04-.072-.117-.064-.1l.011.022.021.045.043.09.159.341.315.7,0,.007c.141-.018.325-.032.531-.043-.148-.254-.295-.507-.445-.753l-.255-.417-.067-.109-.013-.021.025.041,0,0Zm-.619-.863-.012-.018c-.022-.012-.044-.022-.066-.035.026.019.053.034.078.052Zm-20.756,1.49.135.129q-.07-.358-.142-.714c-.011.048-.021.1-.031.143.014.147.026.295.039.443Zm3.078-1.863q-.085-.524-.17-1.045c.052.848.1,1.7.125,2.561.011-.231.023-.461.03-.694q.011-.407.016-.821Zm17.07,2.965c.181.071.366.137.561.2a1.069,1.069,0,0,1,.3-.4c-.174-.1-.347-.206-.517-.316a18.06,18.06,0,0,1-2.949-2.411c-.112-.094-.223-.189-.334-.286a23.4,23.4,0,0,0,2.939,3.214Zm3.623-1.175.049.014-.157-.234.108.22Zm.009.02.327.665c.042,0,.077,0,.1.007a.4.4,0,0,1,.088.023l-.118-.177-.343-.511-.049-.008Zm-28.437-5.308a.144.144,0,0,0,.011.019c.008-.058.015-.115.022-.173-.011.052-.023.1-.034.155Zm2.443-14.5c.052-.088.1-.177.158-.264.014-.044.03-.087.045-.131q-.108.2-.2.4Zm17.041,12.177c.038.147.073.289.109.432.3.782.63,1.566,1.011,2.341a29.4,29.4,0,0,0,4.746,5.235c.1.078.2.154.3.229q-.174-.316-.349-.623l-.037-.064-.06-.09-.189-.284-.345-.516a11.572,11.572,0,0,1-2-1.721,19.674,19.674,0,0,1-3.186-4.94Zm4.785,4.678c.12.2.238.4.356.6.1.095.213.183.321.273l-.575-.787c-.035-.027-.067-.057-.1-.085Zm.1.08-.275-.377c.056.091.109.185.164.276.037.033.073.068.111.1Zm-1.921-.6c.137.2.279.389.427.579a11.04,11.04,0,0,0,1.627,1.678l-.541-.8a12.014,12.014,0,0,1-1.513-1.456Zm.139-15.044-.075-.024c.9.908,1.762,1.835,2.636,2.737a8.024,8.024,0,0,0,.884.046h.012c-1.155-.87-2.3-1.816-3.457-2.758Zm3.557,2.835-.023-.017-.094.012c-.235.026-.477.039-.721.045q.366.376.736.743a7.645,7.645,0,0,0,.952-.01l.194-.015c-.349-.245-.7-.5-1.044-.758Zm2.3,1.819c.122-.024.215-.043.306-.063-.138-.077-.252-.144-.389-.227a8.309,8.309,0,0,1-1.245.281c.054.048.106.1.16.145a8.4,8.4,0,0,0,1.168-.136Zm-.986.956h.014l-.065-.044.051.044Zm-.369-.4c.165.133.333.263.5.392.121-.005.224-.011.347-.021q-.446-.293-.884-.609c-.077.008-.153.017-.23.023l.265.216Zm-.49-.42c.073,0,.146.006.219.006l-.144-.106c-.052,0-.1.013-.157.018.028.027.054.055.082.083Zm-.182-.81.05.048c.209.007.418.009.629,0s.436-.03.654-.059q-.252-.166-.5-.341c-.073.016-.15.032-.248.051a7.959,7.959,0,0,1-.791.1c.054.054.109.106.164.159a8.144,8.144,0,0,0,.858-.076c-.269.053-.541.092-.813.119Zm4.542,15.448c-.633-.807-1.292-1.788-2-2.724l-.312-.41c-1.159-1.187-2.253-2.419-3.312-3.67-.236-.247-.47-.5-.709-.74.85,1.075,1.656,2.185,2.434,3.31l.578.848.286.426.009.013.043.069.016.028.031.055.064.111.131.23c.133.237.262.475.39.712.159.2.319.391.482.584.317.375.478.563.812.934-.36-.34-.534-.512-.877-.859-.049-.05-.1-.1-.145-.152.108.2.216.407.322.609.14.266.281.53.423.791.442.106,1.178.079,1.562.173l.057.015c-.087-.1-.176-.209-.291-.352Zm.913,29.168c.027.677.351,1.367.388,2.039.036.652-.2,1.309-.194,1.941a19.6,19.6,0,0,0,.582,3.786c.459,0,.728-.454.971-.679a24.44,24.44,0,0,0,1.747-1.941c.352-.4.5-.784.971-.874.584-.113,1.162.377,1.845.291,1-.125,1.939-1.843,2.427-2.815,1.568-3.134,2.5-6.017,4.272-8.834a10.469,10.469,0,0,0,.97-1.553c-1.842-1.136-3.668-2.06-5.436-3.3-2.786-1.956-4.915-5.074-7.863-6.989-.083-.018-.092.038-.1.1a27.737,27.737,0,0,1,.194,7.863c-.168,1.465-.636,2.972-.68,4.563-.016.609.123,1.241.1,1.844-.064,1.523-.253,3.076-.194,4.562Z" transform="translate(-1257.156 -220.594)"/><path class="a" d="M1277,333.185Z" transform="translate(-1208.536 -267.101)"/><path class="a" d="M1313.483,268.992c-.2-.465-.394-.97-.579-1.448-1.173-3.025-2.338-6.02-3.668-8.783a67.667,67.667,0,0,0-4.439-8.011,7.737,7.737,0,0,1-1.255-2.9,16.692,16.692,0,0,1,.579-3.089c.085-.557.1-1.111.193-1.641a13.573,13.573,0,0,0,.289-2.026c0-.183.173-.323.193-.483.2-1.613-.258-1.786-.966-2.8a7.712,7.712,0,0,1-1.062-1.544,14.111,14.111,0,0,1-.1-1.544c-.068-.353-.212-.69-.29-1.061a4.5,4.5,0,0,0-.483-1.641c-.335-.551-.66-1.256-1.158-1.352-.072.354-.315.319-.386.579-.24.88.668,1.559.483,2.22a19.884,19.884,0,0,0-2.606-1.352c.115.482-.166.7-.1,1.062.215,1.132,1.917.981,1.93,2.22-1.01.173-1.7-.49-2.509-.193.162.551.212.95.675,1.255.43.283,1.126.173,1.641.386.434.18,1,.69.965.965-.253.265-.721-.226-.869.386s.616.454.676,1.158c.047.543-.681,1.556-1.255,1.544-1.551-.033-1.474-3.678-3.281-3.571a1.06,1.06,0,0,0-.965.579c-.333.988.953,1.712,1.351,2.509.2.4.269,1.019.483,1.544a9.031,9.031,0,0,1,.579,1.448c.068.477-.091,1.118,0,1.544.232,1.091,1.636,1.9,2.027,2.7a9.782,9.782,0,0,1,.386,1.544,13.2,13.2,0,0,0,.579,1.448c.383.945.635,2.007.966,2.992,1.339,3.989,2.352,8.3,3.571,12.257a31.993,31.993,0,0,0,2.413,5.5,12.165,12.165,0,0,0-3.089,2.509c-.21.228-.455.5-.718.78l-.016-.008a3.185,3.185,0,0,1-.352-.271,5.982,5.982,0,0,1-.913-1.084c-.094-.316-.151-.658-.223-.942-.286-1.127-.428-2.295-.739-3.414-.282-1.015-.686-1.989-1.058-2.973-.321-.849-.846-1.544-1.239-2.363-.628-1.311-2.6-2.639-4.064-2.331-.847.179-1.574.742-2.462.624a2.386,2.386,0,0,0-1.395.261c-.444.209-.5.1-.98,0a4.619,4.619,0,0,0-3.511,1.054c.108-.117.258-.276.255-.277s-.249.229-.35.325c-.064.057-.126.116-.188.176a7.316,7.316,0,0,0-.93.922c-.025.03-.047.061-.07.091-.842.882-1.642,1.774-2.435,2.538a17.315,17.315,0,0,1-2.8,2.29,5.411,5.411,0,0,1-.886.441,2.786,2.786,0,0,1-.289.1,2.4,2.4,0,0,0,.312-.058,5.787,5.787,0,0,0,.974-.33,9.38,9.38,0,0,0,1.812-1.05,11.677,11.677,0,0,1-2.111,1.674,5.19,5.19,0,0,1-.948.445c-.128.039-.192.073-.319.1a3.131,3.131,0,0,0,.338-.049,5.722,5.722,0,0,0,1.033-.32l.279-.12a6.529,6.529,0,0,1-1.264.7,3.643,3.643,0,0,1-1.153.272c-.156.012-.233,0-.39.009.155.023.232.046.392.06a3.942,3.942,0,0,0,1.235-.1,6.125,6.125,0,0,0,1.479-.557,3.121,3.121,0,0,1-.206.317l-.02.015a6.157,6.157,0,0,1-1.069.6c-.154.061-.227.105-.386.155.166-.028.242-.061.4-.1.177-.057.354-.121.529-.19a3.235,3.235,0,0,0-.37.34,3.746,3.746,0,0,0-1.2,1.68,3.636,3.636,0,0,0-.165.755v.011c-.151.206-.292.41-.411.6s-.267.384-.4.541a1.809,1.809,0,0,1-.132.161,1.627,1.627,0,0,0,.158-.142c.158-.143.318-.325.478-.5.228-.259.458-.536.715-.817,0,.031,0,.063-.008.094-.277.407-.491.808-.726,1.171a4.849,4.849,0,0,1-.4.541l-.136.165c.065-.056.1-.086.162-.144a5.329,5.329,0,0,0,.475-.5l.124-.15a5.975,5.975,0,0,1-.494.767,2.115,2.115,0,0,1-.513.51c-.076.052-.114.079-.191.135.083-.04.127-.06.214-.1a2.262,2.262,0,0,0,.607-.445,7.541,7.541,0,0,0,.922-1.116l-.316.625a5.465,5.465,0,0,1-.393.633c-.058.081-.086.123-.146.2.069-.072.1-.109.172-.183a6.318,6.318,0,0,0,.472-.586c.151-.208.291-.423.431-.636.021.087.044.174.067.26l-.038.086c-.051.11-.1.22-.151.331a.082.082,0,0,0-.053.046.055.055,0,0,1,.023.017c-.048.1-.1.2-.155.3l-.124.235.15-.218c.057-.08.108-.161.158-.242a.615.615,0,0,1,.008.09c-.071.123-.142.246-.211.366a6.333,6.333,0,0,1-1.212,1.653,2.274,2.274,0,0,1-.417.285c-.059.021-.089.031-.147.053.063-.011.1-.014.163-.026a2.359,2.359,0,0,0,.481-.231,3.34,3.34,0,0,0,.859-.8,4.15,4.15,0,0,1-.954,1.169,1.947,1.947,0,0,1-.494.288.654.654,0,0,1-.18.06.662.662,0,0,0,.193-.03,2.149,2.149,0,0,0,.557-.222.782.782,0,0,0,.148-.082,2.7,2.7,0,0,1-.667.458,2.292,2.292,0,0,1-.68.175l-.24.031.243.009a2.571,2.571,0,0,0,.733-.075,2.769,2.769,0,0,0,1.163-.693,3.257,3.257,0,0,1-.449.5,2.513,2.513,0,0,1-.6.41,1.015,1.015,0,0,1-.225.1.987.987,0,0,0,.237-.065,2.766,2.766,0,0,0,.66-.344,3.409,3.409,0,0,0,.612-.555c0,.023-.007.045-.01.067-.18.241-.359.472-.54.684a10.524,10.524,0,0,1-1.763,1.593,5.993,5.993,0,0,1-.595.384,2.009,2.009,0,0,1-.2.11,1.957,1.957,0,0,0,.222-.082,6.583,6.583,0,0,0,.657-.314,10.424,10.424,0,0,0,1.02-.646l.047-.016.03-.012a13.855,13.855,0,0,1-1.269,1.116,6.221,6.221,0,0,1-.62.4,2,2,0,0,1-.215.12,1.835,1.835,0,0,0,.233-.089,7.44,7.44,0,0,0,.682-.326l.179-.1a7.349,7.349,0,0,1-.8.593,5.663,5.663,0,0,1-.754.4l-.261.121.279-.08a6.677,6.677,0,0,0,.821-.3,6.837,6.837,0,0,0,1.359-.8c-.173.186-.363.354-.55.526a6.713,6.713,0,0,1-.644.493,2.411,2.411,0,0,1-.227.151,2.1,2.1,0,0,0,.245-.119,8.017,8.017,0,0,0,.707-.416c.118-.077.231-.16.343-.244a6.335,6.335,0,0,0-.686.658,6.593,6.593,0,0,0-1.259,2.056c-.1.226-.157.466-.239.7-.029.095-.044.143-.073.238.04-.093.061-.139.1-.231a6.847,6.847,0,0,1,.311-.675,8.3,8.3,0,0,1,.74-1.148,6.44,6.44,0,0,0-.664,1.59l-.063.242-.2.112a3.915,3.915,0,0,0-1.7,2.6,6.521,6.521,0,0,0,.208,2.773c.123.477.246.889.329,1.265.037.15.053.222.075.355a3.135,3.135,0,0,0-.021-.371c-.038-.391-.116-.825-.185-1.311a6.292,6.292,0,0,1,.148-3.014,6.36,6.36,0,0,0,.458,3.611,10.123,10.123,0,0,1,.333,1.15c.022.14.051.216.06.35a2.861,2.861,0,0,0,0-.362,10.138,10.138,0,0,0-.182-1.208l-.069-.352a15.87,15.87,0,0,1,.533,1.546,3.337,3.337,0,0,1,.105,1.235c-.019.161-.042.24-.067.4.054-.154.091-.231.14-.391a3.583,3.583,0,0,0,.089-1.3c-.07-.816-.345-1.666-.493-2.54.137.4.3.781.463,1.162a10.948,10.948,0,0,1,.46,1.236,4.428,4.428,0,0,1,.109.432,4,4,0,0,0-.051-.445,13.12,13.12,0,0,0-.309-1.294,11.592,11.592,0,0,1-.362-1.523,7.87,7.87,0,0,1,.556.938,2.714,2.714,0,0,0,.465,1.675c.065.309.133.619.2.933.068.294.14.6.233.912.015.047.026.085.036.121a8.286,8.286,0,0,0-1.093,1.113,8.9,8.9,0,0,0-.386,1.062,12.694,12.694,0,0,0-.869,5.887c.077.632.33,1.252.386,1.93a10.123,10.123,0,0,1-.675,3.86c-.424,1.753-.853,3.538-1.158,5.212a25.065,25.065,0,0,1-.483,3.088,9.183,9.183,0,0,1-1.834,2.317c-2.206,2.452-3.071,4.934-4.343,8.4-.979,2.662-2.23,6.362-3.475,9.17a5.217,5.217,0,0,1-1.737,2.51,9.55,9.55,0,0,1-1.351.385,10.449,10.449,0,0,0-3.764,1.641c-.284.243-.344.573-.579.868a10.915,10.915,0,0,1-.772.772,10.309,10.309,0,0,1-2.7,2.317c-.071.393.311.333.193.772a3.805,3.805,0,0,0-.965,2.8c1.345.082,1.456-1.081,2.026-1.93a2.79,2.79,0,0,1,.869-.869,3.377,3.377,0,0,0,.483-.385c.276-.235.477-.6.869-.579a6.082,6.082,0,0,0-1.158,4.439,18.952,18.952,0,0,0,.676,2.22c1.764-.461.216-3.077,1.255-4.247.212.622-.274,1.179-.1,1.737a2.636,2.636,0,0,0,1.641,1.062c.517-.307.154-1.046,0-1.352-.118-.233-.088-.081-.1-.386a2.429,2.429,0,0,1,1.931-2.509c-.51,1.051-.691,3.589.289,4.247,1.085-.452.374-1.924.676-3.089a3.727,3.727,0,0,1,1.062-1.544,28.415,28.415,0,0,0,2.7-2.124c.4-.5.3-.868.58-1.448.2-.416.712-.688.965-1.061.479-.708.776-1.556,1.254-2.317,1.387-2.209,2.79-4.4,4.15-6.659a52.178,52.178,0,0,0,4.44-8.2c.174-.464.193-.959.386-1.447.168-.428.466-.822.676-1.255a36.191,36.191,0,0,0,1.544-4.247,39.39,39.39,0,0,1,2.027-5.694,7.206,7.206,0,0,1,2.509,5.887c0,.661-.2,1.325-.193,2.027.008.6.208,1.237.193,1.834a13.26,13.26,0,0,1-1.255,4.729c.731.816-.182,1.71-.579,2.7-.853,2.134-1.391,4.508-2.317,6.371-.535,1.079-1.262,2.407-1.834,3.861-.262.669-.5,1.408-.772,2.123a9.793,9.793,0,0,0-.772,2.123,15.373,15.373,0,0,0,.579,4.441,14.74,14.74,0,0,0,.386,1.736c.217.54.9.946,1.061,1.545a8.216,8.216,0,0,1,0,1.061,47.671,47.671,0,0,1,.579,4.826,19.73,19.73,0,0,0,0,3.185,8.7,8.7,0,0,1,.386,2.317c-.1.511-.552.852-.676,1.158a14.471,14.471,0,0,0-.675,2.894,18.664,18.664,0,0,0,.579,7.818c.347,1.365.731,2.713,1.062,4.054.48,1.945.946,4.242,1.448,6.177a12,12,0,0,1,.579,2.026c0,.144-.148.423-.193.676-.057.314-.035.62-.1.868a5.643,5.643,0,0,0-.386,1.255c-.01.575.405,1.085.483,1.64.226,1.63-.488,3.337-.676,5.019a8.556,8.556,0,0,0,2.219,7.142c1.168,1.36,2.334,2.987,4.729,2.607-.413,2.708.154,6-.675,8.2-.281.747-.952,1.391-.965,2.026-.007.34.378.885.386,1.254a7.814,7.814,0,0,1-.483,1.93c-.186.581-.464,1.174-.676,1.738a21.155,21.155,0,0,1-1.448,3.377c-.326.506-.937.851-1.158,1.255a9.609,9.609,0,0,0-.386,1.061,5.516,5.516,0,0,0-.29,2.606c.457,1.306,3.891,1.288,5.5,1.157,1.347-.109,3.434-.795,3.861-1.544.649-1.14.082-3.7,0-4.922-.126-1.875.52-3.757.386-5.309-.04-.462-.343-.9-.386-1.352-.031-.327.122-.738.1-1.158a12.007,12.007,0,0,1-.289-2.509,16.136,16.136,0,0,1,1.062-2.992c1.049-2.975,1.934-6.265,2.991-9.169,1.844-5.059,4.11-10.347,3.668-17.468a22.1,22.1,0,0,1-.385-3.475,9.243,9.243,0,0,1,.289-1.061,16.219,16.219,0,0,1,.772-2.413c1.249-3.307,2.251-6.793,3.571-9.941,1.58-3.765,3.359-7.269,4.536-10.81.72-.016,1.068,0,1.351-.289.326-.335.516-2.395.676-3.281.452-2.516.806-4.449,1.158-6.853a31.82,31.82,0,0,0,.483-3.571c.025-1.005-.224-2.06-.29-3.089-.07-1.092-.033-2.2-.193-3.185a32.457,32.457,0,0,0-1.834-6.08,8.575,8.575,0,0,1-.676-2.027c.009-.351.369-.372.386-.869,0-.082-.169-.418-.289-.772-.68-2-1.317-3.971-2.027-5.6a22.3,22.3,0,0,1-1.93-6.852c-.249-3.275.15-6.645-.193-9.459-.063-.52-.307-.97-.386-1.447a27.091,27.091,0,0,1-.194-2.992c-.048-1.023-.245-2-.289-2.8a4.6,4.6,0,0,0,0-1.255c-.165-.481-.682-.728-.772-1.158a7.688,7.688,0,0,1,.193-2.413c0-.007,0-.013,0-.019l.246-.078-.24.04c.119-.726.227-1.518.377-2.163.759-3.26,2.712-4.226,4.633-6.274a33.436,33.436,0,0,0,2.606-3.088,37.133,37.133,0,0,1,2.316-3.378,16.325,16.325,0,0,0,2.606-3.088c.6-1.208.041-2.661-.387-3.668Zm-38.76,19.675a3.213,3.213,0,0,1,.1-1.123,3.576,3.576,0,0,0,.25,1.643,1.376,1.376,0,0,1-.351-.519Zm.356-3.814-.065.035.057-.147.07-.175-.061.288Zm.209,4.031a3.038,3.038,0,0,1-.023-1.134,2.32,2.32,0,0,0,.022.337c.006.21.017.419.033.626-.011.058-.021.115-.031.172Zm.2-4.318c-.006.027-.013.054-.019.081l-.1.051c.039-.1.082-.2.129-.3,0,.055-.005.111-.011.166Zm.988,8.892c-.037-.142-.071-.283-.1-.42l-.052-.242c.061.207.126.416.2.626l-.043.037Zm.182-.318c.016.044.031.086.046.13l-.012.01-.034-.139Zm.236-.022,0,0,0,0,0-.006Zm.04-5.832,0,0c0,.026,0,.051.006.077,0-.024-.006-.048-.008-.072Zm.039,5.45h.01l.009.023c.02.089.044.177.067.266l-.014.009c-.026-.1-.05-.2-.072-.3Zm.055-.629-.017-.008c-.005-.04-.011-.08-.017-.12.013.047.024.088.034.128Zm-.022-4.874.009,0c.006.059.011.118.019.177l0,0c-.009-.061-.018-.121-.025-.183Zm.06.029a.069.069,0,0,1,.014.085l-.014-.085Zm.05,5.508,0-.013a1.083,1.083,0,0,1,.12.032c.011.042.025.084.036.125l-.1.05-.052-.194Zm.693-.651.03.1.021.095-.052-.2Zm.258-8.5,0-.011a9.047,9.047,0,0,0,.312-1.225c.009-.045.022-.11.035-.176a5.176,5.176,0,0,1-.1.685,7.61,7.61,0,0,1-.251.727Zm.795,5.588c.009-.012.016-.026.026-.039,0,.016,0,.032,0,.048-.009,0-.017-.006-.025-.01Zm.024-6.933c.045-.1.1-.026.091.025-.046.1-.105.026-.091-.025Zm.24,6.382v-.006h0v.007Zm.062-.242.012-.048c0,.146,0,.292-.007.438V288.8c0-.127-.005-.254,0-.38Zm.341,1.633c-.043-.178-.071-.358-.1-.538a.785.785,0,0,1,.1.022c-.006.172-.009.344,0,.516Zm1.929-1.406c.234.04.158.258.07.483-.123.049-.237.1-.327.142a.555.555,0,0,1,.257-.624Zm-.273-.074c.01-.206.177-.138.322-.108a.26.26,0,0,1-.322.108Zm1.239.081c-.015-.175-.034-.353-.039-.538a1.676,1.676,0,0,0,.2.17,1.836,1.836,0,0,1-.157.368Zm-1.387.465c-.034-.13-.041-.226.025-.091s.013.235-.025.091Zm-.058-.5c.087-.127.1.02.066.116-.087.127-.1-.02-.066-.116Zm.021.6a.232.232,0,0,1,.083.128c-.011.008-.023.015-.032.023l-.021.022c-.01-.058-.022-.115-.03-.173Zm-4.251,4.028c-.027-.094-.055-.188-.077-.281-.011-.043-.021-.085-.031-.128l.135.159.055.188-.082.062Zm26.219-18.087c.055.043.111.084.168.125-.072.072-.143.143-.214.214a.823.823,0,0,1,.047-.339Zm.281.01-.028.029-.1-.094-.063-.062.191.127Zm-.059-.377.113.07c.049.034.1.062.153.091l-.04.043c-.078-.065-.153-.133-.226-.2Zm.026.41-.055.055c-.057-.055-.114-.11-.167-.165.007-.018.019-.036.028-.054l.194.163Zm.05-.712a3.455,3.455,0,0,0,.4.226l.013.005-.174.184a1.619,1.619,0,0,1-.144-.115c-.1-.086-.191-.178-.282-.273a1.143,1.143,0,0,0-.193-.32,2.862,2.862,0,0,0,.384.292Zm-23.126.457.006-.03a.383.383,0,0,0,.054,0,.067.067,0,0,1-.065.052c0-.008,0-.017,0-.026Zm-.65-.82v.007c-.023.04-.044.081-.067.122l-.018-.016c.028-.037.055-.077.084-.113Zm-.162,13.92c0-.041,0-.1,0-.162.123.055.216.507.26.9-.007.059-.014.118-.022.176-.009.116-.017.233-.024.35a.781.781,0,0,0-.145-.019c-.01-.076-.021-.151-.033-.226a10.076,10.076,0,0,1-.041-1.017Zm-.052.066c0-.025,0-.05,0-.075.012-.044.023-.088.036-.131,0,.053-.008.1-.01.137-.035.3-.009.612-.015.924,0-.284-.033-.57-.015-.856Zm-.03-13.6c.005.019.01.037.015.056l-.015.031c0-.029,0-.058,0-.087Zm.013.462c-.013.051-.028.1-.047.152l-.069.118c0-.02-.005-.041-.008-.061.041-.07.082-.14.124-.209Zm-.085-.421c.006.049.015.1.023.146-.031.067-.061.136-.092.2-.005-.078-.008-.156-.01-.234.026-.039.052-.078.079-.116Zm-.136.876-.013-.058.044-.075c.006.016.012.032.018.048l-.049.085Zm-.222-1.618-.047.063c0-.007,0-.014,0-.021l.013-.032.036-.037-.006.027Zm-.1-.285c-.15.176-.3.359-.434.544a3.458,3.458,0,0,1,.236-.672,4.048,4.048,0,0,1,.563-.826,1.833,1.833,0,0,0-.044.179,3.1,3.1,0,0,0-.32.774Zm.306,1.576-.017.042-.016-.169c.009.043.023.085.034.127Zm0,.288c.006.014.012.031.02.047l-.122.212-.05-.006c.05-.085.1-.169.152-.253Zm-.161,7.374c.086-.127.1.02.067.116-.086.127-.1-.02-.067-.116Zm-.345,8.793,0,.012c.013.063.023.127.037.19.034.154.075.307.119.46-.012.009-.021.02-.032.029-.015-.055-.03-.109-.045-.164a1.36,1.36,0,0,1-.083-.526Zm-.162-9.815a.652.652,0,0,1,.074.329c-.031.106-.068.236-.091.308a6.869,6.869,0,0,1-.37,1.012,8.536,8.536,0,0,0,.256-.854c.039-.163.132-.538.124-.541s-.132.372-.186.523l-.094.241c.08-.236.137-.485.206-.721l.08-.3Zm-.017-.021c-.038.1-.083.234-.109.307a8.934,8.934,0,0,1-.484,1.124l-.055.1a3.9,3.9,0,0,0,.2-.464c.142-.361.258-.747.382-1.122a.184.184,0,0,1,.07.053Zm-.993-1.758-.018.017-.024.013.042-.03Zm.612.506q-.147.189-.3.378c-.173.117-.344.237-.514.363.282-.235.552-.485.812-.74Zm.05.4-.058.079c-.053.046-.107.091-.159.14.07-.077.142-.149.217-.219Zm-1.18,2.477c.213-.437.438-.9.708-1.341a3.123,3.123,0,0,1,.4-.268.461.461,0,0,1,.29-.078c-.154.366-.309.747-.493,1.087a2.88,2.88,0,0,1-1.2,1.356c.091-.252.193-.5.3-.756Zm-.333,9.306.037.16c.04.166.085.336.135.507l-.033.026q-.1-.374-.177-.74l.039.046Zm-.08-9.079a4.817,4.817,0,0,0-.2.709l-.153.08a5.305,5.305,0,0,1,.351-.789Zm-.166,9.961c-.079-.316-.136-.626-.186-.923-.039-.233-.075-.452-.109-.67.036.053.072.107.11.159.076.312.157.629.253.97.039.142.083.287.13.433l-.17.149-.028-.118Zm15.815,62.816a68.619,68.619,0,0,1-1.062,8.88c-.667,3.851-1.881,7.064-1.544,11.775a10.677,10.677,0,0,1,.193,2.027,11.207,11.207,0,0,1-.965,2.317,24.565,24.565,0,0,0-2.317,9.458c-.427-.332-.242-.915-.29-1.352-.169-1.544-.33-3.884-1.158-5.018-.162-.222-.339-.362-.386-.58a8.2,8.2,0,0,1,.29-1.929c.271-1.811.538-3.94.869-5.5.824-3.891,2.269-7.741,1.158-12.258-.306-1.243-1.187-2.141-.482-3.474.14-.264.539-.448.676-.772a12.154,12.154,0,0,0,.386-2.124,28.452,28.452,0,0,1,.772-3.474,10.5,10.5,0,0,1,.386-1.448c.348-.672,1.154-.924,1.544-1.545.615-.976.421-1.959,1.061-2.7.293.283-.529,2.224-.386,2.8.165.663,1.1.726,1.255,1.157.176.483-.1,1.182-.1,1.834s.119,1.36.1,1.93Z" transform="translate(-1194.416 -212.201)"/><path class="a" d="M1129.6,243.393a.986.986,0,0,0,.3.714c.211.451.525,1,.786,1.607a23.269,23.269,0,0,0,2.386,4.519,30.884,30.884,0,0,1,2.636,4.143,41.229,41.229,0,0,1,2.511,7.533,67.8,67.8,0,0,0,3.264,10.169c1.337,3.062,2.128,6.379,3.64,9.792.923,2.08,2.276,4.47,3.139,6.9a11.2,11.2,0,0,1,.753,2.511c.006.481-.282.775-.251,1.255a12.432,12.432,0,0,0,1.255,3.766c.477,1.112,1.248,2.2,1.632,3.264.147.409.084,1.011.25,1.507.183.54.7,1,.753,1.381a20.626,20.626,0,0,1-.377,3.139c-.108,1.091-.314,2.132-.376,3.139-.111,1.8.089,3.494-.126,5.022-.119.852-.531,1.676-.627,2.511-.24,2.081.094,4.132-.126,6.026-.223,1.929-1.386,3.647-1.632,5.273a25.055,25.055,0,0,0,.252,5.273,28,28,0,0,1-.378,6.152c-.094.583-.418,1.076-.5,1.632-.048.322.14.69.126,1a19.025,19.025,0,0,1-.5,2.385c-.158.78-.292,1.723-.5,2.384-.113.355-.4.655-.5,1.005-.248.823-.182,1.783-.5,2.636-.464,1.234-1.292,2.448-1.883,3.767-1.18,2.632-2.13,5.112-3.39,7.783-.637,1.35-1.752,2.729-1.883,3.641-.076.523.28,1.042.25,1.506a12.039,12.039,0,0,1-1.38,3.139c-1.276,2.536-2.671,4.546-4.143,6.905-.831,1.331-2.508,4.507-1.632,7.029.24.69.788,1.076,1.13,1.758.54,1.077.632,2.368,1.13,3.514.424.975,1.109,1.89,1.633,2.888a45.791,45.791,0,0,1,2.51,6.654c.747,2.223,1.576,4.4,2.511,6.653a19.377,19.377,0,0,1,1.13,3.39c.423,2.148.354,4.454,1.757,5.774-.8.242-1.277.171-1.757.754-.6.727-.252,2.04-.628,2.511-.321.4-1.339.178-1.758.5a1.7,1.7,0,0,0-.376.754c-.09.35-.119.372.125.752a4.5,4.5,0,0,1-1.13.5c-1.034.255-1.312-.013-1.758.752a2.276,2.276,0,0,0-.252.5c-.766-.228-1.53.32-2.51.5-.763.143-1.833-.065-2.26.378-.549.566-.248,2.235-.377,3.514a20,20,0,0,0,8.663,1.255,55.93,55.93,0,0,0,6.528-1.255c2.416-.493,4.849-.638,6.779-1a7.116,7.116,0,0,0,3.767-1.506c.218-.212.909-.787.377-.879-.087.248-.335.335-.628.377-.008-.275.22-.1.377-.377.268-.479-.455-.326,0-.879.105-.127.244-.18.377-.377a10.672,10.672,0,0,0,1.632-3.013c.067-.9-.68-1.739-.878-2.385a24.464,24.464,0,0,1-.5-4.771,25.2,25.2,0,0,0-.879-4.393c-.772-2.7-1.56-5.415-2.26-8.161-.633-2.481-1.648-5.314-2.385-8.16a49.828,49.828,0,0,0-1.758-6.15c-.254-.633-.848-1.285-.878-1.633a11.368,11.368,0,0,1,.752-2.51,26,26,0,0,1,3.516-6.277c1.5-2.185,2.532-3.862,3.892-5.9a9.94,9.94,0,0,1,2.636-3.139c.344-.263,1.152-1.021,1.506-1,.994.046,1.2,1.977,1.382,2.762.286,1.271.51,2.629.627,3.515.283,2.114.65,5.113,1.507,6.78.744,1.447,1.9,2.562,2.511,4.142s.989,3.355,1.632,5.021c.594,1.541,1.365,3.082,2.009,4.646.66,1.605.972,3.352,1.632,4.9.41.956,1.065,1.88,1.507,2.887a14.786,14.786,0,0,1,1.129,3.265c.2,1.12.182,2.091.377,3.013a9.746,9.746,0,0,0,.753,2.511c.717,1.379,1.767,2.365,2.26,3.767.8,2.279.877,6.042,1.506,8.787.106.459.241.936.377,1.382a3.027,3.027,0,0,1,0,2.511c-.052.184-.216.269-.251.5s.058.62,0,.753c-.275.636-1.1,1.059-1.883,1.758-.633.562-1.154,1.516-1.757,1.883-.217.132-1.266.36-1.633.5-.586.229-1.07.428-1.506.628a8.666,8.666,0,0,0,0,3.641c3.426,1.048,9.672,1.574,13.433.251.729-.256,1.575-.373,2.135-.627.421-.191.939-.713,1.506-1,1.061-.545,2.192-.6,2.135-2.135a3.631,3.631,0,0,0,1.38-.125c.35-2.118,1.933-3.131,1.381-5.775-.214-1.023-1.057-1.891-1.255-2.887-.437-2.2.616-3.984.627-5.774.024-3.623-3.423-6.2-3.515-10.546-.036-1.72.6-3.614.251-5.273a16.815,16.815,0,0,0-1.507-3.64,32.224,32.224,0,0,1-3.139-7.156,29.236,29.236,0,0,1-1.13-4.018c-.05-.563.141-1.209.125-1.757a25.6,25.6,0,0,0-.879-4.017,74.8,74.8,0,0,1-2.009-12.43,42.529,42.529,0,0,0-2.26-12.177c-.692-2.008-1.558-5.055-.879-7.909a1.659,1.659,0,0,1,.126-.628c.1-.17.232-.014.251-.376a8.1,8.1,0,0,0-.377-2.009c-.188-.681-.324-1.393-.5-1.884-.146-.4-.56-.713-.627-1.13-.07-.432.287-1,.251-1.507a7.383,7.383,0,0,0-.753-1.757c-.261-.621-.392-1.368-.628-1.883-.411-.9-1.249-1.61-1.381-2.385-.123-.731.179-2.018.126-3.139a22.286,22.286,0,0,1-.126-3.138,13.235,13.235,0,0,1,1.005-3.139,29.222,29.222,0,0,1,1.13-3.013c.546-1.026,1.375-2.13,2.134-3.264a61.826,61.826,0,0,1,4.268-6.277c.408-.472.875-.9,1.255-1.381s.609-1.149,1-1.632c.889-1.087,2.081-1.83,2.761-3.013.415-.721.707-1.63,1.13-2.511,1.08-2.245,2.7-5.03,2.887-8.034.029-.465-.166-.932-.125-1.38a15.544,15.544,0,0,1,.627-2.512,72.37,72.37,0,0,1,2.26-6.9c.6-1.466,1.225-2.878,1.883-4.269a36.7,36.7,0,0,0,1.883-4.142c.823-2.533,1.1-5.423,1.757-8.16a78.134,78.134,0,0,1,3.39-11.424c.477-1.155.737-2.41,1.255-3.64.416-.988.767-2.091,1.381-3.515.636-1.477,1.994-3.336.628-4.143-.583-.344-.73.235-1-.126-.482-.634-.909-1.592-2.385-1-.291-.254-.168-.921-.627-1-.466-.4-1.4.165-1.757-.126.124-3.058.84-6.186.627-9.164-1.85-1.086-1.9,2.429-2.1,3.825-.121.843-.445,1.643-.537,2.443a15.128,15.128,0,0,1-.873,4.78c-.156.326-.347.64-.5,1a4.6,4.6,0,0,1-.5,1c-.488.58-1.615.508-1.757,1.506-.2,1.4,1.7,2.033,2.134,2.888a5.772,5.772,0,0,1,.251,2.134c-.188,1.749-1.283,3.455-2.134,5.147a63.776,63.776,0,0,0-4.269,10.294c-.263.87-.448,1.725-.619,2.55a4.345,4.345,0,0,0-.169-.507c0-.022.007-.044.012-.067-.164-.275-.283-.566-.466-.835-.191-.327-.4-.638-.607-.941l0,0a5.934,5.934,0,0,0,1.379.708,14.044,14.044,0,0,1-1.111-1.012,7.266,7.266,0,0,1-.861-1.165c-.1-.153-.19-.308-.285-.464l-.042.025a.218.218,0,0,0-.02-.027,11.217,11.217,0,0,0-1.337-.771c-.11-.169-.015-.412-.243-.539,0-.007-.006-.013-.008-.02a.878.878,0,0,0,.443-.2,1.55,1.55,0,0,1-.9,0h0c-.082-.078.073-.243.1-.362a.8.8,0,0,0,.062-.053,1.418,1.418,0,0,0,.392-.667,1.225,1.225,0,0,1-1.161.594c-.074-.007-.148-.019-.222-.032a1,1,0,0,0,.5-.34,1.556,1.556,0,0,1-1.454-.019.588.588,0,0,1-.025-.074,1.008,1.008,0,0,0,.1-.078,1.622,1.622,0,0,0,.465-.756,1.736,1.736,0,0,1-.609.539l-.028.012a.413.413,0,0,0-.047-.1,2.837,2.837,0,0,0-1.447-.008,8.488,8.488,0,0,0-.833-.21,3.443,3.443,0,0,0-.675-.066v.1c-.02-.01-.042-.02-.062-.031a2.408,2.408,0,0,1-.365-.376,2.513,2.513,0,0,0,.834-.391,10.961,10.961,0,0,1-1.787.235,1.264,1.264,0,0,1-.209-.018,4.5,4.5,0,0,0,1.07-.51,10.555,10.555,0,0,1-2.129.3l-.394.017,0,.064a4.225,4.225,0,0,1-1.441-2.525,2.9,2.9,0,0,0,.18,1.738l.018.039a.187.187,0,0,0-.027.043c-.224-.431-.458-.858-.7-1.29a7.058,7.058,0,0,0,.553,1.739l.045.093a3.859,3.859,0,0,1-1.42-2.5,2.113,2.113,0,0,0,0,1.335.473.473,0,0,0,.012.246,1.719,1.719,0,0,1-.426-.851,1.382,1.382,0,0,0,.159.893c.134.26.3.485.435.714a.36.36,0,0,1-.052.058c-.3.054-.358-.284-.556-.474a3.433,3.433,0,0,0-.335-.341,5.045,5.045,0,0,1-.306-.958,2.033,2.033,0,0,0,.111.585,6.117,6.117,0,0,1-.183-.778,2.853,2.853,0,0,0,.221,1.048,4.1,4.1,0,0,1-.252-.9,2.664,2.664,0,0,0,.188.831.174.174,0,0,0-.016-.019,5.558,5.558,0,0,1-.21-.748,2.4,2.4,0,0,0,.136.656l-.02-.025h0c-.122-.348-.158-.583-.172-.576a1.375,1.375,0,0,0,.064.424,2.159,2.159,0,0,1-.321-1.054,1.87,1.87,0,0,0,.122,1.4,5.525,5.525,0,0,0,.6.872.333.333,0,0,1-.041.17c-.068.079-.186.026-.291.008-.21-.291-.406-.607-.609-.917a5.528,5.528,0,0,0,.4,1.155c-.015.369.337.606.274.993a1.783,1.783,0,0,1-.611.846.255.255,0,0,0-.033.142,1.808,1.808,0,0,1-.629.558,1.2,1.2,0,0,0,.589-.241l0,0c-.292.333-.141.618-.433,1.073,0,.255.113.472-.01.774a14.955,14.955,0,0,0-.846,1.8c.008.171.03.337.041.507-.523.706-.948,1.328-1.156,1.587.113.887-.8,1.836-1.381,2.888a9.219,9.219,0,0,0-.753,3.264c-.12.744-.391,1.495-.5,2.386a9.562,9.562,0,0,0-.251,2.511c.112.724,1.061,1.26,1.129,2.008a5.9,5.9,0,0,1-1,2.385,18.13,18.13,0,0,1-1.256,1.632c-.526.658-.985,1.373-1.255,1.632a10.947,10.947,0,0,1-2.134,1.506c-1.067.18-2.569-.81-3.514-1.255-.52-.243-1.094-.522-1.633-.753a15.892,15.892,0,0,1-1.757-.627c-.517-.334-.645-1.063-1.13-1.507-.153-.14-.484-.186-.753-.376a18.053,18.053,0,0,1-3.892-3.389c-.681-.932-1.334-2.233-2.009-3.39-.641-1.1-1.348-2.267-1.882-3.39-1.192-2.5-1.644-5.306-2.637-8.035a64.946,64.946,0,0,0-3.139-7.532c-.613-1.189-1.253-2.327-1.758-3.516-.54-1.275-1.365-2.4-1.757-3.515-.3-.845-.253-2.03-.5-2.761-.207-.6-.975-1.411-1.131-1.884s-.063-1.34-.25-2.008a25.277,25.277,0,0,0-1.507-3.264c-.467-1.017-1.125-2.031-1.633-3.139-.334-.733-.444-1.433-.753-2.134-.524-1.191-1.12-2.227-1.757-3.766-.307-.745-.533-1.707-1.13-1.633-1.5.187.025,3.377.251,4.017.187.528.516,1.33.754,2.009a9.262,9.262,0,0,1,.516,2.177,1.006,1.006,0,0,0-.406-.085,1.036,1.036,0,0,0-1.03,1.036l-.04.042a1.276,1.276,0,0,0-.8-.278,1.162,1.162,0,0,0-1.164.834l-.164.04a.942.942,0,0,0-.289-.045.98.98,0,0,0-.973.987Zm53.942,44.5a9.2,9.2,0,0,1,3.263-5.147c-1.135,1.668-1.327,4.279-3.263,5.147Z" transform="translate(-953.584 -217.451)"/><path class="a" d="M1469.849,264.154a3.411,3.411,0,0,1,.6-1.1,5.092,5.092,0,0,1,2.593-1.994,113.038,113.038,0,0,0,13.26-7.677c1.166-.747,2.057-1.652,3.39-2.493a18.723,18.723,0,0,1,4.188-1.8,14.841,14.841,0,0,1,2.293-.7c.862-.14,1.764-.154,2.692-.3a9.076,9.076,0,0,0,2.293-.7,9.388,9.388,0,0,0,2.093-.9,6.753,6.753,0,0,0,.3-.8c.67-1.561,1.693-1.966,3.39-2.493.168-2.625.921-4.663,1.2-7.178-.978-.139-1.425-1.268-1.4-2.593a14.431,14.431,0,0,1,.4-2.293c.2-.93.58-1.65,1-1.695a.934.934,0,0,1,.368.018,1.014,1.014,0,0,0-.258-.152c-.344-.133-.157-.065-.241-.361-.058-.2-.084-.158.1-.383.133-.165.094-.36.209-.534a.9.9,0,0,0,.21-.5.8.8,0,0,0-.13-.13.61.61,0,0,0,.282-.5.109.109,0,0,0-.08-.139,1.425,1.425,0,0,1-.6.286,1.083,1.083,0,0,1-.7-.107,1.084,1.084,0,0,0,.875-.136.355.355,0,0,1-.126.008c.083-.384.472-.459.63-.8a2.824,2.824,0,0,0,.285-.94.244.244,0,0,0-.119,0,1.944,1.944,0,0,1-.806.77,2.966,2.966,0,0,0,.732-.993l.082-.263c-.033,0-.065,0-.1,0a1.929,1.929,0,0,0-.564.248,8.694,8.694,0,0,0-1.2,1.01,7.83,7.83,0,0,1,.7-.922.421.421,0,0,1,.006-.053,1.857,1.857,0,0,1-.816.225,2.75,2.75,0,0,0,.956-.529,1.573,1.573,0,0,1,.786-.42,6.664,6.664,0,0,1,.94-.3c.178-.043.356-.08.534-.115l.01.05a.278.278,0,0,0,.052-.072,3.252,3.252,0,0,1-.609-.8,5.617,5.617,0,0,0,.645.606c.039-.062.127-.051.263.033a.227.227,0,0,1,.227-.18c.169-.025.419-.135.365-.334a1.662,1.662,0,0,1-.482-.186.842.842,0,0,1-.418-.6,1.1,1.1,0,0,0,1.116.574c.223-.024.483.02.6-.168a.684.684,0,0,1-.25.014.292.292,0,0,1-.251-.253,1.243,1.243,0,0,1,.121-.582,1.271,1.271,0,0,0,0,.552c.053.16.216.1.378.029a5.443,5.443,0,0,0,.9-.649c.147-.121.292-.244.44-.368.075-.062.15-.124.232-.186a1.164,1.164,0,0,1,.155-.1,1.709,1.709,0,0,1,.185-.064,2.789,2.789,0,0,1,.823-.105.947.947,0,0,1-.087-1.01c-.042.321-.017.7.221.857a1.192,1.192,0,0,0,.866.046,3.461,3.461,0,0,1,.989-.152l.067-.086a.749.749,0,0,1,.061-.07,1.051,1.051,0,0,1-.076-.152,4.494,4.494,0,0,1-.128-1.61,6.277,6.277,0,0,0,.383,1.49.505.505,0,0,0,.2.219.582.582,0,0,0,.164.05c.127-.26.511-.829.759-.753a.464.464,0,0,1,.1-.019.508.508,0,0,1,.2.039c-.038-.169-.079-.341-.114-.517a1.764,1.764,0,0,1,.126-1.3,3.115,3.115,0,0,0,.3,1.855.341.341,0,0,1,.072-.02,3.3,3.3,0,0,0,.284-.68,1.214,1.214,0,0,1-.233-.267,1.5,1.5,0,0,1-.135-.369,3.3,3.3,0,0,1-.088-.739,4.237,4.237,0,0,0,.229.69.952.952,0,0,0,.421.509c.055.037.112.072.17.109a2.461,2.461,0,0,1,.122-1.331,2.677,2.677,0,0,0,.179,1.4c.021.017.044.038.069.062.072.072.138.143.2.213a1.817,1.817,0,0,1,1.287-.966,1.915,1.915,0,0,0-1.063,1.18c-.006.014-.012.029-.018.044.092.125.176.258.265.406.064.108.163.275.276.429l.21.04a7.274,7.274,0,0,1,.83.2,7.134,7.134,0,0,1,.99.18c-.172,0-.342,0-.515,0a3.563,3.563,0,0,1,.4.2,2.052,2.052,0,0,0,.771.3,2.168,2.168,0,0,0,.839-.147,1.984,1.984,0,0,1-.839.326,2.023,2.023,0,0,1-.9-.191,5.194,5.194,0,0,0-.858-.274,1.038,1.038,0,0,1,.08.11c-.1,0-.375-.155-.46-.039a1.162,1.162,0,0,1,.129.238q.063.08.125.162a.935.935,0,0,1,.59.088,2.873,2.873,0,0,1,.781.714c.08-.029.164-.059.248-.088a2.634,2.634,0,0,1,.505-.125,1.226,1.226,0,0,1,.549.068,4.432,4.432,0,0,1,.449.177,2.4,2.4,0,0,1,.457-.375c-.024.039-.047.076-.072.114a2.693,2.693,0,0,0,.46-.61,2.606,2.606,0,0,1-.553.994c.051.02.1.038.154.053a.843.843,0,0,0,.853-.176.909.909,0,0,1-.89.368,2.7,2.7,0,0,1-.293-.053c-.093.094-.189.183-.288.268s-.184.146-.279.214a4.343,4.343,0,0,0,1.272.046,3.4,3.4,0,0,1-1.561.181l-.02.025a6.088,6.088,0,0,1,.937.535c.218.1.427.2.637.288a2.134,2.134,0,0,0,.881.2,1.6,1.6,0,0,0,.871-.311,1.578,1.578,0,0,1-.847.507,2.152,2.152,0,0,1-1.015-.07l-.149-.043c.161.19.292.388.429.576a1.586,1.586,0,0,0,1.176.824,1.163,1.163,0,0,1-.772-.138,2.466,2.466,0,0,1-.584-.478c-.006.009-.011.018-.018.026a.634.634,0,0,0-.043-.091,5.768,5.768,0,0,0-.656-.677.582.582,0,0,0-.355-.1c.122.181.237.366.343.555.177.2.364.392.556.579.254.248.256.506.424.78.027.046.058.093.09.14a1.092,1.092,0,0,0,.787.031.789.789,0,0,1-.59.132c-.033,0-.063-.008-.1-.013a3.349,3.349,0,0,1,.241.4c.166.344-.084.359-.114.5a.62.62,0,0,0,.078,0c.486-.008.846-.562,1.061-1.065a2.466,2.466,0,0,1-.287.817,1.154,1.154,0,0,1-.485.468c-.021.123-.156.174-.275.262a.118.118,0,0,0-.043.09.986.986,0,0,0,.575.283,3.123,3.123,0,0,1,.477-.325.474.474,0,0,1-.231.29,2.627,2.627,0,0,0,.9-.615,2.146,2.146,0,0,1-.877.827.863.863,0,0,1-.424.055.237.237,0,0,0-.081.136.743.743,0,0,0,.061.123l.041.017a1.519,1.519,0,0,1,.769.657c.16.29.261.583.4.872-.2-.247-.367-.527-.559-.762a1.185,1.185,0,0,0-.223-.214.654.654,0,0,1,.083.264,2.153,2.153,0,0,1,.278.732,2.438,2.438,0,0,0-.71-.937c0,.031,0,.062-.006.093a3.784,3.784,0,0,0,.136,1.456,1.011,1.011,0,0,0,.428.537,1.4,1.4,0,0,0,.726.162,1.365,1.365,0,0,1-.792-.018,1.147,1.147,0,0,1-.611-.565,2.509,2.509,0,0,1-.25-.877,1.358,1.358,0,0,0,.01.6,6.445,6.445,0,0,1,.239,1.039c.014.017.025.035.039.051a1.475,1.475,0,0,0,.6.509,1.3,1.3,0,0,1-.646-.336.137.137,0,0,1-.028.054.092.092,0,0,0,.014-.065l-.057-.048a5.181,5.181,0,0,1-.561-.605l-.122-.156a1.919,1.919,0,0,0-.214,1.019,3.326,3.326,0,0,1-.046,1.217c-.088.334-.376.641-.305.956a1.6,1.6,0,0,1-.141,1.065c-.015-.007-.03-.017-.045-.024a8.512,8.512,0,0,1-.466,1.155c-.594,1.333-1.167,2.775-2.094,3.39-.385.112-.875-.179-1,0-.412,1.217-1.265,1.992-1.6,3.29,1.43-.2.234-.974,2.094-2.792a16.717,16.717,0,0,0,3.689-3.091,20.748,20.748,0,0,1,1.8-1.5c3.063-2.435,5.912-5.075,8.973-7.577,1.321-1.08,1.948-1.4,1.894-3.391a25.6,25.6,0,0,0-.9-4.586c-.122-.582-.2-1.17-.3-1.795-.392-2.538-.962-4.848-1.5-6.979a26.912,26.912,0,0,0-1.6-5.185,9.471,9.471,0,0,0-.4-.9c-.2-.318-.529-.414-.6-.7-.046-.189.187-.334.2-.6a2.49,2.49,0,0,0-.7-1.695c-.23-.13-.563.039-.9,0a6.156,6.156,0,0,1-2.492-1c-.447-.262-.928-.636-1.4-.9a8.813,8.813,0,0,1-1.6-.8,6.716,6.716,0,0,1-.7-1.4,4.011,4.011,0,0,1-.7-1.4,6.9,6.9,0,0,0,.2-1c.019-.59-.268-1.094-.2-1.4a1.446,1.446,0,0,1,.6-.7c.06-.037.367,0,.4-.1a2,2,0,0,1,1.207-1.153,1.207,1.207,0,0,1,1.086.256c.256-.321,0-.64,0-1.1-.005-1.318.879-1.359,1.995-.8.835-.829,1.487-.088,2.093.4.291.232.674.463.8.6.211.231.27.561.5.8a19.477,19.477,0,0,0,1.994,1.5,9.136,9.136,0,0,1,2.891,4.088c.314.836.477,1.757.8,2.692.082.237.289.512.4.8a14.432,14.432,0,0,0,1.2,3.29c.176.242.583.327.8.6a22.127,22.127,0,0,1,1,1.994,29.155,29.155,0,0,1,1.994,3.988c.291.733.667,1.418,1,2.094a63.663,63.663,0,0,1,2.493,6.481c.271.758.726,1.371,1,2.094.207.552.284,1.314.5,1.994a10.547,10.547,0,0,1,.6,1.994,5.314,5.314,0,0,1-.4,2.093,31.571,31.571,0,0,1-2.592,3.789c-.9,1.229-1.764,2.549-2.692,3.788-2.667,3.556-5.731,7.361-7.479,11.765-.607,1.531-1.235,3.068-1.795,4.686-.511,1.476-1.1,3.164-1.794,4.686-.641,1.411-1.813,3.092-1.994,4.487-.111.867.049,1.887,0,2.991-.091,2.057-.224,4.493-.1,6.68.156,2.721.514,5.558,1.5,7.178.26.429.76.776,1,1.3a5.416,5.416,0,0,1,.3,3.788,4.952,4.952,0,0,1-.7.9c-.186.225-.689.676-.7.9-.012.284.72.82.9,1,.029.029-.032.176,0,.2.15.1.339.027.5.2.234.252.4.76.7,1.1a6.061,6.061,0,0,0,.6.5,5.356,5.356,0,0,1,1.1,1.2,43.045,43.045,0,0,1,3.091,4.686,71.341,71.341,0,0,1,3.788,9.571c.415,1.133.6,2.366,1,3.489.392,1.1.783,2.237,1.2,3.291.448,1.142.737,2.252,1.1,3.389,1.443,4.559,2.75,9.124,4.288,13.559a82.091,82.091,0,0,1,3.29,10.17c.256,1.21.337,2.557.7,3.789.22.751.616,1.472.9,2.194a15.711,15.711,0,0,1,.8,2.392c.376,1.724.534,3.535,1,5.285.435,1.64.812,3.319,1.3,4.985.479,1.647,1.079,3.33,1.4,4.984.345,1.807.518,3.664.8,5.484.268,1.739.684,3.444,1.1,5.185a37.463,37.463,0,0,1,.7,5.584c.157,1.891.583,3.833.7,5.683.084,1.355-.093,2.791,0,4.187.118,1.794.979,2.987,1.1,4.586a6.832,6.832,0,0,1-.2,2.293,6.661,6.661,0,0,1-1.667.043,9.079,9.079,0,0,0-2.222-.242c.338.5.065.886.625,1.058l.073.338c.725.343,1.293.282,1.794.7a10.855,10.855,0,0,1,2.294,3.688c-.067,1.414.883,1.419,1.1,2.193a1.812,1.812,0,0,1-1,2.195,12.791,12.791,0,0,1-3.889.9c-2.692.4-6.844.791-7.776-1.2a7.081,7.081,0,0,1-.2-1.9,14.547,14.547,0,0,1-.3-1.694c.021-.192.242-.355.3-.5.381-.958-.06-1.3-.3-2.292-.1-.416-.208-1.626-.3-1.7v-.2c.312-.375-.068-.286-.053-1.047-1.26.5-3.14-.317-4.035.549a7.219,7.219,0,0,1-.9-3.191,13.758,13.758,0,0,0,0-1.694,8.959,8.959,0,0,0-1.3-2.493,7.773,7.773,0,0,1-1.1-2.791c-.1-.862,0-1.754-.1-2.593-.287-2.447-.871-4.816-1.1-7.278a47.475,47.475,0,0,0-.7-4.885,35.788,35.788,0,0,1-.6-4.985c-.09-1.527-.436-3.169-.7-4.786-.277-1.712-.266-3.436-.5-5.084a25.466,25.466,0,0,0-1.2-4.388,33.959,33.959,0,0,0-3.69-7.377c-2.8-4.677-4.306-10.466-5.882-16.351-.375-1.4-.926-2.768-1.4-4.188-.944-2.85-1.3-5.917-2.293-8.873-.825,1.156-1.39,2.464-2.194,3.689a22.238,22.238,0,0,0-2.392,3.588c-.211.556-.225,1.114-.4,1.6a10.926,10.926,0,0,1-.7,1.3,28.345,28.345,0,0,1-3.091,4.984,14.721,14.721,0,0,0-1.795,2.293c-.29.565-.452,1.264-.7,1.895-.239.613-.439,1.28-.7,1.894-1,2.38-2.588,4.454-3.688,6.68-.581,1.174-1.361,2.255-1.894,3.389-.379.805-.629,1.688-1,2.492s-.9,1.516-1.2,2.293a38.253,38.253,0,0,0-1.1,4.187,30.716,30.716,0,0,0-.9,4.388c-.213,2.963.354,5.958.5,8.873a32.132,32.132,0,0,1-.8,7.08c-.291,1.855-.886,3.654-1,5.484-.109,1.787-.049,3.405-.2,5.084-.067.742-.367,1.448-.5,2.193a26.115,26.115,0,0,1-.9,4.487,10.276,10.276,0,0,0-.8,1.994c-.13.9.109,1.773,0,2.593a7.447,7.447,0,0,1-.4,1.4c-.543,1.441-1.464,1.725-3.389,1.4a4.634,4.634,0,0,1-.2,1.595c-.217.687-.668.973-.7,1.4a11.667,11.667,0,0,1,1.594.3,5.2,5.2,0,0,1-.2,1.5c-7.946-.661-16.254-.961-23.529-2.293a3.067,3.067,0,0,1,.1-1.595h1.894a1.088,1.088,0,0,1-.1-1c.2-.474.792-.518,1.4-.8a5.758,5.758,0,0,1,1.5-.7c.617-.063,1.257.284,1.794.1s.817-.958,1.4-1.5a3.51,3.51,0,0,1,3.489-1.2c-.787-.788-.7-1.544-.5-2.691.245-1.4.639-2.467.8-3.689.115-.883.136-1.858.2-2.792a24.549,24.549,0,0,0,.1-2.891,35.815,35.815,0,0,1,.2-4.188c.187-3.374-.026-6.519.3-9.672.188-1.834.779-3.624.9-5.382.041-.616-.061-1.213,0-1.795a18.992,18.992,0,0,1,1-3.59,19.413,19.413,0,0,0,.8-3.888c.3-2.987,0-6.034.2-9.172.131-2.126,1.136-4.178,1.595-6.381a32.21,32.21,0,0,1,.7-3.291c.717-2.248,1.32-4.1,1.994-6.081.694-2.038,1.509-3.993,2.295-5.783a23.493,23.493,0,0,0,.9-3.19c.58-2.055,1.841-4.025,2.691-6.182.418-1.059.8-2.16,1.3-3.19s.971-2.13,1.5-2.992c.341-.561.874-1.026,1.2-1.594a7.9,7.9,0,0,0,1-2.494,23.373,23.373,0,0,0-.1-3.888c-.109-1.638-.79-2.745-1-4.088-.085-.557.016-1.143-.1-1.695a3.44,3.44,0,0,1-2.393-1.3,10.36,10.36,0,0,1-1.595-4.088c-.3-1.36-.6-2.5-.9-3.689-1.2-4.786-2.312-10.922-3.59-15.155-1.181.163-2.815-.328-3.987.2.512.663,3.534.514,3.589,1.4.024.391-.523.529-.7.6-.953.375-2.338-.269-3.19-.4a6.261,6.261,0,0,1-.8,0c-.3-.05-.648-.191-.8-.2-.264-.013-.617.189-1,.2-.363.011-.778-.129-1.1-.1-.873.081-1.613.41-2.293.4-1.647-.027-2.038-.813-2.792-1.4a4.958,4.958,0,0,0-.5-.3,5.374,5.374,0,0,0-1.4.1,16.712,16.712,0,0,1-6.979-.8,10.514,10.514,0,0,1-2.592-1.3,5.057,5.057,0,0,1-1.1-1.7c-.159-.469-.078-1.073-.2-1.7a5.647,5.647,0,0,1-.3-1.694Zm54.4-41.518-.113-.026a.181.181,0,0,0,.113.026Zm2.021,6.113.049-.037a.729.729,0,0,1-.125-.042l-.016-.007a.271.271,0,0,0,.092.086Zm-.306,2.686c.079.128.159.254.242.378a2.8,2.8,0,0,0-.439-.772c0,.014-.01.028-.015.041.07.119.14.236.212.353Zm-17.372-5.023h0c.034-.042.067-.086.1-.13-.058.006-.093.049-.1.129Zm10.556-7.136c-.043-.035-.087-.071-.13-.108l-.028-.025a2.368,2.368,0,0,1-.15.7.229.229,0,0,1,.033.021,1.284,1.284,0,0,1-.12.213l-.044.115a2.272,2.272,0,0,1,.032.327,1.746,1.746,0,0,1-.008.2l.023,0c.143-.339.311-.668.43-1.016.168-.492-.045-.233-.038-.429Zm4.884,3.612.02-.033c-.166-.267-.421-.107-.625.112a1.059,1.059,0,0,0,.1.046c.046.025.093.049.141.071q.188-.091.366-.2Zm-35.635,43.159c1.317-.074,2.7-.31,4.287-.3-.324-.542-1.622-.595-2.592-.6a5.708,5.708,0,0,0-2.991.7c.194.616.915.222,1.3.2Z" transform="translate(-1480.835 -184.599)"/></g></svg>