<svg xmlns="http://www.w3.org/2000/svg" xmlns:xlink="http://www.w3.org/1999/xlink" width="293.379" height="152.848" viewBox="0 0 293.379 152.848"><defs><style>.a{fill:url(#a);}.b{fill:url(#b);}.c{fill:url(#c);}.d{fill:#92a6eb;}.e{fill:#ea971d;}.f{fill:#f2d265;}.g{fill:#6a74ef;}.h{fill:#ffbe55;}</style><linearGradient id="a" x1="0.5" x2="0.5" y2="1" gradientUnits="objectBoundingBox"><stop offset="0" stop-color="#e9aa4a"/><stop offset="1" stop-color="#f2d265"/></linearGradient><linearGradient id="b" x1="0.5" x2="0.5" y2="1" gradientUnits="objectBoundingBox"><stop offset="0" stop-color="#6a74ef"/><stop offset="1" stop-color="#92a6eb"/></linearGradient><linearGradient id="c" x1="0.5" x2="0.5" y2="1" gradientUnits="objectBoundingBox"><stop offset="0" stop-color="#ea971d"/><stop offset="1" stop-color="#e9aa4a"/></linearGradient></defs><g transform="translate(-15.545 -15.735)"><g transform="matrix(-0.966, -0.259, 0.259, -0.966, 295.032, 120.665)"><g transform="translate(0)"><path class="a" d="M31.648,5.022a19.945,19.945,0,0,0-3.265,1.33,6.729,6.729,0,0,0-2.5,2.028,2.506,2.506,0,0,0-.24.48,1.653,1.653,0,0,0-.068.228l-.053.282a2.49,2.49,0,0,0,.148.809,16.981,16.981,0,0,0,1.865,3.306,25.9,25.9,0,0,1,2.6,4.763,12.4,12.4,0,0,1,.732,6.53,13,13,0,0,1-.377,1.63,14.723,14.723,0,0,1-.581,1.572l-.12.271-.1.213-.091.187q-.184.374-.4.739a12.5,12.5,0,0,1-.947,1.4,15.23,15.23,0,0,1-4.907,4,43.376,43.376,0,0,1-4.805,2.116,38.629,38.629,0,0,0-3.928,1.7,11.879,11.879,0,0,0-1.493.921c-.209.153-.438.338-.585.474l-.139.126-.109.1-.055.05c.09-.078.024-.019.043-.035l0,0-.007.008a1.237,1.237,0,0,0-.1.127,2.425,2.425,0,0,0-.311.675,10.593,10.593,0,0,0-.327,1.489A29.854,29.854,0,0,1,10.4,47.907,13.414,13.414,0,0,1,8.74,51.184a13.347,13.347,0,0,1-2.282,2.492L0,46.1c.029-.017.065-.036.092-.054a3.3,3.3,0,0,0,1.292-1.522,22.866,22.866,0,0,0,1.021-3.849,18.1,18.1,0,0,1,.966-3.054A11.154,11.154,0,0,1,5.541,34.3c.237-.249.486-.483.742-.7l.142-.122.057-.047.116-.092.318-.25c.467-.358.877-.635,1.326-.918a20.719,20.719,0,0,1,2.633-1.385,46.447,46.447,0,0,1,4.875-1.752,36.769,36.769,0,0,0,3.966-1.413,7.585,7.585,0,0,0,2.546-1.708,4.9,4.9,0,0,0,.42-.524c.066-.093.129-.188.187-.289l.046-.075L22.927,25l-.024.049.01-.017.033-.066.137-.263c.082-.161.2-.4.283-.627a6.551,6.551,0,0,0,.207-.66,5.01,5.01,0,0,0-.143-2.777,19.274,19.274,0,0,0-1.73-3.631,21.275,21.275,0,0,1-2.325-5.142A8.288,8.288,0,0,1,19.3,8l.09-.346c.049-.175.107-.381.158-.516a8.115,8.115,0,0,1,.359-.874,8.848,8.848,0,0,1,.954-1.556A12.685,12.685,0,0,1,25.8,1.024,23.542,23.542,0,0,1,28.554,0Z"/></g><g transform="translate(48.927 8.501)"><path class="b" d="M25.035,76.205c.007-.122.024-.259.027-.375a6.719,6.719,0,0,0-.126-1.614,2.837,2.837,0,0,0-.372-.942c-.042-.063-.086-.127-.138-.19-.035-.036-.037-.05-.1-.109l-.179-.177c-.247-.237-.545-.5-.88-.766-.674-.544-1.495-1.136-2.4-1.806a35.183,35.183,0,0,1-2.916-2.368,16.406,16.406,0,0,1-2.974-3.574,12.522,12.522,0,0,1-1.717-5c-.026-.217-.045-.433-.06-.649l-.017-.32-.011-.385.011-.618c.01-.316.034-.507.056-.762a11.051,11.051,0,0,1,.7-2.8,13.811,13.811,0,0,1,2.583-4.074c.9-1.017,1.74-1.8,2.469-2.5A14.324,14.324,0,0,0,22,43.585a5.754,5.754,0,0,0,.566-1.7,7.149,7.149,0,0,0,.094-.95v-.5c-.011-.156-.017-.314-.038-.47a8.245,8.245,0,0,0-1.606-3.851,23.821,23.821,0,0,0-3.694-3.927c-2.926-2.6-6.455-4.964-9.873-8.169a26.227,26.227,0,0,1-2.5-2.7,17.385,17.385,0,0,1-1.149-1.632L3.6,19.349l-.252-.442c-.182-.314-.319-.591-.462-.873a26.477,26.477,0,0,1-2.213-6.88A46.349,46.349,0,0,1,.1,0L5.962.443A40.116,40.116,0,0,0,7.018,9.787a19.837,19.837,0,0,0,1.946,5.04c.108.182.216.373.31.509l.153.237.225.326a11.034,11.034,0,0,0,.735.909,19.391,19.391,0,0,0,1.92,1.829c2.89,2.423,6.536,4.59,10.117,7.371a31.892,31.892,0,0,1,5.254,5,16.917,16.917,0,0,1,3.609,7.545c.071.364.119.731.166,1.1l.052.631.027.455a15.867,15.867,0,0,1-.06,2.209,14.9,14.9,0,0,1-1.109,4.378,22.653,22.653,0,0,1-4.532,6.5c-.742.806-1.4,1.517-1.86,2.114a3.775,3.775,0,0,0-.737,1.282,2.28,2.28,0,0,0,.483,1.6,13.075,13.075,0,0,0,3.288,2.658c.827.542,1.759,1.126,2.777,1.846.509.362,1.04.758,1.588,1.216l.409.352c.136.117.319.291.474.439.32.312.626.643.917.988a13.818,13.818,0,0,1,2.538,4.636,17.487,17.487,0,0,1,.8,4.612Z"/></g><g transform="translate(70.225 5.289)"><path class="c" d="M60.25,38.565a9.074,9.074,0,0,0-3.537-2.305,9.9,9.9,0,0,0-3.683-.514L47.7,36.1a33.026,33.026,0,0,1-6.247-.069,12.356,12.356,0,0,1-3.9-1.152,10.1,10.1,0,0,1-1.921-1.246c-.15-.12-.291-.247-.43-.375L34.931,33l-.117-.121a8.844,8.844,0,0,1-.858-1.036,11.675,11.675,0,0,1-1.674-3.762c-.292-1.1-.457-2.051-.625-2.9a12.828,12.828,0,0,0-1.182-3.88,4.694,4.694,0,0,0-.915-1.164,5.021,5.021,0,0,0-.642-.5c-.033-.021-.149-.1-.256-.156s-.22-.117-.339-.174a11.018,11.018,0,0,0-3.906-.786c-1.582-.1-3.339-.049-5.243-.071a23.455,23.455,0,0,1-6.352-.764A17.789,17.789,0,0,1,2.584,9.448,21.5,21.5,0,0,1,0,1.546L6.379,0A15.221,15.221,0,0,0,8.421,5.99,11.21,11.21,0,0,0,11.189,9.04,10.421,10.421,0,0,0,14.78,10.8a17.127,17.127,0,0,0,4.369.3c1.7-.034,3.545-.155,5.565-.109a18.4,18.4,0,0,1,6.653,1.221c.3.124.589.256.881.406s.566.3.915.516a12.846,12.846,0,0,1,1.522,1.111,12.567,12.567,0,0,1,2.545,2.958,20,20,0,0,1,2.334,6.285c.209.911.391,1.73.588,2.364a3.484,3.484,0,0,0,.512,1.15c.026.032.056.052.006,0l.121.117c.021.021-.121-.118-.058-.058l.006,0,.011.008.021.017a.617.617,0,0,0,.083.064,1.8,1.8,0,0,0,.355.2,4.331,4.331,0,0,0,1.284.28,26.14,26.14,0,0,0,4.544-.155l2.639-.271,1.36-.142L51.718,27l.336-.033.428-.033a18.847,18.847,0,0,1,6.988.743,17.227,17.227,0,0,1,2.647,1.053C61.589,31.484,60.833,35.441,60.25,38.565Z"/></g></g><g transform="matrix(0.259, 0.966, -0.966, 0.259, 129.442, 0)"><g transform="translate(60.063 120.409)"><path class="d" d="M6.8,0a6.8,6.8,0,1,0,6.8,6.8A6.807,6.807,0,0,0,6.8,0Zm0,11.9a5.1,5.1,0,1,1,5.1-5.1A5.1,5.1,0,0,1,6.8,11.9Z"/></g><g transform="translate(51.846 72.245)"><path class="e" d="M10.482,0A10.482,10.482,0,1,0,20.965,10.482,10.494,10.494,0,0,0,10.482,0Zm0,19.266a8.782,8.782,0,1,1,8.782-8.782A8.793,8.793,0,0,1,10.482,19.266Z"/></g><g transform="translate(0 62.754)"><path class="f" d="M14.449,0A14.449,14.449,0,1,0,28.9,14.449,14.465,14.465,0,0,0,14.449,0Zm0,27.2A12.749,12.749,0,1,1,27.2,14.449,12.764,12.764,0,0,1,14.449,27.2Z"/></g><g transform="translate(16.29)"><path class="g" d="M18.416,0A18.416,18.416,0,1,0,36.831,18.416,18.437,18.437,0,0,0,18.416,0Zm0,35.131A16.716,16.716,0,1,1,35.132,18.415,16.735,16.735,0,0,1,18.416,35.131Z"/></g></g><g transform="translate(77.103 66.051)"><path class="h" d="M1182.56,570.976a.462.462,0,0,1,.23-.805c2.071-.288,4.142.633,6.04,1.668-.058-2.186-.173-4.66.748-6.558a.271.271,0,0,1,.46-.057c1.208,2.071,1.151,5.12,1.381,7.421a35.95,35.95,0,0,0,2.991-2.934,3.546,3.546,0,0,1,2.186-1.553.716.716,0,0,1,.806.633c0,1.9-2.186,3.8-4.142,5.235a26.667,26.667,0,0,1,5.58,2.819.9.9,0,0,1-.46,1.611c-2.186.288-4.487-.92-6.5-2.129.173,1.553.4,3.106.633,4.66.288,1.726-2.128,2.186-2.819.748a12.225,12.225,0,0,1-.863-4.487,15.685,15.685,0,0,1-5.58,2.7c-.23.058-.4-.288-.23-.46,1.783-1.726,3.854-3.164,5.81-4.717v-.23A35.319,35.319,0,0,1,1182.56,570.976Z" transform="translate(-1130.363 -519.604)"/><path class="h" d="M1231.479,581.928c-1.726-.23-3.337-.92-5.12-.748a.453.453,0,0,0-.115.863c1.726.748,3.452.46,5.235.173A.145.145,0,0,0,1231.479,581.928Z" transform="translate(-1187.854 -526.414)"/><path class="h" d="M1254.934,582.214c-2.013-.46-4.314-1.093-6.27-.23a.768.768,0,0,0,0,1.381,7.74,7.74,0,0,0,6.385-.288A.453.453,0,0,0,1254.934,582.214Z" transform="translate(-1224.367 -526.585)"/><path class="h" d="M1281.26,583.534a21.2,21.2,0,0,0-4.2-.633c-1.266-.115-2.761-.575-3.912.058a.737.737,0,0,0-.173,1.266c.978.978,2.474.805,3.8.863a14.638,14.638,0,0,0,4.487-.288C1281.834,584.684,1281.777,583.764,1281.26,583.534Z" transform="translate(-1264.787 -527.042)"/><path class="h" d="M1220.3,591.5a8.3,8.3,0,0,0-2.416.633,3.891,3.891,0,0,0-2.071,1.5.681.681,0,0,0,.633,1.093,3.942,3.942,0,0,0,2.359-.978,10.159,10.159,0,0,0,1.783-1.726A.324.324,0,0,0,1220.3,591.5Z" transform="translate(-1170.984 -530.809)"/><path class="h" d="M1238.148,602.97a10.006,10.006,0,0,0-3.682,2.416.549.549,0,0,0,.46.863,5.263,5.263,0,0,0,3.8-2.7C1238.839,603.2,1238.494,602.8,1238.148,602.97Z" transform="translate(-1199.816 -535.663)"/><path class="h" d="M1263.648,618.585a13.873,13.873,0,0,0-6.673,5.063.559.559,0,0,0,.748.805,42.5,42.5,0,0,0,6.328-5.235A.382.382,0,0,0,1263.648,618.585Z" transform="translate(-1238.202 -542.304)"/><path class="h" d="M1251.949,589.793c-7.191,2.531-15.187,4.084-21.8,8.054-.46.288,0,.978.46.748,6.961-2.991,15.417-3.8,21.515-8.514C1252.294,589.966,1252.179,589.736,1251.949,589.793Z" transform="translate(-1210.74 -530.08)"/><path class="h" d="M1230.431,601.7a.277.277,0,0,0-.345-.115c-1.783.518-3.509,2.876-4.89,4.084a48.821,48.821,0,0,0-6.213,6.673c-4.084,4.89-8.572,10.24-10.3,16.453-.173.69.805.978,1.208.518,4.43-5.35,8-11.448,12.426-16.913a82.047,82.047,0,0,1,5.638-6.213C1228.992,605.092,1231.121,603.367,1230.431,601.7Z" transform="translate(-1176.853 -535.082)"/><path class="h" d="M1203.126,609.707a10.893,10.893,0,0,0-.69-4.084.148.148,0,0,0-.288.057,24.033,24.033,0,0,0-.46,4.027c-.115,1.151-.633,2.416-.115,3.567a.572.572,0,0,0,.978.115C1203.357,612.411,1203.126,610.973,1203.126,609.707Z" transform="translate(-1145.234 -536.763)"/><path class="h" d="M1204.889,630.886a27.938,27.938,0,0,1-.172-3.8,1.1,1.1,0,0,0-2.186-.288,19.47,19.47,0,0,0-.23,3.682c0,1.208,0,2.186,1.151,2.761a.741.741,0,0,0,.69-.057C1204.889,632.555,1204.889,631.864,1204.889,630.886Z" transform="translate(-1147.515 -545.401)"/><path class="h" d="M1202.476,656.613a35.422,35.422,0,0,0-.633-4.315,4.556,4.556,0,0,0-1.266-2.761.394.394,0,0,0-.575.115,5.385,5.385,0,0,0-.23,2.876c.057,1.438.057,2.934.173,4.372A1.276,1.276,0,0,0,1202.476,656.613Z" transform="translate(-1143.606 -555.423)"/><path class="h" d="M1220.668,624.541c-3.567,6.156-4.717,13.807-5.465,20.767a.378.378,0,0,0,.748.115c1.323-7.076,3.509-13.806,5-20.825C1220.956,624.426,1220.726,624.426,1220.668,624.541Z" transform="translate(-1171.003 -544.808)"/><path class="h" d="M1184.227,602.4c-.575-.863-1.841-2.589-3.049-2.071a.706.706,0,0,0-.46.805c0,.518.518.978.806,1.438a8.857,8.857,0,0,1,.978,1.783c.288.575.575,1.553,1.151,1.956.4.288,1.093.69,1.553.23C1186.413,605.392,1184.917,603.494,1184.227,602.4Z" transform="translate(-1115.865 -534.519)"/><path class="h" d="M1171.41,625.335a7.994,7.994,0,0,0-1.553-2.819,38.241,38.241,0,0,0-2.071-3.221.39.39,0,0,0-.69.288,9.371,9.371,0,0,0,1.266,3.394,7.24,7.24,0,0,0,2.359,2.876C1171.008,626.025,1171.468,625.68,1171.41,625.335Z" transform="translate(-1093.787 -542.553)"/><path class="h" d="M1159.179,642.779c-.575-1.036-1.208-2.014-1.784-3.049-.748-1.266-2.589.115-1.783,1.381.518.805,1.093,1.668,1.553,2.474a5.4,5.4,0,0,0,1.841,2.243.465.465,0,0,0,.633-.23A3.256,3.256,0,0,0,1159.179,642.779Z" transform="translate(-1075.458 -551.081)"/><path class="h" d="M1186.789,625.91a52.6,52.6,0,0,0-3.567-8.744c-1.323-2.876-2.359-6.1-4.2-8.629a.19.19,0,0,0-.345.115c.288,3.164,1.841,6.213,2.991,9.147a48.133,48.133,0,0,0,4.142,8.686C1186.214,627.061,1186.9,626.485,1186.789,625.91Z" transform="translate(-1115.839 -538.009)"/><path class="h" d="M1152.19,613.451c-1.841-3.106-5.062-5.638-7.536-8.226a65.372,65.372,0,0,0-7.823-7.133c-4.947-3.624-11.448-5-15.878-9.319-.115-.115-.288.057-.23.172,3.452,4.89,9.2,7.133,14.037,10.412,3.221,2.186,5.983,5.235,8.629,8.054,2.358,2.474,4.717,5.7,7.824,7.248C1152.017,615.119,1152.535,614.141,1152.19,613.451Z" transform="translate(-1047.989 -529.634)"/><path class="h" d="M1146.813,555.3a117.611,117.611,0,0,0-24.967,3.049c-7.421,1.726-15.82,4.084-21.688,9.089a.567.567,0,0,0,.518.978c3.682-1.208,7.191-2.876,10.815-4.2A100,100,0,0,1,1123.17,561c7.881-1.726,15.935-2.416,23.874-4.084C1148.136,556.738,1147.906,555.3,1146.813,555.3Z" transform="translate(-1031.51 -515.434)"/><path class="h" d="M1167.762,579.851c-.69-1.553-2.819-.92-4.142-.69-.978.173-1.956.4-2.934.633a3.669,3.669,0,0,0-2.071.633c-.058.057-.115.115-.058.23.518,1.266,2.819.92,3.854.805s2.071-.23,3.049-.288c.863-.057,1.668.058,2.244-.69A.834.834,0,0,0,1167.762,579.851Z" transform="translate(-1085.249 -525.431)"/><path class="h" d="M1145.649,577.318a6.277,6.277,0,0,0-3.566-.23,12.4,12.4,0,0,0-4.314.978.489.489,0,0,0,0,.863,14.9,14.9,0,0,0,7.824-.518A.592.592,0,0,0,1145.649,577.318Z" transform="translate(-1051.343 -524.624)"/><path class="h" d="M1122.694,576.678a4.947,4.947,0,0,0-3.106-.92c-.978,0-2.531-.23-3.394.23a.706.706,0,0,0-.288,1.093c.633.805,2.128.863,3.049.978a7.1,7.1,0,0,0,3.624-.4A.593.593,0,0,0,1122.694,576.678Z" transform="translate(-1015.732 -524.098)"/><path class="h" d="M1142.05,591.623A77.492,77.492,0,0,0,1130.6,589.9l-5.7-.518c-1.438-.173-3.106-.575-4.429,0-.173.058-.173.23-.057.345,1.9,1.841,6.385,1.783,8.917,2.128,4.142.633,8.341.978,12.541,1.208A.725.725,0,0,0,1142.05,591.623Z" transform="translate(-1038.136 -529.782)"/><path class="h" d="M1165.425,517.355a74.615,74.615,0,0,0-12.253,12.944c-2.934,3.912-6.846,9.665-6.328,14.784,0,.115.23.23.288.058,1.438-1.956,2.3-4.372,3.452-6.558a59.916,59.916,0,0,1,5.12-7.536c3.394-4.372,7.363-8.226,10.815-12.6C1167.094,517.757,1166.115,516.722,1165.425,517.355Z" transform="translate(-1077.389 -499.234)"/><path class="h" d="M1194.215,516.662c.23-3.567.69-7.133,1.151-10.643.46-3.567.92-7.076,1.323-10.643.345-2.934.92-6.213-.057-9.032a.6.6,0,0,0-1.093,0c-1.208,2.646-1.093,5.868-1.323,8.744-.345,3.567-.805,7.076-1.15,10.643-.69,6.558-1.783,14.209-.173,20.71.115.4.748.46.805,0C1194.1,523.22,1193.985,519.883,1194.215,516.662Z" transform="translate(-1133.907 -486)"/><path class="h" d="M1188.75,549.96a.787.787,0,0,0-1.323-.172,3.34,3.34,0,0,0-.805,2.416,9.031,9.031,0,0,0-.115,2.474.375.375,0,0,0,.518.288,3.136,3.136,0,0,0,1.553-1.956A3.2,3.2,0,0,0,1188.75,549.96Z" transform="translate(-1122.574 -512.97)"/><path class="h" d="M1183.379,535.444c-.058-.4-.69-.69-.92-.288-.173.23-.345.4-.518.633a5.357,5.357,0,0,0-.345.863,21.408,21.408,0,0,1-.92,2.013c-.345.633.575,1.093,1.035.633a20.46,20.46,0,0,0,1.323-1.783A2.177,2.177,0,0,0,1183.379,535.444Z" transform="translate(-1113.637 -506.796)"/><path class="h" d="M1177.027,518.834c0-.518-.46-.805-.863-.518-1.381.805-1.841,2.876-2.244,4.314-.173.69.805.863,1.093.288C1175.7,521.71,1177.027,520.329,1177.027,518.834Z" transform="translate(-1103.315 -499.677)"/><path class="h" d="M1167.279,554.8a4.963,4.963,0,0,0-3.106,1.381,5.212,5.212,0,0,0-1.9,2.128.212.212,0,0,0,.057.173,3.1,3.1,0,0,0,2.531-.46,9.286,9.286,0,0,0,2.934-2.244A.614.614,0,0,0,1167.279,554.8Z" transform="translate(-1087.527 -515.221)"/><path class="h" d="M1149.743,547.5a5.591,5.591,0,0,0-3.164.863c-.46.288-.92.518-1.323.805-.173.115-.575.518-.69.575s-.115.288.057.288a5.993,5.993,0,0,0,.748.23,5.5,5.5,0,0,0,1.668-.173,5.18,5.18,0,0,0,3.164-1.668C1150.376,548.128,1150.2,547.5,1149.743,547.5Z" transform="translate(-1059.636 -512.116)"/><path class="h" d="M1133.074,541.1a4.239,4.239,0,0,0-2.876.4,6.558,6.558,0,0,0-2.129.978c-.115.057-.057.23,0,.288.575.575,1.553.345,2.3.288.978-.115,2.244-.23,2.876-1.151C1133.419,541.62,1133.419,541.218,1133.074,541.1Z" transform="translate(-1033.245 -509.348)"/><path class="h" d="M1239.387,538.079a151.737,151.737,0,0,1-12.253-18.524c-1.668-3.049-3.279-6.1-4.89-9.2-1.553-3.049-2.934-6.385-5.235-9.032-.633-.748-2.243-.345-1.956.805.748,3.394,2.531,6.443,4.142,9.492,1.668,3.222,3.394,6.386,5.235,9.492,3.854,6.558,8.169,13,13.749,18.236C1238.87,539.978,1239.962,538.885,1239.387,538.079Z" transform="translate(-1189.492 -492.345)"/><path class="h" d="M1210.993,549.825a43.884,43.884,0,0,0-2.531-5.235.481.481,0,0,0-.921.23,14.779,14.779,0,0,0,1.611,5.12,24.815,24.815,0,0,0,2.416,4.775c.115.115.23.057.288-.058C1212.2,553.047,1211.511,551.321,1210.993,549.825Z" transform="translate(-1157.588 -510.764)"/><path class="h" d="M1216.38,521.285a.514.514,0,0,0-.978.23,21.642,21.642,0,0,0,1.38,6.846.482.482,0,0,0,.92-.23A19.83,19.83,0,0,0,1216.38,521.285Z" transform="translate(-1167.865 -500.862)"/><path class="h" d="M1216.348,499.87a.513.513,0,0,0-.978.115,25.771,25.771,0,0,1-.46,5.58c-.23.863,1.151,1.035,1.381.173A8.919,8.919,0,0,0,1216.348,499.87Z" transform="translate(-1166.682 -491.758)"/><path class="h" d="M1269.911,568.621c-6.155-3.624-14.209-4.832-21.17-5.7-6.846-.863-14.727-1.668-21.458.345-1.036.288-.748,1.956.23,2.013,6.9.69,13.864-.058,20.767.575,7.191.633,14.267,2.7,21.458,3.164C1270.026,569.024,1270.083,568.736,1269.911,568.621Z" transform="translate(-1226.631 -518.285)"/><path class="h" d="M1232.737,563.6a21.178,21.178,0,0,0-5.7-4.372.576.576,0,0,0-.805.805c1.381,2.013,3.452,4.027,6.04,4.372A.509.509,0,0,0,1232.737,563.6Z" transform="translate(-1189.169 -517.056)"/><path class="h" d="M1256.2,549.6a10.564,10.564,0,0,0-2.186-2.359,12.8,12.8,0,0,0-2.589-2.071c-.345-.173-.805.173-.69.518a4.318,4.318,0,0,0,2.014,2.589,10.126,10.126,0,0,0,3.221,1.668A.216.216,0,0,0,1256.2,549.6Z" transform="translate(-1226.731 -511.11)"/><path class="h" d="M1281.983,530.66c-1.266-1.381-2.7-3.164-4.6-3.682-.633-.173-1.323.46-.863,1.093,1.151,1.553,3.337,2.3,5.12,3.049C1281.868,531.178,1282.213,530.891,1281.983,530.66Z" transform="translate(-1267.294 -503.393)"/><path class="h" d="M1151.906,631.7c-1.035-4.487-4.89-6.9-7.478-10.412-.805-1.093-2.416.115-1.668,1.266,2.3,3.452,5.465,6.328,7.939,9.664C1151.044,632.731,1152.079,632.386,1151.906,631.7Z" transform="translate(-1060.189 -543.277)"/></g></g></svg>