<svg xmlns="http://www.w3.org/2000/svg" width="428.243" height="186.998" viewBox="0 0 428.243 186.998"><defs><style>.a{fill:#ffbe55;}.b{fill:#92a6eb;}.c{fill:#ea971d;}.d{fill:#f2d265;}.e{fill:#6a74ef;}</style></defs><g transform="translate(-871.296 27.998)"><g transform="translate(415.591 -446.546)"><path class="a" d="M683.245,608.32c-3.157-1.8-7.043-2.671-10.831-3.691,3.109-3.109,6.654-7.14,6.12-10.588a1.328,1.328,0,0,0-1.6-.923c-1.894.583-2.429,1.651-3.546,3.3a62.4,62.4,0,0,1-4.614,6.071c-1.069-4.177-1.7-9.617-4.469-13.065-.243-.34-.729-.1-.826.243-1.166,3.594-.34,8.111.34,12-3.691-1.36-7.626-2.429-11.366-1.409a.853.853,0,0,0-.194,1.554c3.691,2.186,8.16,3.5,12.288,4.954,0,.146.049.291.049.437-3.157,3.3-6.557,6.363-9.277,10.005-.243.34.194.874.583.729,3.5-1.214,6.606-3.643,9.423-6.266a21.592,21.592,0,0,0,2.769,7.868c1.6,2.429,5.78.971,4.857-2.04-.826-2.768-1.6-5.488-2.38-8.257,3.983,1.651,8.354,3.254,12.288,2.186A1.733,1.733,0,0,0,683.245,608.32Z" transform="translate(-100.87 -87.798)"/><path class="a" d="M612.367,634.711c-3.206,0-6.314-.826-9.423,0a.828.828,0,0,0,0,1.6c3.254.874,6.363,0,9.52-1.02A.3.3,0,0,0,612.367,634.711Z" transform="translate(-75.406 -110.983)"/><path class="a" d="M561.713,642.174c-3.74-.34-8.111-.826-11.414,1.214a1.36,1.36,0,0,0,.34,2.477,14.322,14.322,0,0,0,11.511-2.137A.846.846,0,0,0,561.713,642.174Z" transform="translate(-48.309 -114.852)"/><path class="a" d="M506.068,652.93c-2.574-.486-5.2-.146-7.771-.049-2.331.1-5.1-.34-7.091,1.117a1.408,1.408,0,0,0,0,2.38c2.04,1.457,4.711.874,7.091.583a30.133,30.133,0,0,0,8.063-1.651A1.3,1.3,0,0,0,506.068,652.93Z" transform="translate(-17.921 -120.41)"/><path class="a" d="M638.706,651.387a15.391,15.391,0,0,0-4.226,1.8,7.254,7.254,0,0,0-3.351,3.254,1.271,1.271,0,0,0,1.409,1.846,6.872,6.872,0,0,0,4.031-2.429,18.012,18.012,0,0,0,2.817-3.594A.6.6,0,0,0,638.706,651.387Z" transform="translate(-90.137 -119.741)"/><path class="a" d="M603.012,681.694a20.518,20.518,0,0,0-6.071,5.294.959.959,0,0,0,1.069,1.409,9.387,9.387,0,0,0,6.12-5.828A.78.78,0,0,0,603.012,681.694Z" transform="translate(-72.559 -135.283)"/><path class="a" d="M554.917,721.9a25.927,25.927,0,0,0-10.734,10.831,1.021,1.021,0,0,0,1.6,1.214,70.862,70.862,0,0,0,10.1-11.123C556.325,722.244,555.5,721.564,554.917,721.9Z" transform="translate(-45.447 -155.967)"/><path class="a" d="M576.673,651.966c-12.385,6.411-26.374,11.317-37.254,20.157-.729.583.194,1.749.971,1.263,11.851-7.14,26.908-10.783,36.671-20.982C577.3,652.209,576.964,651.82,576.673,651.966Z" transform="translate(-42.918 -120.029)"/><path class="a" d="M631.739,670.845a.538.538,0,0,0-.68-.194c-3.06,1.409-5.586,6.12-7.82,8.646-3.691,4.177-6.557,8.937-9.471,13.648-6.168,9.908-12.823,20.643-14.377,32.4-.146,1.263,1.7,1.554,2.283.631,6.654-10.88,11.463-22.78,18.068-33.708a148.406,148.406,0,0,1,8.548-12.677C629.991,677.4,633.342,673.71,631.739,670.845Z" transform="translate(-73.893 -129.631)"/><path class="a" d="M682.174,684.643a18.43,18.43,0,0,0-2.331-7.188.29.29,0,0,0-.534.146,63.458,63.458,0,0,0,.146,7.431c.049,2.186-.534,4.566.777,6.411a1.09,1.09,0,0,0,1.846,0C683.34,689.451,682.514,686.877,682.174,684.643Z" transform="translate(-114.953 -133.083)"/><path class="a" d="M684.271,730.046a54.926,54.926,0,0,1-1.311-6.848,2.041,2.041,0,0,0-4.08,0,38.011,38.011,0,0,0,.486,6.654c.291,2.186.534,3.934,2.768,4.76a1.373,1.373,0,0,0,1.214-.291C684.805,733.058,684.611,731.795,684.271,730.046Z" transform="translate(-114.768 -155.659)"/><path class="a" d="M697.153,783.685a47.913,47.913,0,0,0-2.283-7.674c-.68-1.748-1.263-3.594-2.963-4.614a.666.666,0,0,0-.971.389c-.583,1.7,0,3.5.291,5.246.486,2.623.874,5.294,1.506,7.868C693.462,787.814,697.736,786.551,697.153,783.685Z" transform="translate(-120.85 -181.418)"/><path class="a" d="M653.335,721.813c-4.906,12.045-4.954,26.18-4.517,38.954a.706.706,0,0,0,1.409,0c.534-13.065,2.72-25.888,3.643-38.9C653.87,721.57,653.433,721.57,653.335,721.813Z" transform="translate(-99.229 -155.877)"/><path class="a" d="M714.526,664.641c-1.263-1.457-3.983-4.177-6.071-2.963a1.5,1.5,0,0,0-.68,1.6c.146.971,1.166,1.7,1.8,2.38a27.794,27.794,0,0,1,2.234,2.963c.68.971,1.409,2.671,2.526,3.206.826.389,2.186.923,2.914,0C719.189,669.4,716.032,666.341,714.526,664.641Z" transform="translate(-129.626 -124.884)"/><path class="a" d="M754.048,707.749c-.729-1.846-2.186-3.206-3.5-4.663-1.506-1.748-2.914-3.691-4.566-5.294a.728.728,0,0,0-1.214.68,17.029,17.029,0,0,0,3.157,5.828c1.409,1.8,2.817,3.74,5,4.614A.962.962,0,0,0,754.048,707.749Z" transform="translate(-148.651 -143.512)"/><path class="a" d="M783.406,742.347c-1.263-1.7-2.72-3.3-4.031-5-1.651-2.089-4.614.874-2.914,2.914,1.166,1.36,2.331,2.671,3.5,4.08,1.166,1.36,2.089,2.914,3.886,3.546a.94.94,0,0,0,1.117-.631C785.495,745.407,784.475,743.756,783.406,742.347Z" transform="translate(-164.701 -163.588)"/><path class="a" d="M721.532,709.83c-2.283-5.391-5.586-10.005-8.743-14.911-3.109-4.808-5.78-10.394-9.811-14.523a.355.355,0,0,0-.583.34c1.36,5.586,4.954,10.734,7.82,15.688,2.963,5.148,5.78,10.2,9.714,14.62C720.755,712.015,721.97,710.8,721.532,709.83Z" transform="translate(-126.869 -134.616)"/><path class="a" d="M796.423,669.618c-4.128-5.148-10.54-8.888-15.737-12.92a116.57,116.57,0,0,0-16.028-10.928c-9.811-5.246-22-6.071-31.085-12.726-.243-.194-.534.194-.34.437,7.528,7.966,18.457,10.54,28.074,15.154,6.411,3.109,12.143,7.917,17.68,12.337,4.857,3.886,9.957,9.131,15.98,11.123C796.52,672.629,797.249,670.687,796.423,669.618Z" transform="translate(-142.698 -110.287)"/><path class="a" d="M795.112,538.876a206.124,206.124,0,0,0-44.3,12c-13.017,5-27.491,11.414-36.914,22.051a1.021,1.021,0,0,0,1.214,1.6c6.314-3.157,12.24-7.043,18.457-10.346a178.623,178.623,0,0,1,20.254-8.84c13.794-5.148,28.219-8.5,42.062-13.5A1.532,1.532,0,0,0,795.112,538.876Z" transform="translate(-132.644 -61.872)"/><path class="a" d="M749.507,608.931c-1.651-2.574-5.391-.923-7.674-.146-1.749.583-3.449,1.214-5.2,1.846-1.214.437-2.768.583-3.643,1.651a.294.294,0,0,0-.049.388c1.214,2.137,5.294.971,7.14.534s3.643-.971,5.488-1.36c1.554-.291,3.06-.34,3.886-1.894A.8.8,0,0,0,749.507,608.931Z" transform="translate(-142.555 -97.2)"/><path class="a" d="M794.869,597.545a12.4,12.4,0,0,0-6.508.486c-2.526.729-5.391,1.263-7.48,2.914a.866.866,0,0,0,.194,1.554,15.859,15.859,0,0,0,6.411-.34c2.817-.534,5.294-.874,7.626-2.623C795.792,598.953,795.889,597.739,794.869,597.545Z" transform="translate(-167.032 -91.933)"/><path class="a" d="M843.6,589.515a9.42,9.42,0,0,0-5.877-.923c-1.749.194-4.614.243-6.12,1.263a1.371,1.371,0,0,0-.291,2.089c1.36,1.36,4.031,1.02,5.78,1.02a12.922,12.922,0,0,0,6.46-1.651A1.012,1.012,0,0,0,843.6,589.515Z" transform="translate(-192.985 -87.4)"/><path class="a" d="M808.541,626.1a140.1,140.1,0,0,0-21.177-.146c-3.448.194-6.9.389-10.394.486-2.671.1-5.731-.291-8.063,1.166a.408.408,0,0,0,0,.68c3.934,2.866,12,1.554,16.66,1.6a227.277,227.277,0,0,0,22.974-1.069A1.363,1.363,0,0,0,808.541,626.1Z" transform="translate(-160.984 -106.499)"/><path class="a" d="M739.914,471.845a135.216,135.216,0,0,0-18.8,26.52c-4.274,7.771-9.86,19.282-7.577,28.317a.344.344,0,0,0,.583.1c2.089-3.934,3.011-8.5,4.517-12.726a97.975,97.975,0,0,1,7.286-14.863c5-8.791,11.22-16.805,16.32-25.548A1.5,1.5,0,0,0,739.914,471.845Z" transform="translate(-132.331 -27.19)"/><path class="a" d="M665.456,474.526c-.486-6.508-.583-13.017-.631-19.525s-.194-13.017-.389-19.574c-.146-5.391.1-11.463-2.428-16.368a1.08,1.08,0,0,0-1.943.243c-1.506,5.1-.437,10.831-.194,16.077.292,6.508.389,13.017.631,19.574.437,12.094.389,26.131,5,37.5a.719.719,0,0,0,1.409-.194C666.913,486.378,665.893,480.4,665.456,474.526Z" transform="translate(-104.695)"/><path class="a" d="M693.648,553.467a1.411,1.411,0,0,0-2.429,0,5.909,5.909,0,0,0-.826,4.517,23.818,23.818,0,0,0,.389,4.566.666.666,0,0,0,.971.389c1.457-.923,1.846-2.283,2.331-3.886C694.62,557.11,694.911,555.119,693.648,553.467Z" transform="translate(-120.648 -69.032)"/><path class="a" d="M701.76,520.648c-.243-.68-1.36-1.069-1.749-.243-.194.437-.534.826-.729,1.263a9.689,9.689,0,0,0-.437,1.7,27.254,27.254,0,0,1-1.117,3.886c-.437,1.214,1.36,1.846,2.04.874a22.7,22.7,0,0,0,1.943-3.546A4.831,4.831,0,0,0,701.76,520.648Z" transform="translate(-124.436 -52.145)"/><path class="a" d="M710.806,482.937a1,1,0,0,0-1.7-.729c-2.283,1.846-2.623,5.634-2.914,8.4-.146,1.263,1.7,1.36,2.089.291C709.106,488.377,711.194,485.608,710.806,482.937Z" transform="translate(-128.82 -32.599)"/><path class="a" d="M740.311,556.682c-2.186.34-3.789,1.749-5.246,3.3-1.117,1.214-2.574,2.574-2.866,4.323,0,.1.049.243.146.243,1.6.437,3.206-.583,4.42-1.506a16.626,16.626,0,0,0,4.76-4.809A1.082,1.082,0,0,0,740.311,556.682Z" transform="translate(-142.2 -71.033)"/><path class="a" d="M775.794,535.5a9.3,9.3,0,0,0-5.489,2.428,25.831,25.831,0,0,0-2.234,1.8c-.34.291-.923,1.069-1.117,1.214a.288.288,0,0,0,.146.534,5.734,5.734,0,0,0,1.36.194,12.98,12.98,0,0,0,3.011-.729,9.519,9.519,0,0,0,5.246-3.837A1.08,1.08,0,0,0,775.794,535.5Z" transform="translate(-160.003 -60.146)"/><path class="a" d="M810.2,516.826c-1.846-.34-3.448.631-5.051,1.409a12.821,12.821,0,0,0-3.643,2.283.385.385,0,0,0,.049.534c1.214.923,2.914.243,4.226-.1,1.748-.486,3.983-1.02,4.906-2.769A.861.861,0,0,0,810.2,516.826Z" transform="translate(-177.799 -50.508)"/><path class="a" d="M584.6,530.7A270.2,270.2,0,0,1,557.7,500.347c-3.837-5.051-7.528-10.2-11.171-15.4-3.594-5.148-6.994-10.831-11.8-14.96-1.36-1.166-4.08-.1-3.351,1.943,2.283,5.926,6.217,10.977,9.908,16.077,3.837,5.343,7.82,10.637,11.9,15.785,8.646,10.831,18.068,21.371,29.482,29.385C584.216,534.249,585.867,531.918,584.6,530.7Z" transform="translate(-38.852 -26.209)"/><path class="a" d="M642.533,558.92a72.318,72.318,0,0,0-5.974-8.84.88.88,0,0,0-1.6.68,25.724,25.724,0,0,0,4.274,8.84c1.8,2.623,3.3,5.828,5.586,8.014a.28.28,0,0,0,.486-.194C645.641,564.408,643.941,561.445,642.533,558.92Z" transform="translate(-92.166 -67.442)"/><path class="a" d="M620.71,501.546a.9.9,0,0,0-1.651.68c1.069,4.128,1.943,8.306,4.226,12a.878.878,0,0,0,1.6-.68A31.862,31.862,0,0,0,620.71,501.546Z" transform="translate(-83.992 -42.465)"/><path class="a" d="M618.6,455.14a.922.922,0,0,0-1.7.437c.243,3.448,1.02,6.751.631,10.248-.194,1.651,2.38,1.6,2.574,0A17.6,17.6,0,0,0,618.6,455.14Z" transform="translate(-82.9 -18.596)"/><path class="a" d="M535.018,610.756c-12.046-4.906-26.908-5.1-39.682-4.906-12.628.194-27.005.826-38.662,6.12-1.8.826-.874,3.691.971,3.643,12.628-.534,25.014-3.691,37.691-4.323,13.163-.68,26.52,1.166,39.585.194C535.358,611.436,535.407,610.95,535.018,610.756Z" transform="translate(0 -96.304)"/><path class="a" d="M604.309,594.808c-3.157-2.963-7.48-4.711-11.366-6.411-1.069-.437-2.089.68-1.263,1.6,3.011,3.3,7.237,6.411,12,6.314A.865.865,0,0,0,604.309,594.808Z" transform="translate(-69.777 -87.302)"/><path class="a" d="M549.829,572.167a17.324,17.324,0,0,0-4.517-3.643c-1.8-1.117-3.206-2.429-5.246-3.06a.917.917,0,0,0-1.117,1.117c.826,2.186,2.331,3.06,4.323,4.128a18.188,18.188,0,0,0,6.266,2.186C549.975,572.9,550.023,572.41,549.829,572.167Z" transform="translate(-42.788 -75.541)"/><path class="a" d="M488.859,539.569c-2.671-2.137-5.731-5-9.228-5.488a1.312,1.312,0,0,0-1.263,2.186c2.526,2.526,6.654,3.3,10.006,4.177C488.859,540.54,489.3,539.909,488.859,539.569Z" transform="translate(-11.445 -59.408)"/><path class="a" d="M798.787,713.472c-3.011-7.82-10.637-11.22-16.223-16.9-1.749-1.8-4.371.874-2.72,2.72,5.051,5.683,11.511,10.005,16.854,15.4C797.525,715.512,799.273,714.686,798.787,713.472Z" transform="translate(-166.434 -142.679)"/></g><g transform="matrix(0.259, 0.966, -0.966, 0.259, 1279.809, -15.187)"><g transform="translate(86.192 172.79)"><path class="b" d="M261.352,296.833a9.758,9.758,0,1,0,9.758,9.758A9.769,9.769,0,0,0,261.352,296.833Zm0,17.076a7.318,7.318,0,1,1,7.318-7.318A7.326,7.326,0,0,1,261.352,313.909Z" transform="translate(-251.594 -296.833)"/></g><g transform="translate(74.402 103.674)"><path class="c" d="M256.969,344.834a15.042,15.042,0,1,0,15.043,15.043A15.059,15.059,0,0,0,256.969,344.834Zm0,27.647a12.6,12.6,0,1,1,12.6-12.6A12.618,12.618,0,0,1,256.969,372.481Z" transform="translate(-241.927 -344.834)"/></g><g transform="translate(0 90.054)"><path class="d" d="M201.662,346.667A20.735,20.735,0,1,0,222.4,367.4,20.758,20.758,0,0,0,201.662,346.667Zm0,39.03a18.3,18.3,0,1,1,18.3-18.3A18.316,18.316,0,0,1,201.662,385.7Z" transform="translate(-180.927 -346.667)"/></g><g transform="translate(23.377)"><path class="e" d="M226.52,411.166a26.427,26.427,0,1,0,26.427,26.427A26.457,26.457,0,0,0,226.52,411.166Zm0,50.414a23.988,23.988,0,1,1,23.988-23.988A24.015,24.015,0,0,1,226.52,461.58Z" transform="translate(-200.093 -411.166)"/></g></g></g></svg>