<svg xmlns="http://www.w3.org/2000/svg" width="40" height="35" viewBox="0 0 40 35"><defs><style>.a{fill:#3b1957;}</style></defs><g transform="translate(0 -1)"><path class="a" d="M29,23.5H19V31a5.005,5.005,0,0,1-5,5H10.25A1.25,1.25,0,0,1,9,34.75V28.832L4.165,20.37A1.232,1.232,0,0,1,4,19.75V2.25A1.25,1.25,0,0,1,5.25,1H25.313A5,5,0,0,1,29.88,3.97l4.01,9.023A1.227,1.227,0,0,1,34,13.5v5A5.005,5.005,0,0,1,29,23.5Z" transform="translate(6)"/><path class="a" d="M0,19.75V2.25A1.25,1.25,0,0,1,1.25,1H7.5V21H1.25A1.25,1.25,0,0,1,0,19.75Z"/></g></svg>