<svg xmlns="http://www.w3.org/2000/svg" width="40.66" height="39.151" viewBox="0 0 40.66 39.151"><defs><style>.a{fill:#3b1957;}</style></defs><path class="a" d="M19.883,2.338a1.8,1.8,0,0,1,3.238,0l4.806,10.047a1.8,1.8,0,0,0,1.374,1L40.28,14.9a1.8,1.8,0,0,1,1,3.068l-8.023,7.759a1.8,1.8,0,0,0-.519,1.606l1.97,11.02a1.8,1.8,0,0,1-2.622,1.894l-9.732-5.273a1.8,1.8,0,0,0-1.71,0l-9.732,5.273a1.8,1.8,0,0,1-2.622-1.894l1.97-11.02a1.8,1.8,0,0,0-.519-1.606L1.721,17.969a1.8,1.8,0,0,1,1-3.068L13.7,13.388a1.8,1.8,0,0,0,1.374-1Z" transform="translate(-1.172 -1.317)"/></svg>